G04 #@! TF.GenerationSoftware,KiCad,Pcbnew,(5.0.2)-1*
G04 #@! TF.CreationDate,2019-01-05T13:40:23-06:00*
G04 #@! TF.ProjectId,controller,636f6e74-726f-46c6-9c65-722e6b696361,rev?*
G04 #@! TF.SameCoordinates,Original*
G04 #@! TF.FileFunction,Copper,L2,Bot*
G04 #@! TF.FilePolarity,Positive*
%FSLAX46Y46*%
G04 Gerber Fmt 4.6, Leading zero omitted, Abs format (unit mm)*
G04 Created by KiCad (PCBNEW (5.0.2)-1) date 1/5/2019 1:40:23 PM*
%MOMM*%
%LPD*%
G01*
G04 APERTURE LIST*
G04 #@! TA.AperFunction,ComponentPad*
%ADD10R,1.700000X1.700000*%
G04 #@! TD*
G04 #@! TA.AperFunction,ComponentPad*
%ADD11O,1.700000X1.700000*%
G04 #@! TD*
G04 #@! TA.AperFunction,ComponentPad*
%ADD12O,1.600000X1.600000*%
G04 #@! TD*
G04 #@! TA.AperFunction,ComponentPad*
%ADD13R,1.600000X1.600000*%
G04 #@! TD*
G04 #@! TA.AperFunction,ViaPad*
%ADD14C,0.800000*%
G04 #@! TD*
G04 #@! TA.AperFunction,Conductor*
%ADD15C,0.250000*%
G04 #@! TD*
G04 #@! TA.AperFunction,Conductor*
%ADD16C,0.254000*%
G04 #@! TD*
G04 APERTURE END LIST*
D10*
G04 #@! TO.P,J2,1*
G04 #@! TO.N,Net-(J2-Pad1)*
X142795001Y-60245001D03*
D11*
G04 #@! TO.P,J2,2*
G04 #@! TO.N,Net-(J2-Pad2)*
X145335001Y-60245001D03*
G04 #@! TO.P,J2,3*
G04 #@! TO.N,Net-(J2-Pad3)*
X142795001Y-62785001D03*
G04 #@! TO.P,J2,4*
G04 #@! TO.N,Net-(J2-Pad4)*
X145335001Y-62785001D03*
G04 #@! TO.P,J2,5*
G04 #@! TO.N,Net-(J2-Pad5)*
X142795001Y-65325001D03*
G04 #@! TO.P,J2,6*
G04 #@! TO.N,Net-(J2-Pad6)*
X145335001Y-65325001D03*
G04 #@! TO.P,J2,7*
G04 #@! TO.N,Net-(J2-Pad7)*
X142795001Y-67865001D03*
G04 #@! TO.P,J2,8*
G04 #@! TO.N,Net-(J2-Pad8)*
X145335001Y-67865001D03*
G04 #@! TO.P,J2,9*
G04 #@! TO.N,GND*
X142795001Y-70405001D03*
G04 #@! TO.P,J2,10*
G04 #@! TO.N,Net-(J2-Pad10)*
X145335001Y-70405001D03*
G04 #@! TO.P,J2,11*
G04 #@! TO.N,Net-(C1-Pad1)*
X142795001Y-72945001D03*
G04 #@! TO.P,J2,12*
G04 #@! TO.N,Net-(J2-Pad12)*
X145335001Y-72945001D03*
G04 #@! TO.P,J2,13*
G04 #@! TO.N,Net-(BOIL_LED1-Pad4)*
X142795001Y-75485001D03*
G04 #@! TO.P,J2,14*
G04 #@! TO.N,Net-(J2-Pad14)*
X145335001Y-75485001D03*
G04 #@! TO.P,J2,15*
G04 #@! TO.N,Net-(J2-Pad15)*
X142795001Y-78025001D03*
G04 #@! TO.P,J2,16*
G04 #@! TO.N,Net-(J2-Pad16)*
X145335001Y-78025001D03*
G04 #@! TO.P,J2,17*
G04 #@! TO.N,Net-(J2-Pad17)*
X142795001Y-80565001D03*
G04 #@! TO.P,J2,18*
G04 #@! TO.N,Net-(J2-Pad18)*
X145335001Y-80565001D03*
G04 #@! TO.P,J2,19*
G04 #@! TO.N,Net-(J2-Pad19)*
X142795001Y-83105001D03*
G04 #@! TO.P,J2,20*
G04 #@! TO.N,Net-(J2-Pad20)*
X145335001Y-83105001D03*
G04 #@! TO.P,J2,21*
G04 #@! TO.N,Net-(J2-Pad21)*
X142795001Y-85645001D03*
G04 #@! TO.P,J2,22*
G04 #@! TO.N,Net-(J2-Pad22)*
X145335001Y-85645001D03*
G04 #@! TO.P,J2,23*
G04 #@! TO.N,Net-(J2-Pad23)*
X142795001Y-88185001D03*
G04 #@! TO.P,J2,24*
G04 #@! TO.N,Net-(J2-Pad24)*
X145335001Y-88185001D03*
G04 #@! TO.P,J2,25*
G04 #@! TO.N,GND*
X142795001Y-90725001D03*
G04 #@! TO.P,J2,26*
G04 #@! TO.N,Net-(J2-Pad26)*
X145335001Y-90725001D03*
G04 #@! TO.P,J2,27*
G04 #@! TO.N,Net-(J2-Pad27)*
X142795001Y-93265001D03*
G04 #@! TO.P,J2,28*
G04 #@! TO.N,Net-(J2-Pad28)*
X145335001Y-93265001D03*
G04 #@! TO.P,J2,29*
G04 #@! TO.N,Net-(J2-Pad29)*
X142795001Y-95805001D03*
G04 #@! TO.P,J2,30*
G04 #@! TO.N,Net-(J2-Pad30)*
X145335001Y-95805001D03*
G04 #@! TO.P,J2,31*
G04 #@! TO.N,Net-(J2-Pad31)*
X142795001Y-98345001D03*
G04 #@! TO.P,J2,32*
G04 #@! TO.N,Net-(J2-Pad32)*
X145335001Y-98345001D03*
G04 #@! TO.P,J2,33*
G04 #@! TO.N,Net-(J2-Pad33)*
X142795001Y-100885001D03*
G04 #@! TO.P,J2,34*
G04 #@! TO.N,Net-(J2-Pad34)*
X145335001Y-100885001D03*
G04 #@! TO.P,J2,35*
G04 #@! TO.N,Net-(J2-Pad35)*
X142795001Y-103425001D03*
G04 #@! TO.P,J2,36*
G04 #@! TO.N,Net-(J2-Pad36)*
X145335001Y-103425001D03*
G04 #@! TO.P,J2,37*
G04 #@! TO.N,Net-(J2-Pad37)*
X142795001Y-105965001D03*
G04 #@! TO.P,J2,38*
G04 #@! TO.N,Net-(J2-Pad38)*
X145335001Y-105965001D03*
G04 #@! TO.P,J2,39*
G04 #@! TO.N,Net-(J2-Pad39)*
X142795001Y-108505001D03*
G04 #@! TO.P,J2,40*
G04 #@! TO.N,Net-(J2-Pad40)*
X145335001Y-108505001D03*
G04 #@! TD*
D10*
G04 #@! TO.P,J1,1*
G04 #@! TO.N,Net-(J1-Pad1)*
X145415000Y-55245000D03*
D11*
G04 #@! TO.P,J1,2*
G04 #@! TO.N,Net-(J1-Pad2)*
X142875000Y-55245000D03*
G04 #@! TO.P,J1,3*
G04 #@! TO.N,Net-(BOIL1-Pad3)*
X140335000Y-55245000D03*
G04 #@! TO.P,J1,4*
G04 #@! TO.N,Net-(BOIL1-Pad4)*
X137795000Y-55245000D03*
G04 #@! TO.P,J1,5*
G04 #@! TO.N,Net-(BOIL_LED1-Pad1)*
X135255000Y-55245000D03*
G04 #@! TO.P,J1,6*
G04 #@! TO.N,Net-(J1-Pad6)*
X132715000Y-55245000D03*
G04 #@! TO.P,J1,7*
G04 #@! TO.N,Net-(J1-Pad7)*
X130175000Y-55245000D03*
G04 #@! TO.P,J1,8*
G04 #@! TO.N,Net-(J1-Pad8)*
X127635000Y-55245000D03*
G04 #@! TD*
D12*
G04 #@! TO.P,BOIL1,4*
G04 #@! TO.N,Net-(BOIL1-Pad4)*
X128905000Y-97155000D03*
G04 #@! TO.P,BOIL1,2*
G04 #@! TO.N,GND*
X136525000Y-94615000D03*
G04 #@! TO.P,BOIL1,3*
G04 #@! TO.N,Net-(BOIL1-Pad3)*
X128905000Y-94615000D03*
D13*
G04 #@! TO.P,BOIL1,1*
G04 #@! TO.N,Net-(BOIL1-Pad1)*
X136525000Y-97155000D03*
G04 #@! TD*
G04 #@! TO.P,BOIL_LED1,1*
G04 #@! TO.N,Net-(BOIL_LED1-Pad1)*
X131445000Y-80645000D03*
D12*
G04 #@! TO.P,BOIL_LED1,3*
G04 #@! TO.N,GND*
X139065000Y-83185000D03*
G04 #@! TO.P,BOIL_LED1,2*
G04 #@! TO.N,Net-(BOIL_LED1-Pad2)*
X131445000Y-83185000D03*
G04 #@! TO.P,BOIL_LED1,4*
G04 #@! TO.N,Net-(BOIL_LED1-Pad4)*
X139065000Y-80645000D03*
G04 #@! TD*
D13*
G04 #@! TO.P,ON_OFF1,1*
G04 #@! TO.N,Net-(ON_OFF1-Pad1)*
X136525000Y-105410000D03*
D12*
G04 #@! TO.P,ON_OFF1,3*
G04 #@! TO.N,Net-(J1-Pad1)*
X128905000Y-102870000D03*
G04 #@! TO.P,ON_OFF1,2*
G04 #@! TO.N,GND*
X136525000Y-102870000D03*
G04 #@! TO.P,ON_OFF1,4*
G04 #@! TO.N,Net-(J1-Pad2)*
X128905000Y-105410000D03*
G04 #@! TD*
G04 #@! TO.P,ON_STB_LED1,4*
G04 #@! TO.N,Net-(C1-Pad1)*
X139065000Y-69850000D03*
G04 #@! TO.P,ON_STB_LED1,2*
G04 #@! TO.N,Net-(ON_STB_LED1-Pad2)*
X131445000Y-72390000D03*
G04 #@! TO.P,ON_STB_LED1,3*
G04 #@! TO.N,GND*
X139065000Y-72390000D03*
D13*
G04 #@! TO.P,ON_STB_LED1,1*
G04 #@! TO.N,Net-(BOIL_LED1-Pad1)*
X131445000Y-69850000D03*
G04 #@! TD*
D14*
G04 #@! TO.N,Net-(J1-Pad6)*
X132715000Y-55245000D03*
X126365000Y-73660000D03*
G04 #@! TD*
D15*
G04 #@! TO.N,Net-(J1-Pad6)*
X129540000Y-58420000D02*
X132715000Y-55245000D01*
X126365000Y-61595000D02*
X129540000Y-58420000D01*
X126365000Y-73660000D02*
X126365000Y-61595000D01*
G04 #@! TO.N,GND*
X140810002Y-72390000D02*
X142795001Y-70405001D01*
X139065000Y-72390000D02*
X140810002Y-72390000D01*
G04 #@! TO.N,Net-(J1-Pad2)*
X142025001Y-56094999D02*
X141629999Y-56094999D01*
X142875000Y-55245000D02*
X142025001Y-56094999D01*
X141629999Y-56094999D02*
X139304998Y-58420000D01*
X139304998Y-58420000D02*
X138430000Y-58420000D01*
X138430000Y-58420000D02*
X134620000Y-62230000D01*
X134620000Y-62230000D02*
X134620000Y-94615000D01*
X131445000Y-102870000D02*
X128905000Y-105410000D01*
X131445000Y-97790000D02*
X131445000Y-102870000D01*
X134620000Y-94615000D02*
X131445000Y-97790000D01*
G04 #@! TO.N,Net-(BOIL1-Pad4)*
X133800010Y-59239990D02*
X137795000Y-55245000D01*
X128905000Y-97155000D02*
X133800010Y-92259990D01*
X133800010Y-92259990D02*
X133800010Y-59239990D01*
G04 #@! TD*
D16*
G04 #@! TO.N,GND*
G36*
X134184375Y-56315625D02*
X134675582Y-56643839D01*
X135108744Y-56730000D01*
X135235199Y-56730000D01*
X133315538Y-58649661D01*
X133252082Y-58692061D01*
X133209682Y-58755517D01*
X133209681Y-58755518D01*
X133084107Y-58943453D01*
X133025122Y-59239990D01*
X133040011Y-59314842D01*
X133040010Y-91945188D01*
X130367595Y-94617603D01*
X130368113Y-94615000D01*
X130256740Y-94055091D01*
X129939577Y-93580423D01*
X129464909Y-93263260D01*
X129046333Y-93180000D01*
X128763667Y-93180000D01*
X128345091Y-93263260D01*
X127870423Y-93580423D01*
X127553260Y-94055091D01*
X127441887Y-94615000D01*
X127553260Y-95174909D01*
X127870423Y-95649577D01*
X128222758Y-95885000D01*
X127870423Y-96120423D01*
X127553260Y-96595091D01*
X127441887Y-97155000D01*
X127553260Y-97714909D01*
X127870423Y-98189577D01*
X128345091Y-98506740D01*
X128763667Y-98590000D01*
X129046333Y-98590000D01*
X129464909Y-98506740D01*
X129939577Y-98189577D01*
X130256740Y-97714909D01*
X130368113Y-97155000D01*
X130303688Y-96831113D01*
X133860001Y-93274801D01*
X133860001Y-94300197D01*
X130960530Y-97199669D01*
X130897071Y-97242071D01*
X130729096Y-97493464D01*
X130685000Y-97715149D01*
X130685000Y-97715153D01*
X130670112Y-97790000D01*
X130685000Y-97864847D01*
X130685001Y-102555196D01*
X130367595Y-102872602D01*
X130368113Y-102870000D01*
X130256740Y-102310091D01*
X129939577Y-101835423D01*
X129464909Y-101518260D01*
X129046333Y-101435000D01*
X128763667Y-101435000D01*
X128345091Y-101518260D01*
X127870423Y-101835423D01*
X127553260Y-102310091D01*
X127441887Y-102870000D01*
X127553260Y-103429909D01*
X127870423Y-103904577D01*
X128222758Y-104140000D01*
X127870423Y-104375423D01*
X127553260Y-104850091D01*
X127441887Y-105410000D01*
X127553260Y-105969909D01*
X127870423Y-106444577D01*
X128345091Y-106761740D01*
X128763667Y-106845000D01*
X129046333Y-106845000D01*
X129464909Y-106761740D01*
X129939577Y-106444577D01*
X130256740Y-105969909D01*
X130368113Y-105410000D01*
X130303688Y-105086114D01*
X130779802Y-104610000D01*
X135077560Y-104610000D01*
X135077560Y-106210000D01*
X135126843Y-106457765D01*
X135267191Y-106667809D01*
X135477235Y-106808157D01*
X135725000Y-106857440D01*
X137325000Y-106857440D01*
X137572765Y-106808157D01*
X137782809Y-106667809D01*
X137923157Y-106457765D01*
X137972440Y-106210000D01*
X137972440Y-104610000D01*
X137923157Y-104362235D01*
X137782809Y-104152191D01*
X137572765Y-104011843D01*
X137417639Y-103980987D01*
X137756041Y-103607423D01*
X137916904Y-103219039D01*
X137794915Y-102997000D01*
X136652000Y-102997000D01*
X136652000Y-103017000D01*
X136398000Y-103017000D01*
X136398000Y-102997000D01*
X135255085Y-102997000D01*
X135133096Y-103219039D01*
X135293959Y-103607423D01*
X135632361Y-103980987D01*
X135477235Y-104011843D01*
X135267191Y-104152191D01*
X135126843Y-104362235D01*
X135077560Y-104610000D01*
X130779802Y-104610000D01*
X131929476Y-103460327D01*
X131992929Y-103417929D01*
X132035327Y-103354476D01*
X132035329Y-103354474D01*
X132160903Y-103166538D01*
X132160904Y-103166537D01*
X132205000Y-102944852D01*
X132205000Y-102944848D01*
X132219888Y-102870001D01*
X132205000Y-102795154D01*
X132205000Y-102520961D01*
X135133096Y-102520961D01*
X135255085Y-102743000D01*
X136398000Y-102743000D01*
X136398000Y-101599371D01*
X136652000Y-101599371D01*
X136652000Y-102743000D01*
X137794915Y-102743000D01*
X137916904Y-102520961D01*
X137756041Y-102132577D01*
X137380134Y-101717611D01*
X136874041Y-101478086D01*
X136652000Y-101599371D01*
X136398000Y-101599371D01*
X136175959Y-101478086D01*
X135669866Y-101717611D01*
X135293959Y-102132577D01*
X135133096Y-102520961D01*
X132205000Y-102520961D01*
X132205000Y-98104801D01*
X135104473Y-95205329D01*
X135167929Y-95162929D01*
X135197280Y-95119003D01*
X135293959Y-95352423D01*
X135632361Y-95725987D01*
X135477235Y-95756843D01*
X135267191Y-95897191D01*
X135126843Y-96107235D01*
X135077560Y-96355000D01*
X135077560Y-97955000D01*
X135126843Y-98202765D01*
X135267191Y-98412809D01*
X135477235Y-98553157D01*
X135725000Y-98602440D01*
X137325000Y-98602440D01*
X137572765Y-98553157D01*
X137782809Y-98412809D01*
X137923157Y-98202765D01*
X137972440Y-97955000D01*
X137972440Y-96355000D01*
X137923157Y-96107235D01*
X137782809Y-95897191D01*
X137572765Y-95756843D01*
X137417639Y-95725987D01*
X137756041Y-95352423D01*
X137916904Y-94964039D01*
X137794915Y-94742000D01*
X136652000Y-94742000D01*
X136652000Y-94762000D01*
X136398000Y-94762000D01*
X136398000Y-94742000D01*
X136378000Y-94742000D01*
X136378000Y-94488000D01*
X136398000Y-94488000D01*
X136398000Y-93344371D01*
X136652000Y-93344371D01*
X136652000Y-94488000D01*
X137794915Y-94488000D01*
X137916904Y-94265961D01*
X137756041Y-93877577D01*
X137380134Y-93462611D01*
X136874041Y-93223086D01*
X136652000Y-93344371D01*
X136398000Y-93344371D01*
X136175959Y-93223086D01*
X135669866Y-93462611D01*
X135380000Y-93782596D01*
X135380000Y-83534039D01*
X137673096Y-83534039D01*
X137833959Y-83922423D01*
X138209866Y-84337389D01*
X138715959Y-84576914D01*
X138938000Y-84455629D01*
X138938000Y-83312000D01*
X139192000Y-83312000D01*
X139192000Y-84455629D01*
X139414041Y-84576914D01*
X139920134Y-84337389D01*
X140296041Y-83922423D01*
X140456904Y-83534039D01*
X140334915Y-83312000D01*
X139192000Y-83312000D01*
X138938000Y-83312000D01*
X137795085Y-83312000D01*
X137673096Y-83534039D01*
X135380000Y-83534039D01*
X135380000Y-80645000D01*
X137601887Y-80645000D01*
X137713260Y-81204909D01*
X138030423Y-81679577D01*
X138414108Y-81935947D01*
X138209866Y-82032611D01*
X137833959Y-82447577D01*
X137673096Y-82835961D01*
X137795085Y-83058000D01*
X138938000Y-83058000D01*
X138938000Y-83038000D01*
X139192000Y-83038000D01*
X139192000Y-83058000D01*
X140334915Y-83058000D01*
X140456904Y-82835961D01*
X140296041Y-82447577D01*
X139920134Y-82032611D01*
X139715892Y-81935947D01*
X140099577Y-81679577D01*
X140416740Y-81204909D01*
X140528113Y-80645000D01*
X140416740Y-80085091D01*
X140099577Y-79610423D01*
X139624909Y-79293260D01*
X139206333Y-79210000D01*
X138923667Y-79210000D01*
X138505091Y-79293260D01*
X138030423Y-79610423D01*
X137713260Y-80085091D01*
X137601887Y-80645000D01*
X135380000Y-80645000D01*
X135380000Y-72739039D01*
X137673096Y-72739039D01*
X137833959Y-73127423D01*
X138209866Y-73542389D01*
X138715959Y-73781914D01*
X138938000Y-73660629D01*
X138938000Y-72517000D01*
X139192000Y-72517000D01*
X139192000Y-73660629D01*
X139414041Y-73781914D01*
X139920134Y-73542389D01*
X140296041Y-73127423D01*
X140456904Y-72739039D01*
X140334915Y-72517000D01*
X139192000Y-72517000D01*
X138938000Y-72517000D01*
X137795085Y-72517000D01*
X137673096Y-72739039D01*
X135380000Y-72739039D01*
X135380000Y-69850000D01*
X137601887Y-69850000D01*
X137713260Y-70409909D01*
X138030423Y-70884577D01*
X138414108Y-71140947D01*
X138209866Y-71237611D01*
X137833959Y-71652577D01*
X137673096Y-72040961D01*
X137795085Y-72263000D01*
X138938000Y-72263000D01*
X138938000Y-72243000D01*
X139192000Y-72243000D01*
X139192000Y-72263000D01*
X140334915Y-72263000D01*
X140456904Y-72040961D01*
X140296041Y-71652577D01*
X139920134Y-71237611D01*
X139715892Y-71140947D01*
X140099577Y-70884577D01*
X140416740Y-70409909D01*
X140528113Y-69850000D01*
X140416740Y-69290091D01*
X140099577Y-68815423D01*
X139624909Y-68498260D01*
X139206333Y-68415000D01*
X138923667Y-68415000D01*
X138505091Y-68498260D01*
X138030423Y-68815423D01*
X137713260Y-69290091D01*
X137601887Y-69850000D01*
X135380000Y-69850000D01*
X135380000Y-62544801D01*
X138744802Y-59180000D01*
X139230151Y-59180000D01*
X139304998Y-59194888D01*
X139379845Y-59180000D01*
X139379850Y-59180000D01*
X139601535Y-59135904D01*
X139852927Y-58967929D01*
X139895329Y-58904470D01*
X141944801Y-56854999D01*
X141950154Y-56854999D01*
X142025001Y-56869887D01*
X142099848Y-56854999D01*
X142099853Y-56854999D01*
X142321538Y-56810903D01*
X142508255Y-56686142D01*
X142728744Y-56730000D01*
X143021256Y-56730000D01*
X143454418Y-56643839D01*
X143945625Y-56315625D01*
X143957816Y-56297381D01*
X143966843Y-56342765D01*
X144107191Y-56552809D01*
X144317235Y-56693157D01*
X144565000Y-56742440D01*
X146265000Y-56742440D01*
X146512765Y-56693157D01*
X146684500Y-56578406D01*
X146684500Y-59591741D01*
X146405626Y-59174376D01*
X145914419Y-58846162D01*
X145481257Y-58760001D01*
X145188745Y-58760001D01*
X144755583Y-58846162D01*
X144264376Y-59174376D01*
X144252185Y-59192620D01*
X144243158Y-59147236D01*
X144102810Y-58937192D01*
X143892766Y-58796844D01*
X143645001Y-58747561D01*
X141945001Y-58747561D01*
X141697236Y-58796844D01*
X141487192Y-58937192D01*
X141346844Y-59147236D01*
X141297561Y-59395001D01*
X141297561Y-61095001D01*
X141346844Y-61342766D01*
X141487192Y-61552810D01*
X141697236Y-61693158D01*
X141742620Y-61702185D01*
X141724376Y-61714376D01*
X141396162Y-62205583D01*
X141280909Y-62785001D01*
X141396162Y-63364419D01*
X141724376Y-63855626D01*
X142022762Y-64055001D01*
X141724376Y-64254376D01*
X141396162Y-64745583D01*
X141280909Y-65325001D01*
X141396162Y-65904419D01*
X141724376Y-66395626D01*
X142022762Y-66595001D01*
X141724376Y-66794376D01*
X141396162Y-67285583D01*
X141280909Y-67865001D01*
X141396162Y-68444419D01*
X141724376Y-68935626D01*
X142043479Y-69148844D01*
X141913643Y-69209818D01*
X141523356Y-69638077D01*
X141353525Y-70048111D01*
X141474846Y-70278001D01*
X142668001Y-70278001D01*
X142668001Y-70258001D01*
X142922001Y-70258001D01*
X142922001Y-70278001D01*
X142942001Y-70278001D01*
X142942001Y-70532001D01*
X142922001Y-70532001D01*
X142922001Y-70552001D01*
X142668001Y-70552001D01*
X142668001Y-70532001D01*
X141474846Y-70532001D01*
X141353525Y-70761891D01*
X141523356Y-71171925D01*
X141913643Y-71600184D01*
X142043479Y-71661158D01*
X141724376Y-71874376D01*
X141396162Y-72365583D01*
X141280909Y-72945001D01*
X141396162Y-73524419D01*
X141724376Y-74015626D01*
X142022762Y-74215001D01*
X141724376Y-74414376D01*
X141396162Y-74905583D01*
X141280909Y-75485001D01*
X141396162Y-76064419D01*
X141724376Y-76555626D01*
X142022762Y-76755001D01*
X141724376Y-76954376D01*
X141396162Y-77445583D01*
X141280909Y-78025001D01*
X141396162Y-78604419D01*
X141724376Y-79095626D01*
X142022762Y-79295001D01*
X141724376Y-79494376D01*
X141396162Y-79985583D01*
X141280909Y-80565001D01*
X141396162Y-81144419D01*
X141724376Y-81635626D01*
X142022762Y-81835001D01*
X141724376Y-82034376D01*
X141396162Y-82525583D01*
X141280909Y-83105001D01*
X141396162Y-83684419D01*
X141724376Y-84175626D01*
X142022762Y-84375001D01*
X141724376Y-84574376D01*
X141396162Y-85065583D01*
X141280909Y-85645001D01*
X141396162Y-86224419D01*
X141724376Y-86715626D01*
X142022762Y-86915001D01*
X141724376Y-87114376D01*
X141396162Y-87605583D01*
X141280909Y-88185001D01*
X141396162Y-88764419D01*
X141724376Y-89255626D01*
X142043479Y-89468844D01*
X141913643Y-89529818D01*
X141523356Y-89958077D01*
X141353525Y-90368111D01*
X141474846Y-90598001D01*
X142668001Y-90598001D01*
X142668001Y-90578001D01*
X142922001Y-90578001D01*
X142922001Y-90598001D01*
X142942001Y-90598001D01*
X142942001Y-90852001D01*
X142922001Y-90852001D01*
X142922001Y-90872001D01*
X142668001Y-90872001D01*
X142668001Y-90852001D01*
X141474846Y-90852001D01*
X141353525Y-91081891D01*
X141523356Y-91491925D01*
X141913643Y-91920184D01*
X142043479Y-91981158D01*
X141724376Y-92194376D01*
X141396162Y-92685583D01*
X141280909Y-93265001D01*
X141396162Y-93844419D01*
X141724376Y-94335626D01*
X142022762Y-94535001D01*
X141724376Y-94734376D01*
X141396162Y-95225583D01*
X141280909Y-95805001D01*
X141396162Y-96384419D01*
X141724376Y-96875626D01*
X142022762Y-97075001D01*
X141724376Y-97274376D01*
X141396162Y-97765583D01*
X141280909Y-98345001D01*
X141396162Y-98924419D01*
X141724376Y-99415626D01*
X142022762Y-99615001D01*
X141724376Y-99814376D01*
X141396162Y-100305583D01*
X141280909Y-100885001D01*
X141396162Y-101464419D01*
X141724376Y-101955626D01*
X142022762Y-102155001D01*
X141724376Y-102354376D01*
X141396162Y-102845583D01*
X141280909Y-103425001D01*
X141396162Y-104004419D01*
X141724376Y-104495626D01*
X142022762Y-104695001D01*
X141724376Y-104894376D01*
X141396162Y-105385583D01*
X141280909Y-105965001D01*
X141396162Y-106544419D01*
X141724376Y-107035626D01*
X142022762Y-107235001D01*
X141724376Y-107434376D01*
X141396162Y-107925583D01*
X141280909Y-108505001D01*
X141396162Y-109084419D01*
X141724376Y-109575626D01*
X142141740Y-109854500D01*
X125730500Y-109854500D01*
X125730500Y-83185000D01*
X129981887Y-83185000D01*
X130093260Y-83744909D01*
X130410423Y-84219577D01*
X130885091Y-84536740D01*
X131303667Y-84620000D01*
X131586333Y-84620000D01*
X132004909Y-84536740D01*
X132479577Y-84219577D01*
X132796740Y-83744909D01*
X132908113Y-83185000D01*
X132796740Y-82625091D01*
X132479577Y-82150423D01*
X132358894Y-82069785D01*
X132492765Y-82043157D01*
X132702809Y-81902809D01*
X132843157Y-81692765D01*
X132892440Y-81445000D01*
X132892440Y-79845000D01*
X132843157Y-79597235D01*
X132702809Y-79387191D01*
X132492765Y-79246843D01*
X132245000Y-79197560D01*
X130645000Y-79197560D01*
X130397235Y-79246843D01*
X130187191Y-79387191D01*
X130046843Y-79597235D01*
X129997560Y-79845000D01*
X129997560Y-81445000D01*
X130046843Y-81692765D01*
X130187191Y-81902809D01*
X130397235Y-82043157D01*
X130531106Y-82069785D01*
X130410423Y-82150423D01*
X130093260Y-82625091D01*
X129981887Y-83185000D01*
X125730500Y-83185000D01*
X125730500Y-74489211D01*
X125778720Y-74537431D01*
X126159126Y-74695000D01*
X126570874Y-74695000D01*
X126951280Y-74537431D01*
X127242431Y-74246280D01*
X127400000Y-73865874D01*
X127400000Y-73454126D01*
X127242431Y-73073720D01*
X127125000Y-72956289D01*
X127125000Y-72390000D01*
X129981887Y-72390000D01*
X130093260Y-72949909D01*
X130410423Y-73424577D01*
X130885091Y-73741740D01*
X131303667Y-73825000D01*
X131586333Y-73825000D01*
X132004909Y-73741740D01*
X132479577Y-73424577D01*
X132796740Y-72949909D01*
X132908113Y-72390000D01*
X132796740Y-71830091D01*
X132479577Y-71355423D01*
X132358894Y-71274785D01*
X132492765Y-71248157D01*
X132702809Y-71107809D01*
X132843157Y-70897765D01*
X132892440Y-70650000D01*
X132892440Y-69050000D01*
X132843157Y-68802235D01*
X132702809Y-68592191D01*
X132492765Y-68451843D01*
X132245000Y-68402560D01*
X130645000Y-68402560D01*
X130397235Y-68451843D01*
X130187191Y-68592191D01*
X130046843Y-68802235D01*
X129997560Y-69050000D01*
X129997560Y-70650000D01*
X130046843Y-70897765D01*
X130187191Y-71107809D01*
X130397235Y-71248157D01*
X130531106Y-71274785D01*
X130410423Y-71355423D01*
X130093260Y-71830091D01*
X129981887Y-72390000D01*
X127125000Y-72390000D01*
X127125000Y-61909801D01*
X130130329Y-58904473D01*
X130130331Y-58904470D01*
X132348592Y-56686209D01*
X132568744Y-56730000D01*
X132861256Y-56730000D01*
X133294418Y-56643839D01*
X133785625Y-56315625D01*
X133985000Y-56017239D01*
X134184375Y-56315625D01*
X134184375Y-56315625D01*
G37*
X134184375Y-56315625D02*
X134675582Y-56643839D01*
X135108744Y-56730000D01*
X135235199Y-56730000D01*
X133315538Y-58649661D01*
X133252082Y-58692061D01*
X133209682Y-58755517D01*
X133209681Y-58755518D01*
X133084107Y-58943453D01*
X133025122Y-59239990D01*
X133040011Y-59314842D01*
X133040010Y-91945188D01*
X130367595Y-94617603D01*
X130368113Y-94615000D01*
X130256740Y-94055091D01*
X129939577Y-93580423D01*
X129464909Y-93263260D01*
X129046333Y-93180000D01*
X128763667Y-93180000D01*
X128345091Y-93263260D01*
X127870423Y-93580423D01*
X127553260Y-94055091D01*
X127441887Y-94615000D01*
X127553260Y-95174909D01*
X127870423Y-95649577D01*
X128222758Y-95885000D01*
X127870423Y-96120423D01*
X127553260Y-96595091D01*
X127441887Y-97155000D01*
X127553260Y-97714909D01*
X127870423Y-98189577D01*
X128345091Y-98506740D01*
X128763667Y-98590000D01*
X129046333Y-98590000D01*
X129464909Y-98506740D01*
X129939577Y-98189577D01*
X130256740Y-97714909D01*
X130368113Y-97155000D01*
X130303688Y-96831113D01*
X133860001Y-93274801D01*
X133860001Y-94300197D01*
X130960530Y-97199669D01*
X130897071Y-97242071D01*
X130729096Y-97493464D01*
X130685000Y-97715149D01*
X130685000Y-97715153D01*
X130670112Y-97790000D01*
X130685000Y-97864847D01*
X130685001Y-102555196D01*
X130367595Y-102872602D01*
X130368113Y-102870000D01*
X130256740Y-102310091D01*
X129939577Y-101835423D01*
X129464909Y-101518260D01*
X129046333Y-101435000D01*
X128763667Y-101435000D01*
X128345091Y-101518260D01*
X127870423Y-101835423D01*
X127553260Y-102310091D01*
X127441887Y-102870000D01*
X127553260Y-103429909D01*
X127870423Y-103904577D01*
X128222758Y-104140000D01*
X127870423Y-104375423D01*
X127553260Y-104850091D01*
X127441887Y-105410000D01*
X127553260Y-105969909D01*
X127870423Y-106444577D01*
X128345091Y-106761740D01*
X128763667Y-106845000D01*
X129046333Y-106845000D01*
X129464909Y-106761740D01*
X129939577Y-106444577D01*
X130256740Y-105969909D01*
X130368113Y-105410000D01*
X130303688Y-105086114D01*
X130779802Y-104610000D01*
X135077560Y-104610000D01*
X135077560Y-106210000D01*
X135126843Y-106457765D01*
X135267191Y-106667809D01*
X135477235Y-106808157D01*
X135725000Y-106857440D01*
X137325000Y-106857440D01*
X137572765Y-106808157D01*
X137782809Y-106667809D01*
X137923157Y-106457765D01*
X137972440Y-106210000D01*
X137972440Y-104610000D01*
X137923157Y-104362235D01*
X137782809Y-104152191D01*
X137572765Y-104011843D01*
X137417639Y-103980987D01*
X137756041Y-103607423D01*
X137916904Y-103219039D01*
X137794915Y-102997000D01*
X136652000Y-102997000D01*
X136652000Y-103017000D01*
X136398000Y-103017000D01*
X136398000Y-102997000D01*
X135255085Y-102997000D01*
X135133096Y-103219039D01*
X135293959Y-103607423D01*
X135632361Y-103980987D01*
X135477235Y-104011843D01*
X135267191Y-104152191D01*
X135126843Y-104362235D01*
X135077560Y-104610000D01*
X130779802Y-104610000D01*
X131929476Y-103460327D01*
X131992929Y-103417929D01*
X132035327Y-103354476D01*
X132035329Y-103354474D01*
X132160903Y-103166538D01*
X132160904Y-103166537D01*
X132205000Y-102944852D01*
X132205000Y-102944848D01*
X132219888Y-102870001D01*
X132205000Y-102795154D01*
X132205000Y-102520961D01*
X135133096Y-102520961D01*
X135255085Y-102743000D01*
X136398000Y-102743000D01*
X136398000Y-101599371D01*
X136652000Y-101599371D01*
X136652000Y-102743000D01*
X137794915Y-102743000D01*
X137916904Y-102520961D01*
X137756041Y-102132577D01*
X137380134Y-101717611D01*
X136874041Y-101478086D01*
X136652000Y-101599371D01*
X136398000Y-101599371D01*
X136175959Y-101478086D01*
X135669866Y-101717611D01*
X135293959Y-102132577D01*
X135133096Y-102520961D01*
X132205000Y-102520961D01*
X132205000Y-98104801D01*
X135104473Y-95205329D01*
X135167929Y-95162929D01*
X135197280Y-95119003D01*
X135293959Y-95352423D01*
X135632361Y-95725987D01*
X135477235Y-95756843D01*
X135267191Y-95897191D01*
X135126843Y-96107235D01*
X135077560Y-96355000D01*
X135077560Y-97955000D01*
X135126843Y-98202765D01*
X135267191Y-98412809D01*
X135477235Y-98553157D01*
X135725000Y-98602440D01*
X137325000Y-98602440D01*
X137572765Y-98553157D01*
X137782809Y-98412809D01*
X137923157Y-98202765D01*
X137972440Y-97955000D01*
X137972440Y-96355000D01*
X137923157Y-96107235D01*
X137782809Y-95897191D01*
X137572765Y-95756843D01*
X137417639Y-95725987D01*
X137756041Y-95352423D01*
X137916904Y-94964039D01*
X137794915Y-94742000D01*
X136652000Y-94742000D01*
X136652000Y-94762000D01*
X136398000Y-94762000D01*
X136398000Y-94742000D01*
X136378000Y-94742000D01*
X136378000Y-94488000D01*
X136398000Y-94488000D01*
X136398000Y-93344371D01*
X136652000Y-93344371D01*
X136652000Y-94488000D01*
X137794915Y-94488000D01*
X137916904Y-94265961D01*
X137756041Y-93877577D01*
X137380134Y-93462611D01*
X136874041Y-93223086D01*
X136652000Y-93344371D01*
X136398000Y-93344371D01*
X136175959Y-93223086D01*
X135669866Y-93462611D01*
X135380000Y-93782596D01*
X135380000Y-83534039D01*
X137673096Y-83534039D01*
X137833959Y-83922423D01*
X138209866Y-84337389D01*
X138715959Y-84576914D01*
X138938000Y-84455629D01*
X138938000Y-83312000D01*
X139192000Y-83312000D01*
X139192000Y-84455629D01*
X139414041Y-84576914D01*
X139920134Y-84337389D01*
X140296041Y-83922423D01*
X140456904Y-83534039D01*
X140334915Y-83312000D01*
X139192000Y-83312000D01*
X138938000Y-83312000D01*
X137795085Y-83312000D01*
X137673096Y-83534039D01*
X135380000Y-83534039D01*
X135380000Y-80645000D01*
X137601887Y-80645000D01*
X137713260Y-81204909D01*
X138030423Y-81679577D01*
X138414108Y-81935947D01*
X138209866Y-82032611D01*
X137833959Y-82447577D01*
X137673096Y-82835961D01*
X137795085Y-83058000D01*
X138938000Y-83058000D01*
X138938000Y-83038000D01*
X139192000Y-83038000D01*
X139192000Y-83058000D01*
X140334915Y-83058000D01*
X140456904Y-82835961D01*
X140296041Y-82447577D01*
X139920134Y-82032611D01*
X139715892Y-81935947D01*
X140099577Y-81679577D01*
X140416740Y-81204909D01*
X140528113Y-80645000D01*
X140416740Y-80085091D01*
X140099577Y-79610423D01*
X139624909Y-79293260D01*
X139206333Y-79210000D01*
X138923667Y-79210000D01*
X138505091Y-79293260D01*
X138030423Y-79610423D01*
X137713260Y-80085091D01*
X137601887Y-80645000D01*
X135380000Y-80645000D01*
X135380000Y-72739039D01*
X137673096Y-72739039D01*
X137833959Y-73127423D01*
X138209866Y-73542389D01*
X138715959Y-73781914D01*
X138938000Y-73660629D01*
X138938000Y-72517000D01*
X139192000Y-72517000D01*
X139192000Y-73660629D01*
X139414041Y-73781914D01*
X139920134Y-73542389D01*
X140296041Y-73127423D01*
X140456904Y-72739039D01*
X140334915Y-72517000D01*
X139192000Y-72517000D01*
X138938000Y-72517000D01*
X137795085Y-72517000D01*
X137673096Y-72739039D01*
X135380000Y-72739039D01*
X135380000Y-69850000D01*
X137601887Y-69850000D01*
X137713260Y-70409909D01*
X138030423Y-70884577D01*
X138414108Y-71140947D01*
X138209866Y-71237611D01*
X137833959Y-71652577D01*
X137673096Y-72040961D01*
X137795085Y-72263000D01*
X138938000Y-72263000D01*
X138938000Y-72243000D01*
X139192000Y-72243000D01*
X139192000Y-72263000D01*
X140334915Y-72263000D01*
X140456904Y-72040961D01*
X140296041Y-71652577D01*
X139920134Y-71237611D01*
X139715892Y-71140947D01*
X140099577Y-70884577D01*
X140416740Y-70409909D01*
X140528113Y-69850000D01*
X140416740Y-69290091D01*
X140099577Y-68815423D01*
X139624909Y-68498260D01*
X139206333Y-68415000D01*
X138923667Y-68415000D01*
X138505091Y-68498260D01*
X138030423Y-68815423D01*
X137713260Y-69290091D01*
X137601887Y-69850000D01*
X135380000Y-69850000D01*
X135380000Y-62544801D01*
X138744802Y-59180000D01*
X139230151Y-59180000D01*
X139304998Y-59194888D01*
X139379845Y-59180000D01*
X139379850Y-59180000D01*
X139601535Y-59135904D01*
X139852927Y-58967929D01*
X139895329Y-58904470D01*
X141944801Y-56854999D01*
X141950154Y-56854999D01*
X142025001Y-56869887D01*
X142099848Y-56854999D01*
X142099853Y-56854999D01*
X142321538Y-56810903D01*
X142508255Y-56686142D01*
X142728744Y-56730000D01*
X143021256Y-56730000D01*
X143454418Y-56643839D01*
X143945625Y-56315625D01*
X143957816Y-56297381D01*
X143966843Y-56342765D01*
X144107191Y-56552809D01*
X144317235Y-56693157D01*
X144565000Y-56742440D01*
X146265000Y-56742440D01*
X146512765Y-56693157D01*
X146684500Y-56578406D01*
X146684500Y-59591741D01*
X146405626Y-59174376D01*
X145914419Y-58846162D01*
X145481257Y-58760001D01*
X145188745Y-58760001D01*
X144755583Y-58846162D01*
X144264376Y-59174376D01*
X144252185Y-59192620D01*
X144243158Y-59147236D01*
X144102810Y-58937192D01*
X143892766Y-58796844D01*
X143645001Y-58747561D01*
X141945001Y-58747561D01*
X141697236Y-58796844D01*
X141487192Y-58937192D01*
X141346844Y-59147236D01*
X141297561Y-59395001D01*
X141297561Y-61095001D01*
X141346844Y-61342766D01*
X141487192Y-61552810D01*
X141697236Y-61693158D01*
X141742620Y-61702185D01*
X141724376Y-61714376D01*
X141396162Y-62205583D01*
X141280909Y-62785001D01*
X141396162Y-63364419D01*
X141724376Y-63855626D01*
X142022762Y-64055001D01*
X141724376Y-64254376D01*
X141396162Y-64745583D01*
X141280909Y-65325001D01*
X141396162Y-65904419D01*
X141724376Y-66395626D01*
X142022762Y-66595001D01*
X141724376Y-66794376D01*
X141396162Y-67285583D01*
X141280909Y-67865001D01*
X141396162Y-68444419D01*
X141724376Y-68935626D01*
X142043479Y-69148844D01*
X141913643Y-69209818D01*
X141523356Y-69638077D01*
X141353525Y-70048111D01*
X141474846Y-70278001D01*
X142668001Y-70278001D01*
X142668001Y-70258001D01*
X142922001Y-70258001D01*
X142922001Y-70278001D01*
X142942001Y-70278001D01*
X142942001Y-70532001D01*
X142922001Y-70532001D01*
X142922001Y-70552001D01*
X142668001Y-70552001D01*
X142668001Y-70532001D01*
X141474846Y-70532001D01*
X141353525Y-70761891D01*
X141523356Y-71171925D01*
X141913643Y-71600184D01*
X142043479Y-71661158D01*
X141724376Y-71874376D01*
X141396162Y-72365583D01*
X141280909Y-72945001D01*
X141396162Y-73524419D01*
X141724376Y-74015626D01*
X142022762Y-74215001D01*
X141724376Y-74414376D01*
X141396162Y-74905583D01*
X141280909Y-75485001D01*
X141396162Y-76064419D01*
X141724376Y-76555626D01*
X142022762Y-76755001D01*
X141724376Y-76954376D01*
X141396162Y-77445583D01*
X141280909Y-78025001D01*
X141396162Y-78604419D01*
X141724376Y-79095626D01*
X142022762Y-79295001D01*
X141724376Y-79494376D01*
X141396162Y-79985583D01*
X141280909Y-80565001D01*
X141396162Y-81144419D01*
X141724376Y-81635626D01*
X142022762Y-81835001D01*
X141724376Y-82034376D01*
X141396162Y-82525583D01*
X141280909Y-83105001D01*
X141396162Y-83684419D01*
X141724376Y-84175626D01*
X142022762Y-84375001D01*
X141724376Y-84574376D01*
X141396162Y-85065583D01*
X141280909Y-85645001D01*
X141396162Y-86224419D01*
X141724376Y-86715626D01*
X142022762Y-86915001D01*
X141724376Y-87114376D01*
X141396162Y-87605583D01*
X141280909Y-88185001D01*
X141396162Y-88764419D01*
X141724376Y-89255626D01*
X142043479Y-89468844D01*
X141913643Y-89529818D01*
X141523356Y-89958077D01*
X141353525Y-90368111D01*
X141474846Y-90598001D01*
X142668001Y-90598001D01*
X142668001Y-90578001D01*
X142922001Y-90578001D01*
X142922001Y-90598001D01*
X142942001Y-90598001D01*
X142942001Y-90852001D01*
X142922001Y-90852001D01*
X142922001Y-90872001D01*
X142668001Y-90872001D01*
X142668001Y-90852001D01*
X141474846Y-90852001D01*
X141353525Y-91081891D01*
X141523356Y-91491925D01*
X141913643Y-91920184D01*
X142043479Y-91981158D01*
X141724376Y-92194376D01*
X141396162Y-92685583D01*
X141280909Y-93265001D01*
X141396162Y-93844419D01*
X141724376Y-94335626D01*
X142022762Y-94535001D01*
X141724376Y-94734376D01*
X141396162Y-95225583D01*
X141280909Y-95805001D01*
X141396162Y-96384419D01*
X141724376Y-96875626D01*
X142022762Y-97075001D01*
X141724376Y-97274376D01*
X141396162Y-97765583D01*
X141280909Y-98345001D01*
X141396162Y-98924419D01*
X141724376Y-99415626D01*
X142022762Y-99615001D01*
X141724376Y-99814376D01*
X141396162Y-100305583D01*
X141280909Y-100885001D01*
X141396162Y-101464419D01*
X141724376Y-101955626D01*
X142022762Y-102155001D01*
X141724376Y-102354376D01*
X141396162Y-102845583D01*
X141280909Y-103425001D01*
X141396162Y-104004419D01*
X141724376Y-104495626D01*
X142022762Y-104695001D01*
X141724376Y-104894376D01*
X141396162Y-105385583D01*
X141280909Y-105965001D01*
X141396162Y-106544419D01*
X141724376Y-107035626D01*
X142022762Y-107235001D01*
X141724376Y-107434376D01*
X141396162Y-107925583D01*
X141280909Y-108505001D01*
X141396162Y-109084419D01*
X141724376Y-109575626D01*
X142141740Y-109854500D01*
X125730500Y-109854500D01*
X125730500Y-83185000D01*
X129981887Y-83185000D01*
X130093260Y-83744909D01*
X130410423Y-84219577D01*
X130885091Y-84536740D01*
X131303667Y-84620000D01*
X131586333Y-84620000D01*
X132004909Y-84536740D01*
X132479577Y-84219577D01*
X132796740Y-83744909D01*
X132908113Y-83185000D01*
X132796740Y-82625091D01*
X132479577Y-82150423D01*
X132358894Y-82069785D01*
X132492765Y-82043157D01*
X132702809Y-81902809D01*
X132843157Y-81692765D01*
X132892440Y-81445000D01*
X132892440Y-79845000D01*
X132843157Y-79597235D01*
X132702809Y-79387191D01*
X132492765Y-79246843D01*
X132245000Y-79197560D01*
X130645000Y-79197560D01*
X130397235Y-79246843D01*
X130187191Y-79387191D01*
X130046843Y-79597235D01*
X129997560Y-79845000D01*
X129997560Y-81445000D01*
X130046843Y-81692765D01*
X130187191Y-81902809D01*
X130397235Y-82043157D01*
X130531106Y-82069785D01*
X130410423Y-82150423D01*
X130093260Y-82625091D01*
X129981887Y-83185000D01*
X125730500Y-83185000D01*
X125730500Y-74489211D01*
X125778720Y-74537431D01*
X126159126Y-74695000D01*
X126570874Y-74695000D01*
X126951280Y-74537431D01*
X127242431Y-74246280D01*
X127400000Y-73865874D01*
X127400000Y-73454126D01*
X127242431Y-73073720D01*
X127125000Y-72956289D01*
X127125000Y-72390000D01*
X129981887Y-72390000D01*
X130093260Y-72949909D01*
X130410423Y-73424577D01*
X130885091Y-73741740D01*
X131303667Y-73825000D01*
X131586333Y-73825000D01*
X132004909Y-73741740D01*
X132479577Y-73424577D01*
X132796740Y-72949909D01*
X132908113Y-72390000D01*
X132796740Y-71830091D01*
X132479577Y-71355423D01*
X132358894Y-71274785D01*
X132492765Y-71248157D01*
X132702809Y-71107809D01*
X132843157Y-70897765D01*
X132892440Y-70650000D01*
X132892440Y-69050000D01*
X132843157Y-68802235D01*
X132702809Y-68592191D01*
X132492765Y-68451843D01*
X132245000Y-68402560D01*
X130645000Y-68402560D01*
X130397235Y-68451843D01*
X130187191Y-68592191D01*
X130046843Y-68802235D01*
X129997560Y-69050000D01*
X129997560Y-70650000D01*
X130046843Y-70897765D01*
X130187191Y-71107809D01*
X130397235Y-71248157D01*
X130531106Y-71274785D01*
X130410423Y-71355423D01*
X130093260Y-71830091D01*
X129981887Y-72390000D01*
X127125000Y-72390000D01*
X127125000Y-61909801D01*
X130130329Y-58904473D01*
X130130331Y-58904470D01*
X132348592Y-56686209D01*
X132568744Y-56730000D01*
X132861256Y-56730000D01*
X133294418Y-56643839D01*
X133785625Y-56315625D01*
X133985000Y-56017239D01*
X134184375Y-56315625D01*
G36*
X133315538Y-58649661D02*
X133252082Y-58692061D01*
X133209682Y-58755517D01*
X133209681Y-58755518D01*
X133084107Y-58943453D01*
X133025122Y-59239990D01*
X133040011Y-59314842D01*
X133040011Y-65913000D01*
X127739115Y-65913000D01*
X127127000Y-62852423D01*
X127127000Y-61907801D01*
X130130329Y-58904473D01*
X130130331Y-58904470D01*
X131757802Y-57277000D01*
X134688199Y-57277000D01*
X133315538Y-58649661D01*
X133315538Y-58649661D01*
G37*
X133315538Y-58649661D02*
X133252082Y-58692061D01*
X133209682Y-58755517D01*
X133209681Y-58755518D01*
X133084107Y-58943453D01*
X133025122Y-59239990D01*
X133040011Y-59314842D01*
X133040011Y-65913000D01*
X127739115Y-65913000D01*
X127127000Y-62852423D01*
X127127000Y-61907801D01*
X130130329Y-58904473D01*
X130130331Y-58904470D01*
X131757802Y-57277000D01*
X134688199Y-57277000D01*
X133315538Y-58649661D01*
G36*
X144816409Y-58834063D02*
X144755583Y-58846162D01*
X144264376Y-59174376D01*
X144252185Y-59192620D01*
X144243158Y-59147236D01*
X144102810Y-58937192D01*
X143892766Y-58796844D01*
X143645001Y-58747561D01*
X141945001Y-58747561D01*
X141697236Y-58796844D01*
X141487192Y-58937192D01*
X141346844Y-59147236D01*
X141297561Y-59395001D01*
X141297561Y-61095001D01*
X141346844Y-61342766D01*
X141487192Y-61552810D01*
X141697236Y-61693158D01*
X141742620Y-61702185D01*
X141724376Y-61714376D01*
X141396162Y-62205583D01*
X141280909Y-62785001D01*
X141396162Y-63364419D01*
X141655004Y-63751804D01*
X140265664Y-65913000D01*
X135380000Y-65913000D01*
X135380000Y-62544801D01*
X138744802Y-59180000D01*
X139230151Y-59180000D01*
X139304998Y-59194888D01*
X139379845Y-59180000D01*
X139379850Y-59180000D01*
X139601535Y-59135904D01*
X139852927Y-58967929D01*
X139895329Y-58904470D01*
X141522800Y-57277000D01*
X145817378Y-57277000D01*
X144816409Y-58834063D01*
X144816409Y-58834063D01*
G37*
X144816409Y-58834063D02*
X144755583Y-58846162D01*
X144264376Y-59174376D01*
X144252185Y-59192620D01*
X144243158Y-59147236D01*
X144102810Y-58937192D01*
X143892766Y-58796844D01*
X143645001Y-58747561D01*
X141945001Y-58747561D01*
X141697236Y-58796844D01*
X141487192Y-58937192D01*
X141346844Y-59147236D01*
X141297561Y-59395001D01*
X141297561Y-61095001D01*
X141346844Y-61342766D01*
X141487192Y-61552810D01*
X141697236Y-61693158D01*
X141742620Y-61702185D01*
X141724376Y-61714376D01*
X141396162Y-62205583D01*
X141280909Y-62785001D01*
X141396162Y-63364419D01*
X141655004Y-63751804D01*
X140265664Y-65913000D01*
X135380000Y-65913000D01*
X135380000Y-62544801D01*
X138744802Y-59180000D01*
X139230151Y-59180000D01*
X139304998Y-59194888D01*
X139379845Y-59180000D01*
X139379850Y-59180000D01*
X139601535Y-59135904D01*
X139852927Y-58967929D01*
X139895329Y-58904470D01*
X141522800Y-57277000D01*
X145817378Y-57277000D01*
X144816409Y-58834063D01*
G36*
X140899553Y-58949330D02*
X140864477Y-58984332D01*
X140848895Y-59016756D01*
X137069445Y-70985014D01*
X135380000Y-70844227D01*
X135380000Y-62544801D01*
X138744802Y-59180000D01*
X139230151Y-59180000D01*
X139304998Y-59194888D01*
X139379845Y-59180000D01*
X139379850Y-59180000D01*
X139601535Y-59135904D01*
X139852927Y-58967929D01*
X139895329Y-58904470D01*
X141603450Y-57196350D01*
X144208637Y-56743274D01*
X140899553Y-58949330D01*
X140899553Y-58949330D01*
G37*
X140899553Y-58949330D02*
X140864477Y-58984332D01*
X140848895Y-59016756D01*
X137069445Y-70985014D01*
X135380000Y-70844227D01*
X135380000Y-62544801D01*
X138744802Y-59180000D01*
X139230151Y-59180000D01*
X139304998Y-59194888D01*
X139379845Y-59180000D01*
X139379850Y-59180000D01*
X139601535Y-59135904D01*
X139852927Y-58967929D01*
X139895329Y-58904470D01*
X141603450Y-57196350D01*
X144208637Y-56743274D01*
X140899553Y-58949330D01*
G36*
X133315538Y-58649661D02*
X133252082Y-58692061D01*
X133209682Y-58755517D01*
X133209681Y-58755518D01*
X133084107Y-58943453D01*
X133025122Y-59239990D01*
X133040011Y-59314842D01*
X133040011Y-70649228D01*
X132892440Y-70636930D01*
X132892440Y-69050000D01*
X132843157Y-68802235D01*
X132702809Y-68592191D01*
X132492765Y-68451843D01*
X132245000Y-68402560D01*
X130645000Y-68402560D01*
X130397235Y-68451843D01*
X130187191Y-68592191D01*
X130046843Y-68802235D01*
X129997560Y-69050000D01*
X129997560Y-70395690D01*
X129673657Y-70368698D01*
X130296205Y-59162827D01*
X133329986Y-58635213D01*
X133315538Y-58649661D01*
X133315538Y-58649661D01*
G37*
X133315538Y-58649661D02*
X133252082Y-58692061D01*
X133209682Y-58755517D01*
X133209681Y-58755518D01*
X133084107Y-58943453D01*
X133025122Y-59239990D01*
X133040011Y-59314842D01*
X133040011Y-70649228D01*
X132892440Y-70636930D01*
X132892440Y-69050000D01*
X132843157Y-68802235D01*
X132702809Y-68592191D01*
X132492765Y-68451843D01*
X132245000Y-68402560D01*
X130645000Y-68402560D01*
X130397235Y-68451843D01*
X130187191Y-68592191D01*
X130046843Y-68802235D01*
X129997560Y-69050000D01*
X129997560Y-70395690D01*
X129673657Y-70368698D01*
X130296205Y-59162827D01*
X133329986Y-58635213D01*
X133315538Y-58649661D01*
G04 #@! TD*
M02*
