G04 #@! TF.GenerationSoftware,KiCad,Pcbnew,(5.0.2)-1*
G04 #@! TF.CreationDate,2019-01-05T13:40:23-06:00*
G04 #@! TF.ProjectId,controller,636f6e74-726f-46c6-9c65-722e6b696361,rev?*
G04 #@! TF.SameCoordinates,Original*
G04 #@! TF.FileFunction,Legend,Top*
G04 #@! TF.FilePolarity,Positive*
%FSLAX46Y46*%
G04 Gerber Fmt 4.6, Leading zero omitted, Abs format (unit mm)*
G04 Created by KiCad (PCBNEW (5.0.2)-1) date 1/5/2019 1:40:23 PM*
%MOMM*%
%LPD*%
G01*
G04 APERTURE LIST*
%ADD10C,0.120000*%
%ADD11C,0.150000*%
G04 APERTURE END LIST*
D10*
G04 #@! TO.C,R1*
X128345000Y-77453748D02*
X128345000Y-77976252D01*
X126925000Y-77453748D02*
X126925000Y-77976252D01*
G04 #@! TO.C,R3*
X126925000Y-68563748D02*
X126925000Y-69086252D01*
X128345000Y-68563748D02*
X128345000Y-69086252D01*
G04 #@! TO.C,R5*
X140410000Y-105151422D02*
X140410000Y-105668578D01*
X138990000Y-105151422D02*
X138990000Y-105668578D01*
G04 #@! TO.C,R6*
X138990000Y-98051252D02*
X138990000Y-97528748D01*
X140410000Y-98051252D02*
X140410000Y-97528748D01*
G04 #@! TO.C,J2*
X141465001Y-109835001D02*
X146665001Y-109835001D01*
X141465001Y-61515001D02*
X141465001Y-109835001D01*
X146665001Y-58915001D02*
X146665001Y-109835001D01*
X141465001Y-61515001D02*
X144065001Y-61515001D01*
X144065001Y-61515001D02*
X144065001Y-58915001D01*
X144065001Y-58915001D02*
X146665001Y-58915001D01*
X141465001Y-60245001D02*
X141465001Y-58915001D01*
X141465001Y-58915001D02*
X142795001Y-58915001D01*
G04 #@! TO.C,J1*
X126305000Y-53915000D02*
X126305000Y-56575000D01*
X144145000Y-53915000D02*
X126305000Y-53915000D01*
X144145000Y-56575000D02*
X126305000Y-56575000D01*
X144145000Y-53915000D02*
X144145000Y-56575000D01*
X145415000Y-53915000D02*
X146745000Y-53915000D01*
X146745000Y-53915000D02*
X146745000Y-55245000D01*
G04 #@! TO.C,BOIL1*
X130065000Y-98485000D02*
X131715000Y-98485000D01*
X130065000Y-93285000D02*
X130065000Y-98485000D01*
X135365000Y-93285000D02*
X130065000Y-93285000D01*
X135365000Y-98485000D02*
X135365000Y-93285000D01*
X133715000Y-98485000D02*
X135365000Y-98485000D01*
X131715000Y-98485000D02*
G75*
G02X133715000Y-98485000I1000000J0D01*
G01*
G04 #@! TO.C,BOIL_LED1*
X136255000Y-79315000D02*
G75*
G02X134255000Y-79315000I-1000000J0D01*
G01*
X134255000Y-79315000D02*
X132605000Y-79315000D01*
X132605000Y-79315000D02*
X132605000Y-84515000D01*
X132605000Y-84515000D02*
X137905000Y-84515000D01*
X137905000Y-84515000D02*
X137905000Y-79315000D01*
X137905000Y-79315000D02*
X136255000Y-79315000D01*
G04 #@! TO.C,ON_OFF1*
X131715000Y-106740000D02*
G75*
G02X133715000Y-106740000I1000000J0D01*
G01*
X133715000Y-106740000D02*
X135365000Y-106740000D01*
X135365000Y-106740000D02*
X135365000Y-101540000D01*
X135365000Y-101540000D02*
X130065000Y-101540000D01*
X130065000Y-101540000D02*
X130065000Y-106740000D01*
X130065000Y-106740000D02*
X131715000Y-106740000D01*
G04 #@! TO.C,ON_STB_LED1*
X137905000Y-68520000D02*
X136255000Y-68520000D01*
X137905000Y-73720000D02*
X137905000Y-68520000D01*
X132605000Y-73720000D02*
X137905000Y-73720000D01*
X132605000Y-68520000D02*
X132605000Y-73720000D01*
X134255000Y-68520000D02*
X132605000Y-68520000D01*
X136255000Y-68520000D02*
G75*
G02X134255000Y-68520000I-1000000J0D01*
G01*
G04 #@! TO.C,C1*
X138991078Y-67385000D02*
X138473922Y-67385000D01*
X138991078Y-65965000D02*
X138473922Y-65965000D01*
G04 #@! TO.C,C2*
X138688578Y-75875001D02*
X138171422Y-75875001D01*
X138688578Y-77295001D02*
X138171422Y-77295001D01*
G04 #@! TO.C,R1*
D11*
X129737380Y-77881666D02*
X129261190Y-78215000D01*
X129737380Y-78453095D02*
X128737380Y-78453095D01*
X128737380Y-78072142D01*
X128785000Y-77976904D01*
X128832619Y-77929285D01*
X128927857Y-77881666D01*
X129070714Y-77881666D01*
X129165952Y-77929285D01*
X129213571Y-77976904D01*
X129261190Y-78072142D01*
X129261190Y-78453095D01*
X129737380Y-76929285D02*
X129737380Y-77500714D01*
X129737380Y-77215000D02*
X128737380Y-77215000D01*
X128880238Y-77310238D01*
X128975476Y-77405476D01*
X129023095Y-77500714D01*
G04 #@! TO.C,R3*
X129737380Y-68991666D02*
X129261190Y-69325000D01*
X129737380Y-69563095D02*
X128737380Y-69563095D01*
X128737380Y-69182142D01*
X128785000Y-69086904D01*
X128832619Y-69039285D01*
X128927857Y-68991666D01*
X129070714Y-68991666D01*
X129165952Y-69039285D01*
X129213571Y-69086904D01*
X129261190Y-69182142D01*
X129261190Y-69563095D01*
X128737380Y-68658333D02*
X128737380Y-68039285D01*
X129118333Y-68372619D01*
X129118333Y-68229761D01*
X129165952Y-68134523D01*
X129213571Y-68086904D01*
X129308809Y-68039285D01*
X129546904Y-68039285D01*
X129642142Y-68086904D01*
X129689761Y-68134523D01*
X129737380Y-68229761D01*
X129737380Y-68515476D01*
X129689761Y-68610714D01*
X129642142Y-68658333D01*
G04 #@! TO.C,R5*
X141802380Y-105576666D02*
X141326190Y-105910000D01*
X141802380Y-106148095D02*
X140802380Y-106148095D01*
X140802380Y-105767142D01*
X140850000Y-105671904D01*
X140897619Y-105624285D01*
X140992857Y-105576666D01*
X141135714Y-105576666D01*
X141230952Y-105624285D01*
X141278571Y-105671904D01*
X141326190Y-105767142D01*
X141326190Y-106148095D01*
X140802380Y-104671904D02*
X140802380Y-105148095D01*
X141278571Y-105195714D01*
X141230952Y-105148095D01*
X141183333Y-105052857D01*
X141183333Y-104814761D01*
X141230952Y-104719523D01*
X141278571Y-104671904D01*
X141373809Y-104624285D01*
X141611904Y-104624285D01*
X141707142Y-104671904D01*
X141754761Y-104719523D01*
X141802380Y-104814761D01*
X141802380Y-105052857D01*
X141754761Y-105148095D01*
X141707142Y-105195714D01*
G04 #@! TO.C,R6*
X138502380Y-97956666D02*
X138026190Y-98290000D01*
X138502380Y-98528095D02*
X137502380Y-98528095D01*
X137502380Y-98147142D01*
X137550000Y-98051904D01*
X137597619Y-98004285D01*
X137692857Y-97956666D01*
X137835714Y-97956666D01*
X137930952Y-98004285D01*
X137978571Y-98051904D01*
X138026190Y-98147142D01*
X138026190Y-98528095D01*
X137502380Y-97099523D02*
X137502380Y-97290000D01*
X137550000Y-97385238D01*
X137597619Y-97432857D01*
X137740476Y-97528095D01*
X137930952Y-97575714D01*
X138311904Y-97575714D01*
X138407142Y-97528095D01*
X138454761Y-97480476D01*
X138502380Y-97385238D01*
X138502380Y-97194761D01*
X138454761Y-97099523D01*
X138407142Y-97051904D01*
X138311904Y-97004285D01*
X138073809Y-97004285D01*
X137978571Y-97051904D01*
X137930952Y-97099523D01*
X137883333Y-97194761D01*
X137883333Y-97385238D01*
X137930952Y-97480476D01*
X137978571Y-97528095D01*
X138073809Y-97575714D01*
G04 #@! TO.C,J2*
X143731667Y-57367381D02*
X143731667Y-58081667D01*
X143684048Y-58224524D01*
X143588810Y-58319762D01*
X143445953Y-58367381D01*
X143350715Y-58367381D01*
X144160239Y-57462620D02*
X144207858Y-57415001D01*
X144303096Y-57367381D01*
X144541191Y-57367381D01*
X144636429Y-57415001D01*
X144684048Y-57462620D01*
X144731667Y-57557858D01*
X144731667Y-57653096D01*
X144684048Y-57795953D01*
X144112620Y-58367381D01*
X144731667Y-58367381D01*
G04 #@! TO.C,J1*
X147197380Y-55578333D02*
X147911666Y-55578333D01*
X148054523Y-55625952D01*
X148149761Y-55721190D01*
X148197380Y-55864047D01*
X148197380Y-55959285D01*
X148197380Y-54578333D02*
X148197380Y-55149761D01*
X148197380Y-54864047D02*
X147197380Y-54864047D01*
X147340238Y-54959285D01*
X147435476Y-55054523D01*
X147483095Y-55149761D01*
G04 #@! TO.C,BOIL1*
X131143571Y-99413571D02*
X131286428Y-99461190D01*
X131334047Y-99508809D01*
X131381666Y-99604047D01*
X131381666Y-99746904D01*
X131334047Y-99842142D01*
X131286428Y-99889761D01*
X131191190Y-99937380D01*
X130810238Y-99937380D01*
X130810238Y-98937380D01*
X131143571Y-98937380D01*
X131238809Y-98985000D01*
X131286428Y-99032619D01*
X131334047Y-99127857D01*
X131334047Y-99223095D01*
X131286428Y-99318333D01*
X131238809Y-99365952D01*
X131143571Y-99413571D01*
X130810238Y-99413571D01*
X132000714Y-98937380D02*
X132191190Y-98937380D01*
X132286428Y-98985000D01*
X132381666Y-99080238D01*
X132429285Y-99270714D01*
X132429285Y-99604047D01*
X132381666Y-99794523D01*
X132286428Y-99889761D01*
X132191190Y-99937380D01*
X132000714Y-99937380D01*
X131905476Y-99889761D01*
X131810238Y-99794523D01*
X131762619Y-99604047D01*
X131762619Y-99270714D01*
X131810238Y-99080238D01*
X131905476Y-98985000D01*
X132000714Y-98937380D01*
X132857857Y-99937380D02*
X132857857Y-98937380D01*
X133810238Y-99937380D02*
X133334047Y-99937380D01*
X133334047Y-98937380D01*
X134667380Y-99937380D02*
X134095952Y-99937380D01*
X134381666Y-99937380D02*
X134381666Y-98937380D01*
X134286428Y-99080238D01*
X134191190Y-99175476D01*
X134095952Y-99223095D01*
G04 #@! TO.C,BOIL_LED1*
X131945476Y-78243571D02*
X132088333Y-78291190D01*
X132135952Y-78338809D01*
X132183571Y-78434047D01*
X132183571Y-78576904D01*
X132135952Y-78672142D01*
X132088333Y-78719761D01*
X131993095Y-78767380D01*
X131612142Y-78767380D01*
X131612142Y-77767380D01*
X131945476Y-77767380D01*
X132040714Y-77815000D01*
X132088333Y-77862619D01*
X132135952Y-77957857D01*
X132135952Y-78053095D01*
X132088333Y-78148333D01*
X132040714Y-78195952D01*
X131945476Y-78243571D01*
X131612142Y-78243571D01*
X132802619Y-77767380D02*
X132993095Y-77767380D01*
X133088333Y-77815000D01*
X133183571Y-77910238D01*
X133231190Y-78100714D01*
X133231190Y-78434047D01*
X133183571Y-78624523D01*
X133088333Y-78719761D01*
X132993095Y-78767380D01*
X132802619Y-78767380D01*
X132707380Y-78719761D01*
X132612142Y-78624523D01*
X132564523Y-78434047D01*
X132564523Y-78100714D01*
X132612142Y-77910238D01*
X132707380Y-77815000D01*
X132802619Y-77767380D01*
X133659761Y-78767380D02*
X133659761Y-77767380D01*
X134612142Y-78767380D02*
X134135952Y-78767380D01*
X134135952Y-77767380D01*
X134707380Y-78862619D02*
X135469285Y-78862619D01*
X136183571Y-78767380D02*
X135707380Y-78767380D01*
X135707380Y-77767380D01*
X136516904Y-78243571D02*
X136850238Y-78243571D01*
X136993095Y-78767380D02*
X136516904Y-78767380D01*
X136516904Y-77767380D01*
X136993095Y-77767380D01*
X137421666Y-78767380D02*
X137421666Y-77767380D01*
X137659761Y-77767380D01*
X137802619Y-77815000D01*
X137897857Y-77910238D01*
X137945476Y-78005476D01*
X137993095Y-78195952D01*
X137993095Y-78338809D01*
X137945476Y-78529285D01*
X137897857Y-78624523D01*
X137802619Y-78719761D01*
X137659761Y-78767380D01*
X137421666Y-78767380D01*
X138945476Y-78767380D02*
X138374047Y-78767380D01*
X138659761Y-78767380D02*
X138659761Y-77767380D01*
X138564523Y-77910238D01*
X138469285Y-78005476D01*
X138374047Y-78053095D01*
G04 #@! TO.C,ON_OFF1*
X129857857Y-107192380D02*
X130048333Y-107192380D01*
X130143571Y-107240000D01*
X130238809Y-107335238D01*
X130286428Y-107525714D01*
X130286428Y-107859047D01*
X130238809Y-108049523D01*
X130143571Y-108144761D01*
X130048333Y-108192380D01*
X129857857Y-108192380D01*
X129762619Y-108144761D01*
X129667380Y-108049523D01*
X129619761Y-107859047D01*
X129619761Y-107525714D01*
X129667380Y-107335238D01*
X129762619Y-107240000D01*
X129857857Y-107192380D01*
X130715000Y-108192380D02*
X130715000Y-107192380D01*
X131286428Y-108192380D01*
X131286428Y-107192380D01*
X131524523Y-108287619D02*
X132286428Y-108287619D01*
X132715000Y-107192380D02*
X132905476Y-107192380D01*
X133000714Y-107240000D01*
X133095952Y-107335238D01*
X133143571Y-107525714D01*
X133143571Y-107859047D01*
X133095952Y-108049523D01*
X133000714Y-108144761D01*
X132905476Y-108192380D01*
X132715000Y-108192380D01*
X132619761Y-108144761D01*
X132524523Y-108049523D01*
X132476904Y-107859047D01*
X132476904Y-107525714D01*
X132524523Y-107335238D01*
X132619761Y-107240000D01*
X132715000Y-107192380D01*
X133905476Y-107668571D02*
X133572142Y-107668571D01*
X133572142Y-108192380D02*
X133572142Y-107192380D01*
X134048333Y-107192380D01*
X134762619Y-107668571D02*
X134429285Y-107668571D01*
X134429285Y-108192380D02*
X134429285Y-107192380D01*
X134905476Y-107192380D01*
X135810238Y-108192380D02*
X135238809Y-108192380D01*
X135524523Y-108192380D02*
X135524523Y-107192380D01*
X135429285Y-107335238D01*
X135334047Y-107430476D01*
X135238809Y-107478095D01*
G04 #@! TO.C,ON_STB_LED1*
X130683571Y-66972380D02*
X130874047Y-66972380D01*
X130969285Y-67020000D01*
X131064523Y-67115238D01*
X131112142Y-67305714D01*
X131112142Y-67639047D01*
X131064523Y-67829523D01*
X130969285Y-67924761D01*
X130874047Y-67972380D01*
X130683571Y-67972380D01*
X130588333Y-67924761D01*
X130493095Y-67829523D01*
X130445476Y-67639047D01*
X130445476Y-67305714D01*
X130493095Y-67115238D01*
X130588333Y-67020000D01*
X130683571Y-66972380D01*
X131540714Y-67972380D02*
X131540714Y-66972380D01*
X132112142Y-67972380D01*
X132112142Y-66972380D01*
X132350238Y-68067619D02*
X133112142Y-68067619D01*
X133302619Y-67924761D02*
X133445476Y-67972380D01*
X133683571Y-67972380D01*
X133778809Y-67924761D01*
X133826428Y-67877142D01*
X133874047Y-67781904D01*
X133874047Y-67686666D01*
X133826428Y-67591428D01*
X133778809Y-67543809D01*
X133683571Y-67496190D01*
X133493095Y-67448571D01*
X133397857Y-67400952D01*
X133350238Y-67353333D01*
X133302619Y-67258095D01*
X133302619Y-67162857D01*
X133350238Y-67067619D01*
X133397857Y-67020000D01*
X133493095Y-66972380D01*
X133731190Y-66972380D01*
X133874047Y-67020000D01*
X134159761Y-66972380D02*
X134731190Y-66972380D01*
X134445476Y-67972380D02*
X134445476Y-66972380D01*
X135397857Y-67448571D02*
X135540714Y-67496190D01*
X135588333Y-67543809D01*
X135635952Y-67639047D01*
X135635952Y-67781904D01*
X135588333Y-67877142D01*
X135540714Y-67924761D01*
X135445476Y-67972380D01*
X135064523Y-67972380D01*
X135064523Y-66972380D01*
X135397857Y-66972380D01*
X135493095Y-67020000D01*
X135540714Y-67067619D01*
X135588333Y-67162857D01*
X135588333Y-67258095D01*
X135540714Y-67353333D01*
X135493095Y-67400952D01*
X135397857Y-67448571D01*
X135064523Y-67448571D01*
X135826428Y-68067619D02*
X136588333Y-68067619D01*
X137302619Y-67972380D02*
X136826428Y-67972380D01*
X136826428Y-66972380D01*
X137635952Y-67448571D02*
X137969285Y-67448571D01*
X138112142Y-67972380D02*
X137635952Y-67972380D01*
X137635952Y-66972380D01*
X138112142Y-66972380D01*
X138540714Y-67972380D02*
X138540714Y-66972380D01*
X138778809Y-66972380D01*
X138921666Y-67020000D01*
X139016904Y-67115238D01*
X139064523Y-67210476D01*
X139112142Y-67400952D01*
X139112142Y-67543809D01*
X139064523Y-67734285D01*
X139016904Y-67829523D01*
X138921666Y-67924761D01*
X138778809Y-67972380D01*
X138540714Y-67972380D01*
X140064523Y-67972380D02*
X139493095Y-67972380D01*
X139778809Y-67972380D02*
X139778809Y-66972380D01*
X139683571Y-67115238D01*
X139588333Y-67210476D01*
X139493095Y-67258095D01*
G04 #@! TO.C,C1*
X138565833Y-68682142D02*
X138518214Y-68729761D01*
X138375357Y-68777380D01*
X138280119Y-68777380D01*
X138137261Y-68729761D01*
X138042023Y-68634523D01*
X137994404Y-68539285D01*
X137946785Y-68348809D01*
X137946785Y-68205952D01*
X137994404Y-68015476D01*
X138042023Y-67920238D01*
X138137261Y-67825000D01*
X138280119Y-67777380D01*
X138375357Y-67777380D01*
X138518214Y-67825000D01*
X138565833Y-67872619D01*
X139518214Y-68777380D02*
X138946785Y-68777380D01*
X139232500Y-68777380D02*
X139232500Y-67777380D01*
X139137261Y-67920238D01*
X139042023Y-68015476D01*
X138946785Y-68063095D01*
G04 #@! TO.C,C2*
X138263333Y-78592143D02*
X138215714Y-78639762D01*
X138072857Y-78687381D01*
X137977619Y-78687381D01*
X137834761Y-78639762D01*
X137739523Y-78544524D01*
X137691904Y-78449286D01*
X137644285Y-78258810D01*
X137644285Y-78115953D01*
X137691904Y-77925477D01*
X137739523Y-77830239D01*
X137834761Y-77735001D01*
X137977619Y-77687381D01*
X138072857Y-77687381D01*
X138215714Y-77735001D01*
X138263333Y-77782620D01*
X138644285Y-77782620D02*
X138691904Y-77735001D01*
X138787142Y-77687381D01*
X139025238Y-77687381D01*
X139120476Y-77735001D01*
X139168095Y-77782620D01*
X139215714Y-77877858D01*
X139215714Y-77973096D01*
X139168095Y-78115953D01*
X138596666Y-78687381D01*
X139215714Y-78687381D01*
G04 #@! TD*
M02*
