M48
INCH,TZ
T1C0.0157
T2C0.0315
T3C0.0394
%
G90
G05
T1
X49750Y-29000
X52250Y-21750
T2
X50750Y-40500
X50750Y-41500
X53750Y-40500
X53750Y-41500
X51750Y-27500
X51750Y-28500
X54750Y-27500
X54750Y-28500
X50750Y-37250
X50750Y-38250
X53750Y-37250
X53750Y-38250
X51750Y-31750
X51750Y-32750
X54750Y-31750
X54750Y-32750
T3
X50250Y-21750
X51250Y-21750
X52250Y-21750
X53250Y-21750
X54250Y-21750
X55250Y-21750
X56250Y-21750
X57250Y-21750
X56219Y-23719
X56219Y-24719
X56219Y-25719
X56219Y-26719
X56219Y-27719
X56219Y-28719
X56219Y-29719
X56219Y-30719
X56219Y-31719
X56219Y-32719
X56219Y-33719
X56219Y-34719
X56219Y-35719
X56219Y-36719
X56219Y-37719
X56219Y-38719
X56219Y-39719
X56219Y-40719
X56219Y-41719
X56219Y-42719
X57219Y-23719
X57219Y-24719
X57219Y-25719
X57219Y-26719
X57219Y-27719
X57219Y-28719
X57219Y-29719
X57219Y-30719
X57219Y-31719
X57219Y-32719
X57219Y-33719
X57219Y-34719
X57219Y-35719
X57219Y-36719
X57219Y-37719
X57219Y-38719
X57219Y-39719
X57219Y-40719
X57219Y-41719
X57219Y-42719
T0
M30
