G04 #@! TF.GenerationSoftware,KiCad,Pcbnew,(5.0.2)-1*
G04 #@! TF.CreationDate,2019-01-05T13:40:23-06:00*
G04 #@! TF.ProjectId,controller,636f6e74-726f-46c6-9c65-722e6b696361,rev?*
G04 #@! TF.SameCoordinates,Original*
G04 #@! TF.FileFunction,Soldermask,Top*
G04 #@! TF.FilePolarity,Negative*
%FSLAX46Y46*%
G04 Gerber Fmt 4.6, Leading zero omitted, Abs format (unit mm)*
G04 Created by KiCad (PCBNEW (5.0.2)-1) date 1/5/2019 1:40:23 PM*
%MOMM*%
%LPD*%
G01*
G04 APERTURE LIST*
%ADD10C,0.100000*%
G04 APERTURE END LIST*
D10*
G36*
X145445444Y-107610520D02*
X145511628Y-107617038D01*
X145624854Y-107651385D01*
X145681468Y-107668558D01*
X145820088Y-107742653D01*
X145837992Y-107752223D01*
X145873730Y-107781553D01*
X145975187Y-107864815D01*
X146058449Y-107966272D01*
X146087779Y-108002010D01*
X146087780Y-108002012D01*
X146171444Y-108158534D01*
X146171444Y-108158535D01*
X146222964Y-108328374D01*
X146240360Y-108505001D01*
X146222964Y-108681628D01*
X146188617Y-108794854D01*
X146171444Y-108851468D01*
X146097349Y-108990088D01*
X146087779Y-109007992D01*
X146058449Y-109043730D01*
X145975187Y-109145187D01*
X145873730Y-109228449D01*
X145837992Y-109257779D01*
X145837990Y-109257780D01*
X145681468Y-109341444D01*
X145624854Y-109358617D01*
X145511628Y-109392964D01*
X145445444Y-109399482D01*
X145379261Y-109406001D01*
X145290741Y-109406001D01*
X145224558Y-109399482D01*
X145158374Y-109392964D01*
X145045148Y-109358617D01*
X144988534Y-109341444D01*
X144832012Y-109257780D01*
X144832010Y-109257779D01*
X144796272Y-109228449D01*
X144694815Y-109145187D01*
X144611553Y-109043730D01*
X144582223Y-109007992D01*
X144572653Y-108990088D01*
X144498558Y-108851468D01*
X144481385Y-108794854D01*
X144447038Y-108681628D01*
X144429642Y-108505001D01*
X144447038Y-108328374D01*
X144498558Y-108158535D01*
X144498558Y-108158534D01*
X144582222Y-108002012D01*
X144582223Y-108002010D01*
X144611553Y-107966272D01*
X144694815Y-107864815D01*
X144796272Y-107781553D01*
X144832010Y-107752223D01*
X144849914Y-107742653D01*
X144988534Y-107668558D01*
X145045148Y-107651385D01*
X145158374Y-107617038D01*
X145224558Y-107610520D01*
X145290741Y-107604001D01*
X145379261Y-107604001D01*
X145445444Y-107610520D01*
X145445444Y-107610520D01*
G37*
G36*
X142905444Y-107610520D02*
X142971628Y-107617038D01*
X143084854Y-107651385D01*
X143141468Y-107668558D01*
X143280088Y-107742653D01*
X143297992Y-107752223D01*
X143333730Y-107781553D01*
X143435187Y-107864815D01*
X143518449Y-107966272D01*
X143547779Y-108002010D01*
X143547780Y-108002012D01*
X143631444Y-108158534D01*
X143631444Y-108158535D01*
X143682964Y-108328374D01*
X143700360Y-108505001D01*
X143682964Y-108681628D01*
X143648617Y-108794854D01*
X143631444Y-108851468D01*
X143557349Y-108990088D01*
X143547779Y-109007992D01*
X143518449Y-109043730D01*
X143435187Y-109145187D01*
X143333730Y-109228449D01*
X143297992Y-109257779D01*
X143297990Y-109257780D01*
X143141468Y-109341444D01*
X143084854Y-109358617D01*
X142971628Y-109392964D01*
X142905444Y-109399482D01*
X142839261Y-109406001D01*
X142750741Y-109406001D01*
X142684558Y-109399482D01*
X142618374Y-109392964D01*
X142505148Y-109358617D01*
X142448534Y-109341444D01*
X142292012Y-109257780D01*
X142292010Y-109257779D01*
X142256272Y-109228449D01*
X142154815Y-109145187D01*
X142071553Y-109043730D01*
X142042223Y-109007992D01*
X142032653Y-108990088D01*
X141958558Y-108851468D01*
X141941385Y-108794854D01*
X141907038Y-108681628D01*
X141889642Y-108505001D01*
X141907038Y-108328374D01*
X141958558Y-108158535D01*
X141958558Y-108158534D01*
X142042222Y-108002012D01*
X142042223Y-108002010D01*
X142071553Y-107966272D01*
X142154815Y-107864815D01*
X142256272Y-107781553D01*
X142292010Y-107752223D01*
X142309914Y-107742653D01*
X142448534Y-107668558D01*
X142505148Y-107651385D01*
X142618374Y-107617038D01*
X142684558Y-107610520D01*
X142750741Y-107604001D01*
X142839261Y-107604001D01*
X142905444Y-107610520D01*
X142905444Y-107610520D01*
G37*
G36*
X140284466Y-105813565D02*
X140323137Y-105825296D01*
X140358779Y-105844348D01*
X140390017Y-105869983D01*
X140415652Y-105901221D01*
X140434704Y-105936863D01*
X140446435Y-105975534D01*
X140451000Y-106021888D01*
X140451000Y-106673112D01*
X140446435Y-106719466D01*
X140434704Y-106758137D01*
X140415652Y-106793779D01*
X140390017Y-106825017D01*
X140358779Y-106850652D01*
X140323137Y-106869704D01*
X140284466Y-106881435D01*
X140238112Y-106886000D01*
X139161888Y-106886000D01*
X139115534Y-106881435D01*
X139076863Y-106869704D01*
X139041221Y-106850652D01*
X139009983Y-106825017D01*
X138984348Y-106793779D01*
X138965296Y-106758137D01*
X138953565Y-106719466D01*
X138949000Y-106673112D01*
X138949000Y-106021888D01*
X138953565Y-105975534D01*
X138965296Y-105936863D01*
X138984348Y-105901221D01*
X139009983Y-105869983D01*
X139041221Y-105844348D01*
X139076863Y-105825296D01*
X139115534Y-105813565D01*
X139161888Y-105809000D01*
X140238112Y-105809000D01*
X140284466Y-105813565D01*
X140284466Y-105813565D01*
G37*
G36*
X145445443Y-105070519D02*
X145511628Y-105077038D01*
X145624854Y-105111385D01*
X145681468Y-105128558D01*
X145820088Y-105202653D01*
X145837992Y-105212223D01*
X145873730Y-105241553D01*
X145975187Y-105324815D01*
X146045095Y-105410000D01*
X146087779Y-105462010D01*
X146087780Y-105462012D01*
X146171444Y-105618534D01*
X146171444Y-105618535D01*
X146222964Y-105788374D01*
X146240360Y-105965001D01*
X146222964Y-106141628D01*
X146205250Y-106200023D01*
X146171444Y-106311468D01*
X146097349Y-106450088D01*
X146087779Y-106467992D01*
X146058449Y-106503730D01*
X145975187Y-106605187D01*
X145892419Y-106673112D01*
X145837992Y-106717779D01*
X145837990Y-106717780D01*
X145681468Y-106801444D01*
X145624854Y-106818617D01*
X145511628Y-106852964D01*
X145445444Y-106859482D01*
X145379261Y-106866001D01*
X145290741Y-106866001D01*
X145224558Y-106859482D01*
X145158374Y-106852964D01*
X145045148Y-106818617D01*
X144988534Y-106801444D01*
X144832012Y-106717780D01*
X144832010Y-106717779D01*
X144777583Y-106673112D01*
X144694815Y-106605187D01*
X144611553Y-106503730D01*
X144582223Y-106467992D01*
X144572653Y-106450088D01*
X144498558Y-106311468D01*
X144464752Y-106200023D01*
X144447038Y-106141628D01*
X144429642Y-105965001D01*
X144447038Y-105788374D01*
X144498558Y-105618535D01*
X144498558Y-105618534D01*
X144582222Y-105462012D01*
X144582223Y-105462010D01*
X144624907Y-105410000D01*
X144694815Y-105324815D01*
X144796272Y-105241553D01*
X144832010Y-105212223D01*
X144849914Y-105202653D01*
X144988534Y-105128558D01*
X145045148Y-105111385D01*
X145158374Y-105077038D01*
X145224559Y-105070519D01*
X145290741Y-105064001D01*
X145379261Y-105064001D01*
X145445443Y-105070519D01*
X145445443Y-105070519D01*
G37*
G36*
X142905443Y-105070519D02*
X142971628Y-105077038D01*
X143084854Y-105111385D01*
X143141468Y-105128558D01*
X143280088Y-105202653D01*
X143297992Y-105212223D01*
X143333730Y-105241553D01*
X143435187Y-105324815D01*
X143505095Y-105410000D01*
X143547779Y-105462010D01*
X143547780Y-105462012D01*
X143631444Y-105618534D01*
X143631444Y-105618535D01*
X143682964Y-105788374D01*
X143700360Y-105965001D01*
X143682964Y-106141628D01*
X143665250Y-106200023D01*
X143631444Y-106311468D01*
X143557349Y-106450088D01*
X143547779Y-106467992D01*
X143518449Y-106503730D01*
X143435187Y-106605187D01*
X143352419Y-106673112D01*
X143297992Y-106717779D01*
X143297990Y-106717780D01*
X143141468Y-106801444D01*
X143084854Y-106818617D01*
X142971628Y-106852964D01*
X142905444Y-106859482D01*
X142839261Y-106866001D01*
X142750741Y-106866001D01*
X142684558Y-106859482D01*
X142618374Y-106852964D01*
X142505148Y-106818617D01*
X142448534Y-106801444D01*
X142292012Y-106717780D01*
X142292010Y-106717779D01*
X142237583Y-106673112D01*
X142154815Y-106605187D01*
X142071553Y-106503730D01*
X142042223Y-106467992D01*
X142032653Y-106450088D01*
X141958558Y-106311468D01*
X141924752Y-106200023D01*
X141907038Y-106141628D01*
X141889642Y-105965001D01*
X141907038Y-105788374D01*
X141958558Y-105618535D01*
X141958558Y-105618534D01*
X142042222Y-105462012D01*
X142042223Y-105462010D01*
X142084907Y-105410000D01*
X142154815Y-105324815D01*
X142256272Y-105241553D01*
X142292010Y-105212223D01*
X142309914Y-105202653D01*
X142448534Y-105128558D01*
X142505148Y-105111385D01*
X142618374Y-105077038D01*
X142684559Y-105070519D01*
X142750741Y-105064001D01*
X142839261Y-105064001D01*
X142905443Y-105070519D01*
X142905443Y-105070519D01*
G37*
G36*
X137376000Y-106261000D02*
X135674000Y-106261000D01*
X135674000Y-104559000D01*
X137376000Y-104559000D01*
X137376000Y-106261000D01*
X137376000Y-106261000D01*
G37*
G36*
X129071821Y-104571313D02*
X129071824Y-104571314D01*
X129071825Y-104571314D01*
X129232239Y-104619975D01*
X129232241Y-104619976D01*
X129232244Y-104619977D01*
X129380078Y-104698995D01*
X129509659Y-104805341D01*
X129616005Y-104934922D01*
X129695023Y-105082756D01*
X129695024Y-105082759D01*
X129695025Y-105082761D01*
X129734297Y-105212223D01*
X129743687Y-105243179D01*
X129760117Y-105410000D01*
X129743687Y-105576821D01*
X129743686Y-105576824D01*
X129743686Y-105576825D01*
X129731034Y-105618534D01*
X129695023Y-105737244D01*
X129616005Y-105885078D01*
X129509659Y-106014659D01*
X129380078Y-106121005D01*
X129232244Y-106200023D01*
X129232241Y-106200024D01*
X129232239Y-106200025D01*
X129071825Y-106248686D01*
X129071824Y-106248686D01*
X129071821Y-106248687D01*
X128946804Y-106261000D01*
X128863196Y-106261000D01*
X128738179Y-106248687D01*
X128738176Y-106248686D01*
X128738175Y-106248686D01*
X128577761Y-106200025D01*
X128577759Y-106200024D01*
X128577756Y-106200023D01*
X128429922Y-106121005D01*
X128300341Y-106014659D01*
X128193995Y-105885078D01*
X128114977Y-105737244D01*
X128078967Y-105618534D01*
X128066314Y-105576825D01*
X128066314Y-105576824D01*
X128066313Y-105576821D01*
X128049883Y-105410000D01*
X128066313Y-105243179D01*
X128075703Y-105212223D01*
X128114975Y-105082761D01*
X128114976Y-105082759D01*
X128114977Y-105082756D01*
X128193995Y-104934922D01*
X128300341Y-104805341D01*
X128429922Y-104698995D01*
X128577756Y-104619977D01*
X128577759Y-104619976D01*
X128577761Y-104619975D01*
X128738175Y-104571314D01*
X128738176Y-104571314D01*
X128738179Y-104571313D01*
X128863196Y-104559000D01*
X128946804Y-104559000D01*
X129071821Y-104571313D01*
X129071821Y-104571313D01*
G37*
G36*
X140284466Y-103938565D02*
X140323137Y-103950296D01*
X140358779Y-103969348D01*
X140390017Y-103994983D01*
X140415652Y-104026221D01*
X140434704Y-104061863D01*
X140446435Y-104100534D01*
X140451000Y-104146888D01*
X140451000Y-104798112D01*
X140446435Y-104844466D01*
X140434704Y-104883137D01*
X140415652Y-104918779D01*
X140390017Y-104950017D01*
X140358779Y-104975652D01*
X140323137Y-104994704D01*
X140284466Y-105006435D01*
X140238112Y-105011000D01*
X139161888Y-105011000D01*
X139115534Y-105006435D01*
X139076863Y-104994704D01*
X139041221Y-104975652D01*
X139009983Y-104950017D01*
X138984348Y-104918779D01*
X138965296Y-104883137D01*
X138953565Y-104844466D01*
X138949000Y-104798112D01*
X138949000Y-104146888D01*
X138953565Y-104100534D01*
X138965296Y-104061863D01*
X138984348Y-104026221D01*
X139009983Y-103994983D01*
X139041221Y-103969348D01*
X139076863Y-103950296D01*
X139115534Y-103938565D01*
X139161888Y-103934000D01*
X140238112Y-103934000D01*
X140284466Y-103938565D01*
X140284466Y-103938565D01*
G37*
G36*
X145445443Y-102530519D02*
X145511628Y-102537038D01*
X145624854Y-102571385D01*
X145681468Y-102588558D01*
X145820088Y-102662653D01*
X145837992Y-102672223D01*
X145873730Y-102701553D01*
X145975187Y-102784815D01*
X146045095Y-102870000D01*
X146087779Y-102922010D01*
X146087780Y-102922012D01*
X146171444Y-103078534D01*
X146171444Y-103078535D01*
X146222964Y-103248374D01*
X146240360Y-103425001D01*
X146222964Y-103601628D01*
X146205250Y-103660023D01*
X146171444Y-103771468D01*
X146097349Y-103910088D01*
X146087779Y-103927992D01*
X146078602Y-103939174D01*
X145975187Y-104065187D01*
X145875633Y-104146888D01*
X145837992Y-104177779D01*
X145837990Y-104177780D01*
X145681468Y-104261444D01*
X145624854Y-104278617D01*
X145511628Y-104312964D01*
X145445443Y-104319483D01*
X145379261Y-104326001D01*
X145290741Y-104326001D01*
X145224558Y-104319482D01*
X145158374Y-104312964D01*
X145045148Y-104278617D01*
X144988534Y-104261444D01*
X144832012Y-104177780D01*
X144832010Y-104177779D01*
X144794369Y-104146888D01*
X144694815Y-104065187D01*
X144591400Y-103939174D01*
X144582223Y-103927992D01*
X144572653Y-103910088D01*
X144498558Y-103771468D01*
X144464752Y-103660023D01*
X144447038Y-103601628D01*
X144429642Y-103425001D01*
X144447038Y-103248374D01*
X144498558Y-103078535D01*
X144498558Y-103078534D01*
X144582222Y-102922012D01*
X144582223Y-102922010D01*
X144624907Y-102870000D01*
X144694815Y-102784815D01*
X144796272Y-102701553D01*
X144832010Y-102672223D01*
X144849914Y-102662653D01*
X144988534Y-102588558D01*
X145045148Y-102571385D01*
X145158374Y-102537038D01*
X145224558Y-102530520D01*
X145290741Y-102524001D01*
X145379261Y-102524001D01*
X145445443Y-102530519D01*
X145445443Y-102530519D01*
G37*
G36*
X142905443Y-102530519D02*
X142971628Y-102537038D01*
X143084854Y-102571385D01*
X143141468Y-102588558D01*
X143280088Y-102662653D01*
X143297992Y-102672223D01*
X143333730Y-102701553D01*
X143435187Y-102784815D01*
X143505095Y-102870000D01*
X143547779Y-102922010D01*
X143547780Y-102922012D01*
X143631444Y-103078534D01*
X143631444Y-103078535D01*
X143682964Y-103248374D01*
X143700360Y-103425001D01*
X143682964Y-103601628D01*
X143665250Y-103660023D01*
X143631444Y-103771468D01*
X143557349Y-103910088D01*
X143547779Y-103927992D01*
X143538602Y-103939174D01*
X143435187Y-104065187D01*
X143335633Y-104146888D01*
X143297992Y-104177779D01*
X143297990Y-104177780D01*
X143141468Y-104261444D01*
X143084854Y-104278617D01*
X142971628Y-104312964D01*
X142905443Y-104319483D01*
X142839261Y-104326001D01*
X142750741Y-104326001D01*
X142684558Y-104319482D01*
X142618374Y-104312964D01*
X142505148Y-104278617D01*
X142448534Y-104261444D01*
X142292012Y-104177780D01*
X142292010Y-104177779D01*
X142254369Y-104146888D01*
X142154815Y-104065187D01*
X142051400Y-103939174D01*
X142042223Y-103927992D01*
X142032653Y-103910088D01*
X141958558Y-103771468D01*
X141924752Y-103660023D01*
X141907038Y-103601628D01*
X141889642Y-103425001D01*
X141907038Y-103248374D01*
X141958558Y-103078535D01*
X141958558Y-103078534D01*
X142042222Y-102922012D01*
X142042223Y-102922010D01*
X142084907Y-102870000D01*
X142154815Y-102784815D01*
X142256272Y-102701553D01*
X142292010Y-102672223D01*
X142309914Y-102662653D01*
X142448534Y-102588558D01*
X142505148Y-102571385D01*
X142618374Y-102537038D01*
X142684558Y-102530520D01*
X142750741Y-102524001D01*
X142839261Y-102524001D01*
X142905443Y-102530519D01*
X142905443Y-102530519D01*
G37*
G36*
X136691821Y-102031313D02*
X136691824Y-102031314D01*
X136691825Y-102031314D01*
X136852239Y-102079975D01*
X136852241Y-102079976D01*
X136852244Y-102079977D01*
X137000078Y-102158995D01*
X137129659Y-102265341D01*
X137236005Y-102394922D01*
X137315023Y-102542756D01*
X137315024Y-102542759D01*
X137315025Y-102542761D01*
X137354297Y-102672223D01*
X137363687Y-102703179D01*
X137380117Y-102870000D01*
X137363687Y-103036821D01*
X137363686Y-103036824D01*
X137363686Y-103036825D01*
X137351034Y-103078534D01*
X137315023Y-103197244D01*
X137236005Y-103345078D01*
X137129659Y-103474659D01*
X137000078Y-103581005D01*
X136852244Y-103660023D01*
X136852241Y-103660024D01*
X136852239Y-103660025D01*
X136691825Y-103708686D01*
X136691824Y-103708686D01*
X136691821Y-103708687D01*
X136566804Y-103721000D01*
X136483196Y-103721000D01*
X136358179Y-103708687D01*
X136358176Y-103708686D01*
X136358175Y-103708686D01*
X136197761Y-103660025D01*
X136197759Y-103660024D01*
X136197756Y-103660023D01*
X136049922Y-103581005D01*
X135920341Y-103474659D01*
X135813995Y-103345078D01*
X135734977Y-103197244D01*
X135698967Y-103078534D01*
X135686314Y-103036825D01*
X135686314Y-103036824D01*
X135686313Y-103036821D01*
X135669883Y-102870000D01*
X135686313Y-102703179D01*
X135695703Y-102672223D01*
X135734975Y-102542761D01*
X135734976Y-102542759D01*
X135734977Y-102542756D01*
X135813995Y-102394922D01*
X135920341Y-102265341D01*
X136049922Y-102158995D01*
X136197756Y-102079977D01*
X136197759Y-102079976D01*
X136197761Y-102079975D01*
X136358175Y-102031314D01*
X136358176Y-102031314D01*
X136358179Y-102031313D01*
X136483196Y-102019000D01*
X136566804Y-102019000D01*
X136691821Y-102031313D01*
X136691821Y-102031313D01*
G37*
G36*
X129071821Y-102031313D02*
X129071824Y-102031314D01*
X129071825Y-102031314D01*
X129232239Y-102079975D01*
X129232241Y-102079976D01*
X129232244Y-102079977D01*
X129380078Y-102158995D01*
X129509659Y-102265341D01*
X129616005Y-102394922D01*
X129695023Y-102542756D01*
X129695024Y-102542759D01*
X129695025Y-102542761D01*
X129734297Y-102672223D01*
X129743687Y-102703179D01*
X129760117Y-102870000D01*
X129743687Y-103036821D01*
X129743686Y-103036824D01*
X129743686Y-103036825D01*
X129731034Y-103078534D01*
X129695023Y-103197244D01*
X129616005Y-103345078D01*
X129509659Y-103474659D01*
X129380078Y-103581005D01*
X129232244Y-103660023D01*
X129232241Y-103660024D01*
X129232239Y-103660025D01*
X129071825Y-103708686D01*
X129071824Y-103708686D01*
X129071821Y-103708687D01*
X128946804Y-103721000D01*
X128863196Y-103721000D01*
X128738179Y-103708687D01*
X128738176Y-103708686D01*
X128738175Y-103708686D01*
X128577761Y-103660025D01*
X128577759Y-103660024D01*
X128577756Y-103660023D01*
X128429922Y-103581005D01*
X128300341Y-103474659D01*
X128193995Y-103345078D01*
X128114977Y-103197244D01*
X128078967Y-103078534D01*
X128066314Y-103036825D01*
X128066314Y-103036824D01*
X128066313Y-103036821D01*
X128049883Y-102870000D01*
X128066313Y-102703179D01*
X128075703Y-102672223D01*
X128114975Y-102542761D01*
X128114976Y-102542759D01*
X128114977Y-102542756D01*
X128193995Y-102394922D01*
X128300341Y-102265341D01*
X128429922Y-102158995D01*
X128577756Y-102079977D01*
X128577759Y-102079976D01*
X128577761Y-102079975D01*
X128738175Y-102031314D01*
X128738176Y-102031314D01*
X128738179Y-102031313D01*
X128863196Y-102019000D01*
X128946804Y-102019000D01*
X129071821Y-102031313D01*
X129071821Y-102031313D01*
G37*
G36*
X142905444Y-99990520D02*
X142971628Y-99997038D01*
X143084854Y-100031385D01*
X143141468Y-100048558D01*
X143280088Y-100122653D01*
X143297992Y-100132223D01*
X143333730Y-100161553D01*
X143435187Y-100244815D01*
X143518449Y-100346272D01*
X143547779Y-100382010D01*
X143547780Y-100382012D01*
X143631444Y-100538534D01*
X143631444Y-100538535D01*
X143682964Y-100708374D01*
X143700360Y-100885001D01*
X143682964Y-101061628D01*
X143648617Y-101174854D01*
X143631444Y-101231468D01*
X143557349Y-101370088D01*
X143547779Y-101387992D01*
X143518449Y-101423730D01*
X143435187Y-101525187D01*
X143333730Y-101608449D01*
X143297992Y-101637779D01*
X143297990Y-101637780D01*
X143141468Y-101721444D01*
X143084854Y-101738617D01*
X142971628Y-101772964D01*
X142905443Y-101779483D01*
X142839261Y-101786001D01*
X142750741Y-101786001D01*
X142684559Y-101779483D01*
X142618374Y-101772964D01*
X142505148Y-101738617D01*
X142448534Y-101721444D01*
X142292012Y-101637780D01*
X142292010Y-101637779D01*
X142256272Y-101608449D01*
X142154815Y-101525187D01*
X142071553Y-101423730D01*
X142042223Y-101387992D01*
X142032653Y-101370088D01*
X141958558Y-101231468D01*
X141941385Y-101174854D01*
X141907038Y-101061628D01*
X141889642Y-100885001D01*
X141907038Y-100708374D01*
X141958558Y-100538535D01*
X141958558Y-100538534D01*
X142042222Y-100382012D01*
X142042223Y-100382010D01*
X142071553Y-100346272D01*
X142154815Y-100244815D01*
X142256272Y-100161553D01*
X142292010Y-100132223D01*
X142309914Y-100122653D01*
X142448534Y-100048558D01*
X142505148Y-100031385D01*
X142618374Y-99997038D01*
X142684558Y-99990520D01*
X142750741Y-99984001D01*
X142839261Y-99984001D01*
X142905444Y-99990520D01*
X142905444Y-99990520D01*
G37*
G36*
X145445444Y-99990520D02*
X145511628Y-99997038D01*
X145624854Y-100031385D01*
X145681468Y-100048558D01*
X145820088Y-100122653D01*
X145837992Y-100132223D01*
X145873730Y-100161553D01*
X145975187Y-100244815D01*
X146058449Y-100346272D01*
X146087779Y-100382010D01*
X146087780Y-100382012D01*
X146171444Y-100538534D01*
X146171444Y-100538535D01*
X146222964Y-100708374D01*
X146240360Y-100885001D01*
X146222964Y-101061628D01*
X146188617Y-101174854D01*
X146171444Y-101231468D01*
X146097349Y-101370088D01*
X146087779Y-101387992D01*
X146058449Y-101423730D01*
X145975187Y-101525187D01*
X145873730Y-101608449D01*
X145837992Y-101637779D01*
X145837990Y-101637780D01*
X145681468Y-101721444D01*
X145624854Y-101738617D01*
X145511628Y-101772964D01*
X145445443Y-101779483D01*
X145379261Y-101786001D01*
X145290741Y-101786001D01*
X145224559Y-101779483D01*
X145158374Y-101772964D01*
X145045148Y-101738617D01*
X144988534Y-101721444D01*
X144832012Y-101637780D01*
X144832010Y-101637779D01*
X144796272Y-101608449D01*
X144694815Y-101525187D01*
X144611553Y-101423730D01*
X144582223Y-101387992D01*
X144572653Y-101370088D01*
X144498558Y-101231468D01*
X144481385Y-101174854D01*
X144447038Y-101061628D01*
X144429642Y-100885001D01*
X144447038Y-100708374D01*
X144498558Y-100538535D01*
X144498558Y-100538534D01*
X144582222Y-100382012D01*
X144582223Y-100382010D01*
X144611553Y-100346272D01*
X144694815Y-100244815D01*
X144796272Y-100161553D01*
X144832010Y-100132223D01*
X144849914Y-100122653D01*
X144988534Y-100048558D01*
X145045148Y-100031385D01*
X145158374Y-99997038D01*
X145224558Y-99990520D01*
X145290741Y-99984001D01*
X145379261Y-99984001D01*
X145445444Y-99990520D01*
X145445444Y-99990520D01*
G37*
G36*
X140288677Y-98193465D02*
X140326364Y-98204898D01*
X140361103Y-98223466D01*
X140391548Y-98248452D01*
X140416534Y-98278897D01*
X140435102Y-98313636D01*
X140446535Y-98351323D01*
X140451000Y-98396661D01*
X140451000Y-99233339D01*
X140446535Y-99278677D01*
X140435102Y-99316364D01*
X140416534Y-99351103D01*
X140391548Y-99381548D01*
X140361103Y-99406534D01*
X140326364Y-99425102D01*
X140288677Y-99436535D01*
X140243339Y-99441000D01*
X139156661Y-99441000D01*
X139111323Y-99436535D01*
X139073636Y-99425102D01*
X139038897Y-99406534D01*
X139008452Y-99381548D01*
X138983466Y-99351103D01*
X138964898Y-99316364D01*
X138953465Y-99278677D01*
X138949000Y-99233339D01*
X138949000Y-98396661D01*
X138953465Y-98351323D01*
X138964898Y-98313636D01*
X138983466Y-98278897D01*
X139008452Y-98248452D01*
X139038897Y-98223466D01*
X139073636Y-98204898D01*
X139111323Y-98193465D01*
X139156661Y-98189000D01*
X140243339Y-98189000D01*
X140288677Y-98193465D01*
X140288677Y-98193465D01*
G37*
G36*
X142905444Y-97450520D02*
X142971628Y-97457038D01*
X143054721Y-97482244D01*
X143141468Y-97508558D01*
X143280088Y-97582653D01*
X143297992Y-97592223D01*
X143333730Y-97621553D01*
X143435187Y-97704815D01*
X143518449Y-97806272D01*
X143547779Y-97842010D01*
X143547780Y-97842012D01*
X143631444Y-97998534D01*
X143648617Y-98055148D01*
X143682964Y-98168374D01*
X143700360Y-98345001D01*
X143682964Y-98521628D01*
X143648617Y-98634854D01*
X143631444Y-98691468D01*
X143557349Y-98830088D01*
X143547779Y-98847992D01*
X143518449Y-98883730D01*
X143435187Y-98985187D01*
X143333730Y-99068449D01*
X143297992Y-99097779D01*
X143297990Y-99097780D01*
X143141468Y-99181444D01*
X143084854Y-99198617D01*
X142971628Y-99232964D01*
X142905443Y-99239483D01*
X142839261Y-99246001D01*
X142750741Y-99246001D01*
X142684559Y-99239483D01*
X142618374Y-99232964D01*
X142505148Y-99198617D01*
X142448534Y-99181444D01*
X142292012Y-99097780D01*
X142292010Y-99097779D01*
X142256272Y-99068449D01*
X142154815Y-98985187D01*
X142071553Y-98883730D01*
X142042223Y-98847992D01*
X142032653Y-98830088D01*
X141958558Y-98691468D01*
X141941385Y-98634854D01*
X141907038Y-98521628D01*
X141889642Y-98345001D01*
X141907038Y-98168374D01*
X141941385Y-98055148D01*
X141958558Y-97998534D01*
X142042222Y-97842012D01*
X142042223Y-97842010D01*
X142071553Y-97806272D01*
X142154815Y-97704815D01*
X142256272Y-97621553D01*
X142292010Y-97592223D01*
X142309914Y-97582653D01*
X142448534Y-97508558D01*
X142535281Y-97482244D01*
X142618374Y-97457038D01*
X142684558Y-97450520D01*
X142750741Y-97444001D01*
X142839261Y-97444001D01*
X142905444Y-97450520D01*
X142905444Y-97450520D01*
G37*
G36*
X145445444Y-97450520D02*
X145511628Y-97457038D01*
X145594721Y-97482244D01*
X145681468Y-97508558D01*
X145820088Y-97582653D01*
X145837992Y-97592223D01*
X145873730Y-97621553D01*
X145975187Y-97704815D01*
X146058449Y-97806272D01*
X146087779Y-97842010D01*
X146087780Y-97842012D01*
X146171444Y-97998534D01*
X146188617Y-98055148D01*
X146222964Y-98168374D01*
X146240360Y-98345001D01*
X146222964Y-98521628D01*
X146188617Y-98634854D01*
X146171444Y-98691468D01*
X146097349Y-98830088D01*
X146087779Y-98847992D01*
X146058449Y-98883730D01*
X145975187Y-98985187D01*
X145873730Y-99068449D01*
X145837992Y-99097779D01*
X145837990Y-99097780D01*
X145681468Y-99181444D01*
X145624854Y-99198617D01*
X145511628Y-99232964D01*
X145445443Y-99239483D01*
X145379261Y-99246001D01*
X145290741Y-99246001D01*
X145224559Y-99239483D01*
X145158374Y-99232964D01*
X145045148Y-99198617D01*
X144988534Y-99181444D01*
X144832012Y-99097780D01*
X144832010Y-99097779D01*
X144796272Y-99068449D01*
X144694815Y-98985187D01*
X144611553Y-98883730D01*
X144582223Y-98847992D01*
X144572653Y-98830088D01*
X144498558Y-98691468D01*
X144481385Y-98634854D01*
X144447038Y-98521628D01*
X144429642Y-98345001D01*
X144447038Y-98168374D01*
X144481385Y-98055148D01*
X144498558Y-97998534D01*
X144582222Y-97842012D01*
X144582223Y-97842010D01*
X144611553Y-97806272D01*
X144694815Y-97704815D01*
X144796272Y-97621553D01*
X144832010Y-97592223D01*
X144849914Y-97582653D01*
X144988534Y-97508558D01*
X145075281Y-97482244D01*
X145158374Y-97457038D01*
X145224558Y-97450520D01*
X145290741Y-97444001D01*
X145379261Y-97444001D01*
X145445444Y-97450520D01*
X145445444Y-97450520D01*
G37*
G36*
X129071821Y-96316313D02*
X129071824Y-96316314D01*
X129071825Y-96316314D01*
X129232239Y-96364975D01*
X129232241Y-96364976D01*
X129232244Y-96364977D01*
X129380078Y-96443995D01*
X129509659Y-96550341D01*
X129616005Y-96679922D01*
X129695023Y-96827756D01*
X129743687Y-96988179D01*
X129760117Y-97155000D01*
X129743687Y-97321821D01*
X129743686Y-97321824D01*
X129743686Y-97321825D01*
X129702670Y-97457038D01*
X129695023Y-97482244D01*
X129616005Y-97630078D01*
X129509659Y-97759659D01*
X129380078Y-97866005D01*
X129232244Y-97945023D01*
X129232241Y-97945024D01*
X129232239Y-97945025D01*
X129071825Y-97993686D01*
X129071824Y-97993686D01*
X129071821Y-97993687D01*
X128946804Y-98006000D01*
X128863196Y-98006000D01*
X128738179Y-97993687D01*
X128738176Y-97993686D01*
X128738175Y-97993686D01*
X128577761Y-97945025D01*
X128577759Y-97945024D01*
X128577756Y-97945023D01*
X128429922Y-97866005D01*
X128300341Y-97759659D01*
X128193995Y-97630078D01*
X128114977Y-97482244D01*
X128107331Y-97457038D01*
X128066314Y-97321825D01*
X128066314Y-97321824D01*
X128066313Y-97321821D01*
X128049883Y-97155000D01*
X128066313Y-96988179D01*
X128114977Y-96827756D01*
X128193995Y-96679922D01*
X128300341Y-96550341D01*
X128429922Y-96443995D01*
X128577756Y-96364977D01*
X128577759Y-96364976D01*
X128577761Y-96364975D01*
X128738175Y-96316314D01*
X128738176Y-96316314D01*
X128738179Y-96316313D01*
X128863196Y-96304000D01*
X128946804Y-96304000D01*
X129071821Y-96316313D01*
X129071821Y-96316313D01*
G37*
G36*
X137376000Y-98006000D02*
X135674000Y-98006000D01*
X135674000Y-96304000D01*
X137376000Y-96304000D01*
X137376000Y-98006000D01*
X137376000Y-98006000D01*
G37*
G36*
X140288677Y-96143465D02*
X140326364Y-96154898D01*
X140361103Y-96173466D01*
X140391548Y-96198452D01*
X140416534Y-96228897D01*
X140435102Y-96263636D01*
X140446535Y-96301323D01*
X140451000Y-96346661D01*
X140451000Y-97183339D01*
X140446535Y-97228677D01*
X140435102Y-97266364D01*
X140416534Y-97301103D01*
X140391548Y-97331548D01*
X140361103Y-97356534D01*
X140326364Y-97375102D01*
X140288677Y-97386535D01*
X140243339Y-97391000D01*
X139156661Y-97391000D01*
X139111323Y-97386535D01*
X139073636Y-97375102D01*
X139038897Y-97356534D01*
X139008452Y-97331548D01*
X138983466Y-97301103D01*
X138964898Y-97266364D01*
X138953465Y-97228677D01*
X138949000Y-97183339D01*
X138949000Y-96346661D01*
X138953465Y-96301323D01*
X138964898Y-96263636D01*
X138983466Y-96228897D01*
X139008452Y-96198452D01*
X139038897Y-96173466D01*
X139073636Y-96154898D01*
X139111323Y-96143465D01*
X139156661Y-96139000D01*
X140243339Y-96139000D01*
X140288677Y-96143465D01*
X140288677Y-96143465D01*
G37*
G36*
X142905443Y-94910519D02*
X142971628Y-94917038D01*
X143054721Y-94942244D01*
X143141468Y-94968558D01*
X143280088Y-95042653D01*
X143297992Y-95052223D01*
X143333730Y-95081553D01*
X143435187Y-95164815D01*
X143518449Y-95266272D01*
X143547779Y-95302010D01*
X143547780Y-95302012D01*
X143631444Y-95458534D01*
X143648617Y-95515148D01*
X143682964Y-95628374D01*
X143700360Y-95805001D01*
X143682964Y-95981628D01*
X143648617Y-96094854D01*
X143631444Y-96151468D01*
X143573452Y-96259962D01*
X143547779Y-96307992D01*
X143540950Y-96316313D01*
X143435187Y-96445187D01*
X143333730Y-96528449D01*
X143297992Y-96557779D01*
X143297990Y-96557780D01*
X143141468Y-96641444D01*
X143084854Y-96658617D01*
X142971628Y-96692964D01*
X142905443Y-96699483D01*
X142839261Y-96706001D01*
X142750741Y-96706001D01*
X142684559Y-96699483D01*
X142618374Y-96692964D01*
X142505148Y-96658617D01*
X142448534Y-96641444D01*
X142292012Y-96557780D01*
X142292010Y-96557779D01*
X142256272Y-96528449D01*
X142154815Y-96445187D01*
X142049052Y-96316313D01*
X142042223Y-96307992D01*
X142016550Y-96259962D01*
X141958558Y-96151468D01*
X141941385Y-96094854D01*
X141907038Y-95981628D01*
X141889642Y-95805001D01*
X141907038Y-95628374D01*
X141941385Y-95515148D01*
X141958558Y-95458534D01*
X142042222Y-95302012D01*
X142042223Y-95302010D01*
X142071553Y-95266272D01*
X142154815Y-95164815D01*
X142256272Y-95081553D01*
X142292010Y-95052223D01*
X142309914Y-95042653D01*
X142448534Y-94968558D01*
X142535281Y-94942244D01*
X142618374Y-94917038D01*
X142684559Y-94910519D01*
X142750741Y-94904001D01*
X142839261Y-94904001D01*
X142905443Y-94910519D01*
X142905443Y-94910519D01*
G37*
G36*
X145445443Y-94910519D02*
X145511628Y-94917038D01*
X145594721Y-94942244D01*
X145681468Y-94968558D01*
X145820088Y-95042653D01*
X145837992Y-95052223D01*
X145873730Y-95081553D01*
X145975187Y-95164815D01*
X146058449Y-95266272D01*
X146087779Y-95302010D01*
X146087780Y-95302012D01*
X146171444Y-95458534D01*
X146188617Y-95515148D01*
X146222964Y-95628374D01*
X146240360Y-95805001D01*
X146222964Y-95981628D01*
X146188617Y-96094854D01*
X146171444Y-96151468D01*
X146113452Y-96259962D01*
X146087779Y-96307992D01*
X146080950Y-96316313D01*
X145975187Y-96445187D01*
X145873730Y-96528449D01*
X145837992Y-96557779D01*
X145837990Y-96557780D01*
X145681468Y-96641444D01*
X145624854Y-96658617D01*
X145511628Y-96692964D01*
X145445443Y-96699483D01*
X145379261Y-96706001D01*
X145290741Y-96706001D01*
X145224559Y-96699483D01*
X145158374Y-96692964D01*
X145045148Y-96658617D01*
X144988534Y-96641444D01*
X144832012Y-96557780D01*
X144832010Y-96557779D01*
X144796272Y-96528449D01*
X144694815Y-96445187D01*
X144589052Y-96316313D01*
X144582223Y-96307992D01*
X144556550Y-96259962D01*
X144498558Y-96151468D01*
X144481385Y-96094854D01*
X144447038Y-95981628D01*
X144429642Y-95805001D01*
X144447038Y-95628374D01*
X144481385Y-95515148D01*
X144498558Y-95458534D01*
X144582222Y-95302012D01*
X144582223Y-95302010D01*
X144611553Y-95266272D01*
X144694815Y-95164815D01*
X144796272Y-95081553D01*
X144832010Y-95052223D01*
X144849914Y-95042653D01*
X144988534Y-94968558D01*
X145075281Y-94942244D01*
X145158374Y-94917038D01*
X145224559Y-94910519D01*
X145290741Y-94904001D01*
X145379261Y-94904001D01*
X145445443Y-94910519D01*
X145445443Y-94910519D01*
G37*
G36*
X136691821Y-93776313D02*
X136691824Y-93776314D01*
X136691825Y-93776314D01*
X136852239Y-93824975D01*
X136852241Y-93824976D01*
X136852244Y-93824977D01*
X137000078Y-93903995D01*
X137129659Y-94010341D01*
X137236005Y-94139922D01*
X137315023Y-94287756D01*
X137363687Y-94448179D01*
X137380117Y-94615000D01*
X137363687Y-94781821D01*
X137363686Y-94781824D01*
X137363686Y-94781825D01*
X137322670Y-94917038D01*
X137315023Y-94942244D01*
X137236005Y-95090078D01*
X137129659Y-95219659D01*
X137000078Y-95326005D01*
X136852244Y-95405023D01*
X136852241Y-95405024D01*
X136852239Y-95405025D01*
X136691825Y-95453686D01*
X136691824Y-95453686D01*
X136691821Y-95453687D01*
X136566804Y-95466000D01*
X136483196Y-95466000D01*
X136358179Y-95453687D01*
X136358176Y-95453686D01*
X136358175Y-95453686D01*
X136197761Y-95405025D01*
X136197759Y-95405024D01*
X136197756Y-95405023D01*
X136049922Y-95326005D01*
X135920341Y-95219659D01*
X135813995Y-95090078D01*
X135734977Y-94942244D01*
X135727331Y-94917038D01*
X135686314Y-94781825D01*
X135686314Y-94781824D01*
X135686313Y-94781821D01*
X135669883Y-94615000D01*
X135686313Y-94448179D01*
X135734977Y-94287756D01*
X135813995Y-94139922D01*
X135920341Y-94010341D01*
X136049922Y-93903995D01*
X136197756Y-93824977D01*
X136197759Y-93824976D01*
X136197761Y-93824975D01*
X136358175Y-93776314D01*
X136358176Y-93776314D01*
X136358179Y-93776313D01*
X136483196Y-93764000D01*
X136566804Y-93764000D01*
X136691821Y-93776313D01*
X136691821Y-93776313D01*
G37*
G36*
X129071821Y-93776313D02*
X129071824Y-93776314D01*
X129071825Y-93776314D01*
X129232239Y-93824975D01*
X129232241Y-93824976D01*
X129232244Y-93824977D01*
X129380078Y-93903995D01*
X129509659Y-94010341D01*
X129616005Y-94139922D01*
X129695023Y-94287756D01*
X129743687Y-94448179D01*
X129760117Y-94615000D01*
X129743687Y-94781821D01*
X129743686Y-94781824D01*
X129743686Y-94781825D01*
X129702670Y-94917038D01*
X129695023Y-94942244D01*
X129616005Y-95090078D01*
X129509659Y-95219659D01*
X129380078Y-95326005D01*
X129232244Y-95405023D01*
X129232241Y-95405024D01*
X129232239Y-95405025D01*
X129071825Y-95453686D01*
X129071824Y-95453686D01*
X129071821Y-95453687D01*
X128946804Y-95466000D01*
X128863196Y-95466000D01*
X128738179Y-95453687D01*
X128738176Y-95453686D01*
X128738175Y-95453686D01*
X128577761Y-95405025D01*
X128577759Y-95405024D01*
X128577756Y-95405023D01*
X128429922Y-95326005D01*
X128300341Y-95219659D01*
X128193995Y-95090078D01*
X128114977Y-94942244D01*
X128107331Y-94917038D01*
X128066314Y-94781825D01*
X128066314Y-94781824D01*
X128066313Y-94781821D01*
X128049883Y-94615000D01*
X128066313Y-94448179D01*
X128114977Y-94287756D01*
X128193995Y-94139922D01*
X128300341Y-94010341D01*
X128429922Y-93903995D01*
X128577756Y-93824977D01*
X128577759Y-93824976D01*
X128577761Y-93824975D01*
X128738175Y-93776314D01*
X128738176Y-93776314D01*
X128738179Y-93776313D01*
X128863196Y-93764000D01*
X128946804Y-93764000D01*
X129071821Y-93776313D01*
X129071821Y-93776313D01*
G37*
G36*
X142905443Y-92370519D02*
X142971628Y-92377038D01*
X143084854Y-92411385D01*
X143141468Y-92428558D01*
X143280088Y-92502653D01*
X143297992Y-92512223D01*
X143333730Y-92541553D01*
X143435187Y-92624815D01*
X143518449Y-92726272D01*
X143547779Y-92762010D01*
X143547780Y-92762012D01*
X143631444Y-92918534D01*
X143631444Y-92918535D01*
X143682964Y-93088374D01*
X143700360Y-93265001D01*
X143682964Y-93441628D01*
X143648617Y-93554854D01*
X143631444Y-93611468D01*
X143557349Y-93750088D01*
X143547779Y-93767992D01*
X143540950Y-93776313D01*
X143435187Y-93905187D01*
X143333730Y-93988449D01*
X143297992Y-94017779D01*
X143297990Y-94017780D01*
X143141468Y-94101444D01*
X143084854Y-94118617D01*
X142971628Y-94152964D01*
X142905444Y-94159482D01*
X142839261Y-94166001D01*
X142750741Y-94166001D01*
X142684558Y-94159482D01*
X142618374Y-94152964D01*
X142505148Y-94118617D01*
X142448534Y-94101444D01*
X142292012Y-94017780D01*
X142292010Y-94017779D01*
X142256272Y-93988449D01*
X142154815Y-93905187D01*
X142049052Y-93776313D01*
X142042223Y-93767992D01*
X142032653Y-93750088D01*
X141958558Y-93611468D01*
X141941385Y-93554854D01*
X141907038Y-93441628D01*
X141889642Y-93265001D01*
X141907038Y-93088374D01*
X141958558Y-92918535D01*
X141958558Y-92918534D01*
X142042222Y-92762012D01*
X142042223Y-92762010D01*
X142071553Y-92726272D01*
X142154815Y-92624815D01*
X142256272Y-92541553D01*
X142292010Y-92512223D01*
X142309914Y-92502653D01*
X142448534Y-92428558D01*
X142505148Y-92411385D01*
X142618374Y-92377038D01*
X142684559Y-92370519D01*
X142750741Y-92364001D01*
X142839261Y-92364001D01*
X142905443Y-92370519D01*
X142905443Y-92370519D01*
G37*
G36*
X145445443Y-92370519D02*
X145511628Y-92377038D01*
X145624854Y-92411385D01*
X145681468Y-92428558D01*
X145820088Y-92502653D01*
X145837992Y-92512223D01*
X145873730Y-92541553D01*
X145975187Y-92624815D01*
X146058449Y-92726272D01*
X146087779Y-92762010D01*
X146087780Y-92762012D01*
X146171444Y-92918534D01*
X146171444Y-92918535D01*
X146222964Y-93088374D01*
X146240360Y-93265001D01*
X146222964Y-93441628D01*
X146188617Y-93554854D01*
X146171444Y-93611468D01*
X146097349Y-93750088D01*
X146087779Y-93767992D01*
X146080950Y-93776313D01*
X145975187Y-93905187D01*
X145873730Y-93988449D01*
X145837992Y-94017779D01*
X145837990Y-94017780D01*
X145681468Y-94101444D01*
X145624854Y-94118617D01*
X145511628Y-94152964D01*
X145445444Y-94159482D01*
X145379261Y-94166001D01*
X145290741Y-94166001D01*
X145224558Y-94159482D01*
X145158374Y-94152964D01*
X145045148Y-94118617D01*
X144988534Y-94101444D01*
X144832012Y-94017780D01*
X144832010Y-94017779D01*
X144796272Y-93988449D01*
X144694815Y-93905187D01*
X144589052Y-93776313D01*
X144582223Y-93767992D01*
X144572653Y-93750088D01*
X144498558Y-93611468D01*
X144481385Y-93554854D01*
X144447038Y-93441628D01*
X144429642Y-93265001D01*
X144447038Y-93088374D01*
X144498558Y-92918535D01*
X144498558Y-92918534D01*
X144582222Y-92762012D01*
X144582223Y-92762010D01*
X144611553Y-92726272D01*
X144694815Y-92624815D01*
X144796272Y-92541553D01*
X144832010Y-92512223D01*
X144849914Y-92502653D01*
X144988534Y-92428558D01*
X145045148Y-92411385D01*
X145158374Y-92377038D01*
X145224559Y-92370519D01*
X145290741Y-92364001D01*
X145379261Y-92364001D01*
X145445443Y-92370519D01*
X145445443Y-92370519D01*
G37*
G36*
X142905444Y-89830520D02*
X142971628Y-89837038D01*
X143084854Y-89871385D01*
X143141468Y-89888558D01*
X143280088Y-89962653D01*
X143297992Y-89972223D01*
X143333730Y-90001553D01*
X143435187Y-90084815D01*
X143518449Y-90186272D01*
X143547779Y-90222010D01*
X143547780Y-90222012D01*
X143631444Y-90378534D01*
X143631444Y-90378535D01*
X143682964Y-90548374D01*
X143700360Y-90725001D01*
X143682964Y-90901628D01*
X143648617Y-91014854D01*
X143631444Y-91071468D01*
X143557349Y-91210088D01*
X143547779Y-91227992D01*
X143518449Y-91263730D01*
X143435187Y-91365187D01*
X143333730Y-91448449D01*
X143297992Y-91477779D01*
X143297990Y-91477780D01*
X143141468Y-91561444D01*
X143084854Y-91578617D01*
X142971628Y-91612964D01*
X142905443Y-91619483D01*
X142839261Y-91626001D01*
X142750741Y-91626001D01*
X142684559Y-91619483D01*
X142618374Y-91612964D01*
X142505148Y-91578617D01*
X142448534Y-91561444D01*
X142292012Y-91477780D01*
X142292010Y-91477779D01*
X142256272Y-91448449D01*
X142154815Y-91365187D01*
X142071553Y-91263730D01*
X142042223Y-91227992D01*
X142032653Y-91210088D01*
X141958558Y-91071468D01*
X141941385Y-91014854D01*
X141907038Y-90901628D01*
X141889642Y-90725001D01*
X141907038Y-90548374D01*
X141958558Y-90378535D01*
X141958558Y-90378534D01*
X142042222Y-90222012D01*
X142042223Y-90222010D01*
X142071553Y-90186272D01*
X142154815Y-90084815D01*
X142256272Y-90001553D01*
X142292010Y-89972223D01*
X142309914Y-89962653D01*
X142448534Y-89888558D01*
X142505148Y-89871385D01*
X142618374Y-89837038D01*
X142684558Y-89830520D01*
X142750741Y-89824001D01*
X142839261Y-89824001D01*
X142905444Y-89830520D01*
X142905444Y-89830520D01*
G37*
G36*
X145445444Y-89830520D02*
X145511628Y-89837038D01*
X145624854Y-89871385D01*
X145681468Y-89888558D01*
X145820088Y-89962653D01*
X145837992Y-89972223D01*
X145873730Y-90001553D01*
X145975187Y-90084815D01*
X146058449Y-90186272D01*
X146087779Y-90222010D01*
X146087780Y-90222012D01*
X146171444Y-90378534D01*
X146171444Y-90378535D01*
X146222964Y-90548374D01*
X146240360Y-90725001D01*
X146222964Y-90901628D01*
X146188617Y-91014854D01*
X146171444Y-91071468D01*
X146097349Y-91210088D01*
X146087779Y-91227992D01*
X146058449Y-91263730D01*
X145975187Y-91365187D01*
X145873730Y-91448449D01*
X145837992Y-91477779D01*
X145837990Y-91477780D01*
X145681468Y-91561444D01*
X145624854Y-91578617D01*
X145511628Y-91612964D01*
X145445444Y-91619482D01*
X145379261Y-91626001D01*
X145290741Y-91626001D01*
X145224559Y-91619483D01*
X145158374Y-91612964D01*
X145045148Y-91578617D01*
X144988534Y-91561444D01*
X144832012Y-91477780D01*
X144832010Y-91477779D01*
X144796272Y-91448449D01*
X144694815Y-91365187D01*
X144611553Y-91263730D01*
X144582223Y-91227992D01*
X144572653Y-91210088D01*
X144498558Y-91071468D01*
X144481385Y-91014854D01*
X144447038Y-90901628D01*
X144429642Y-90725001D01*
X144447038Y-90548374D01*
X144498558Y-90378535D01*
X144498558Y-90378534D01*
X144582222Y-90222012D01*
X144582223Y-90222010D01*
X144611553Y-90186272D01*
X144694815Y-90084815D01*
X144796272Y-90001553D01*
X144832010Y-89972223D01*
X144849914Y-89962653D01*
X144988534Y-89888558D01*
X145045148Y-89871385D01*
X145158374Y-89837038D01*
X145224558Y-89830520D01*
X145290741Y-89824001D01*
X145379261Y-89824001D01*
X145445444Y-89830520D01*
X145445444Y-89830520D01*
G37*
G36*
X142905443Y-87290519D02*
X142971628Y-87297038D01*
X143084854Y-87331385D01*
X143141468Y-87348558D01*
X143280088Y-87422653D01*
X143297992Y-87432223D01*
X143333730Y-87461553D01*
X143435187Y-87544815D01*
X143518449Y-87646272D01*
X143547779Y-87682010D01*
X143547780Y-87682012D01*
X143631444Y-87838534D01*
X143631444Y-87838535D01*
X143682964Y-88008374D01*
X143700360Y-88185001D01*
X143682964Y-88361628D01*
X143648617Y-88474854D01*
X143631444Y-88531468D01*
X143557349Y-88670088D01*
X143547779Y-88687992D01*
X143518449Y-88723730D01*
X143435187Y-88825187D01*
X143333730Y-88908449D01*
X143297992Y-88937779D01*
X143297990Y-88937780D01*
X143141468Y-89021444D01*
X143084854Y-89038617D01*
X142971628Y-89072964D01*
X142905444Y-89079482D01*
X142839261Y-89086001D01*
X142750741Y-89086001D01*
X142684558Y-89079482D01*
X142618374Y-89072964D01*
X142505148Y-89038617D01*
X142448534Y-89021444D01*
X142292012Y-88937780D01*
X142292010Y-88937779D01*
X142256272Y-88908449D01*
X142154815Y-88825187D01*
X142071553Y-88723730D01*
X142042223Y-88687992D01*
X142032653Y-88670088D01*
X141958558Y-88531468D01*
X141941385Y-88474854D01*
X141907038Y-88361628D01*
X141889642Y-88185001D01*
X141907038Y-88008374D01*
X141958558Y-87838535D01*
X141958558Y-87838534D01*
X142042222Y-87682012D01*
X142042223Y-87682010D01*
X142071553Y-87646272D01*
X142154815Y-87544815D01*
X142256272Y-87461553D01*
X142292010Y-87432223D01*
X142309914Y-87422653D01*
X142448534Y-87348558D01*
X142505148Y-87331385D01*
X142618374Y-87297038D01*
X142684559Y-87290519D01*
X142750741Y-87284001D01*
X142839261Y-87284001D01*
X142905443Y-87290519D01*
X142905443Y-87290519D01*
G37*
G36*
X145445443Y-87290519D02*
X145511628Y-87297038D01*
X145624854Y-87331385D01*
X145681468Y-87348558D01*
X145820088Y-87422653D01*
X145837992Y-87432223D01*
X145873730Y-87461553D01*
X145975187Y-87544815D01*
X146058449Y-87646272D01*
X146087779Y-87682010D01*
X146087780Y-87682012D01*
X146171444Y-87838534D01*
X146171444Y-87838535D01*
X146222964Y-88008374D01*
X146240360Y-88185001D01*
X146222964Y-88361628D01*
X146188617Y-88474854D01*
X146171444Y-88531468D01*
X146097349Y-88670088D01*
X146087779Y-88687992D01*
X146058449Y-88723730D01*
X145975187Y-88825187D01*
X145873730Y-88908449D01*
X145837992Y-88937779D01*
X145837990Y-88937780D01*
X145681468Y-89021444D01*
X145624854Y-89038617D01*
X145511628Y-89072964D01*
X145445444Y-89079482D01*
X145379261Y-89086001D01*
X145290741Y-89086001D01*
X145224558Y-89079482D01*
X145158374Y-89072964D01*
X145045148Y-89038617D01*
X144988534Y-89021444D01*
X144832012Y-88937780D01*
X144832010Y-88937779D01*
X144796272Y-88908449D01*
X144694815Y-88825187D01*
X144611553Y-88723730D01*
X144582223Y-88687992D01*
X144572653Y-88670088D01*
X144498558Y-88531468D01*
X144481385Y-88474854D01*
X144447038Y-88361628D01*
X144429642Y-88185001D01*
X144447038Y-88008374D01*
X144498558Y-87838535D01*
X144498558Y-87838534D01*
X144582222Y-87682012D01*
X144582223Y-87682010D01*
X144611553Y-87646272D01*
X144694815Y-87544815D01*
X144796272Y-87461553D01*
X144832010Y-87432223D01*
X144849914Y-87422653D01*
X144988534Y-87348558D01*
X145045148Y-87331385D01*
X145158374Y-87297038D01*
X145224559Y-87290519D01*
X145290741Y-87284001D01*
X145379261Y-87284001D01*
X145445443Y-87290519D01*
X145445443Y-87290519D01*
G37*
G36*
X142905443Y-84750519D02*
X142971628Y-84757038D01*
X143084854Y-84791385D01*
X143141468Y-84808558D01*
X143280088Y-84882653D01*
X143297992Y-84892223D01*
X143333730Y-84921553D01*
X143435187Y-85004815D01*
X143518449Y-85106272D01*
X143547779Y-85142010D01*
X143547780Y-85142012D01*
X143631444Y-85298534D01*
X143631444Y-85298535D01*
X143682964Y-85468374D01*
X143700360Y-85645001D01*
X143682964Y-85821628D01*
X143648617Y-85934854D01*
X143631444Y-85991468D01*
X143557349Y-86130088D01*
X143547779Y-86147992D01*
X143518449Y-86183730D01*
X143435187Y-86285187D01*
X143333730Y-86368449D01*
X143297992Y-86397779D01*
X143297990Y-86397780D01*
X143141468Y-86481444D01*
X143084854Y-86498617D01*
X142971628Y-86532964D01*
X142905443Y-86539483D01*
X142839261Y-86546001D01*
X142750741Y-86546001D01*
X142684559Y-86539483D01*
X142618374Y-86532964D01*
X142505148Y-86498617D01*
X142448534Y-86481444D01*
X142292012Y-86397780D01*
X142292010Y-86397779D01*
X142256272Y-86368449D01*
X142154815Y-86285187D01*
X142071553Y-86183730D01*
X142042223Y-86147992D01*
X142032653Y-86130088D01*
X141958558Y-85991468D01*
X141941385Y-85934854D01*
X141907038Y-85821628D01*
X141889642Y-85645001D01*
X141907038Y-85468374D01*
X141958558Y-85298535D01*
X141958558Y-85298534D01*
X142042222Y-85142012D01*
X142042223Y-85142010D01*
X142071553Y-85106272D01*
X142154815Y-85004815D01*
X142256272Y-84921553D01*
X142292010Y-84892223D01*
X142309914Y-84882653D01*
X142448534Y-84808558D01*
X142505148Y-84791385D01*
X142618374Y-84757038D01*
X142684559Y-84750519D01*
X142750741Y-84744001D01*
X142839261Y-84744001D01*
X142905443Y-84750519D01*
X142905443Y-84750519D01*
G37*
G36*
X145445443Y-84750519D02*
X145511628Y-84757038D01*
X145624854Y-84791385D01*
X145681468Y-84808558D01*
X145820088Y-84882653D01*
X145837992Y-84892223D01*
X145873730Y-84921553D01*
X145975187Y-85004815D01*
X146058449Y-85106272D01*
X146087779Y-85142010D01*
X146087780Y-85142012D01*
X146171444Y-85298534D01*
X146171444Y-85298535D01*
X146222964Y-85468374D01*
X146240360Y-85645001D01*
X146222964Y-85821628D01*
X146188617Y-85934854D01*
X146171444Y-85991468D01*
X146097349Y-86130088D01*
X146087779Y-86147992D01*
X146058449Y-86183730D01*
X145975187Y-86285187D01*
X145873730Y-86368449D01*
X145837992Y-86397779D01*
X145837990Y-86397780D01*
X145681468Y-86481444D01*
X145624854Y-86498617D01*
X145511628Y-86532964D01*
X145445443Y-86539483D01*
X145379261Y-86546001D01*
X145290741Y-86546001D01*
X145224559Y-86539483D01*
X145158374Y-86532964D01*
X145045148Y-86498617D01*
X144988534Y-86481444D01*
X144832012Y-86397780D01*
X144832010Y-86397779D01*
X144796272Y-86368449D01*
X144694815Y-86285187D01*
X144611553Y-86183730D01*
X144582223Y-86147992D01*
X144572653Y-86130088D01*
X144498558Y-85991468D01*
X144481385Y-85934854D01*
X144447038Y-85821628D01*
X144429642Y-85645001D01*
X144447038Y-85468374D01*
X144498558Y-85298535D01*
X144498558Y-85298534D01*
X144582222Y-85142012D01*
X144582223Y-85142010D01*
X144611553Y-85106272D01*
X144694815Y-85004815D01*
X144796272Y-84921553D01*
X144832010Y-84892223D01*
X144849914Y-84882653D01*
X144988534Y-84808558D01*
X145045148Y-84791385D01*
X145158374Y-84757038D01*
X145224559Y-84750519D01*
X145290741Y-84744001D01*
X145379261Y-84744001D01*
X145445443Y-84750519D01*
X145445443Y-84750519D01*
G37*
G36*
X139231821Y-82346313D02*
X139231824Y-82346314D01*
X139231825Y-82346314D01*
X139392239Y-82394975D01*
X139392241Y-82394976D01*
X139392244Y-82394977D01*
X139540078Y-82473995D01*
X139669659Y-82580341D01*
X139776005Y-82709922D01*
X139855023Y-82857756D01*
X139855024Y-82857759D01*
X139855025Y-82857761D01*
X139903686Y-83018175D01*
X139903687Y-83018179D01*
X139920117Y-83185000D01*
X139903687Y-83351821D01*
X139903686Y-83351824D01*
X139903686Y-83351825D01*
X139873460Y-83451468D01*
X139855023Y-83512244D01*
X139776005Y-83660078D01*
X139669659Y-83789659D01*
X139540078Y-83896005D01*
X139392244Y-83975023D01*
X139392241Y-83975024D01*
X139392239Y-83975025D01*
X139231825Y-84023686D01*
X139231824Y-84023686D01*
X139231821Y-84023687D01*
X139106804Y-84036000D01*
X139023196Y-84036000D01*
X138898179Y-84023687D01*
X138898176Y-84023686D01*
X138898175Y-84023686D01*
X138737761Y-83975025D01*
X138737759Y-83975024D01*
X138737756Y-83975023D01*
X138589922Y-83896005D01*
X138460341Y-83789659D01*
X138353995Y-83660078D01*
X138274977Y-83512244D01*
X138256541Y-83451468D01*
X138226314Y-83351825D01*
X138226314Y-83351824D01*
X138226313Y-83351821D01*
X138209883Y-83185000D01*
X138226313Y-83018179D01*
X138226314Y-83018175D01*
X138274975Y-82857761D01*
X138274976Y-82857759D01*
X138274977Y-82857756D01*
X138353995Y-82709922D01*
X138460341Y-82580341D01*
X138589922Y-82473995D01*
X138737756Y-82394977D01*
X138737759Y-82394976D01*
X138737761Y-82394975D01*
X138898175Y-82346314D01*
X138898176Y-82346314D01*
X138898179Y-82346313D01*
X139023196Y-82334000D01*
X139106804Y-82334000D01*
X139231821Y-82346313D01*
X139231821Y-82346313D01*
G37*
G36*
X131611821Y-82346313D02*
X131611824Y-82346314D01*
X131611825Y-82346314D01*
X131772239Y-82394975D01*
X131772241Y-82394976D01*
X131772244Y-82394977D01*
X131920078Y-82473995D01*
X132049659Y-82580341D01*
X132156005Y-82709922D01*
X132235023Y-82857756D01*
X132235024Y-82857759D01*
X132235025Y-82857761D01*
X132283686Y-83018175D01*
X132283687Y-83018179D01*
X132300117Y-83185000D01*
X132283687Y-83351821D01*
X132283686Y-83351824D01*
X132283686Y-83351825D01*
X132253460Y-83451468D01*
X132235023Y-83512244D01*
X132156005Y-83660078D01*
X132049659Y-83789659D01*
X131920078Y-83896005D01*
X131772244Y-83975023D01*
X131772241Y-83975024D01*
X131772239Y-83975025D01*
X131611825Y-84023686D01*
X131611824Y-84023686D01*
X131611821Y-84023687D01*
X131486804Y-84036000D01*
X131403196Y-84036000D01*
X131278179Y-84023687D01*
X131278176Y-84023686D01*
X131278175Y-84023686D01*
X131117761Y-83975025D01*
X131117759Y-83975024D01*
X131117756Y-83975023D01*
X130969922Y-83896005D01*
X130840341Y-83789659D01*
X130733995Y-83660078D01*
X130654977Y-83512244D01*
X130636541Y-83451468D01*
X130606314Y-83351825D01*
X130606314Y-83351824D01*
X130606313Y-83351821D01*
X130589883Y-83185000D01*
X130606313Y-83018179D01*
X130606314Y-83018175D01*
X130654975Y-82857761D01*
X130654976Y-82857759D01*
X130654977Y-82857756D01*
X130733995Y-82709922D01*
X130840341Y-82580341D01*
X130969922Y-82473995D01*
X131117756Y-82394977D01*
X131117759Y-82394976D01*
X131117761Y-82394975D01*
X131278175Y-82346314D01*
X131278176Y-82346314D01*
X131278179Y-82346313D01*
X131403196Y-82334000D01*
X131486804Y-82334000D01*
X131611821Y-82346313D01*
X131611821Y-82346313D01*
G37*
G36*
X145445444Y-82210520D02*
X145511628Y-82217038D01*
X145624854Y-82251385D01*
X145681468Y-82268558D01*
X145820088Y-82342653D01*
X145837992Y-82352223D01*
X145873730Y-82381553D01*
X145975187Y-82464815D01*
X146058449Y-82566272D01*
X146087779Y-82602010D01*
X146087780Y-82602012D01*
X146171444Y-82758534D01*
X146171444Y-82758535D01*
X146222964Y-82928374D01*
X146240360Y-83105001D01*
X146222964Y-83281628D01*
X146201671Y-83351821D01*
X146171444Y-83451468D01*
X146138958Y-83512244D01*
X146087779Y-83607992D01*
X146058449Y-83643730D01*
X145975187Y-83745187D01*
X145873730Y-83828449D01*
X145837992Y-83857779D01*
X145837990Y-83857780D01*
X145681468Y-83941444D01*
X145624854Y-83958617D01*
X145511628Y-83992964D01*
X145445444Y-83999482D01*
X145379261Y-84006001D01*
X145290741Y-84006001D01*
X145224558Y-83999482D01*
X145158374Y-83992964D01*
X145045148Y-83958617D01*
X144988534Y-83941444D01*
X144832012Y-83857780D01*
X144832010Y-83857779D01*
X144796272Y-83828449D01*
X144694815Y-83745187D01*
X144611553Y-83643730D01*
X144582223Y-83607992D01*
X144531044Y-83512244D01*
X144498558Y-83451468D01*
X144468331Y-83351821D01*
X144447038Y-83281628D01*
X144429642Y-83105001D01*
X144447038Y-82928374D01*
X144498558Y-82758535D01*
X144498558Y-82758534D01*
X144582222Y-82602012D01*
X144582223Y-82602010D01*
X144611553Y-82566272D01*
X144694815Y-82464815D01*
X144796272Y-82381553D01*
X144832010Y-82352223D01*
X144849914Y-82342653D01*
X144988534Y-82268558D01*
X145045148Y-82251385D01*
X145158374Y-82217038D01*
X145224558Y-82210520D01*
X145290741Y-82204001D01*
X145379261Y-82204001D01*
X145445444Y-82210520D01*
X145445444Y-82210520D01*
G37*
G36*
X142905444Y-82210520D02*
X142971628Y-82217038D01*
X143084854Y-82251385D01*
X143141468Y-82268558D01*
X143280088Y-82342653D01*
X143297992Y-82352223D01*
X143333730Y-82381553D01*
X143435187Y-82464815D01*
X143518449Y-82566272D01*
X143547779Y-82602010D01*
X143547780Y-82602012D01*
X143631444Y-82758534D01*
X143631444Y-82758535D01*
X143682964Y-82928374D01*
X143700360Y-83105001D01*
X143682964Y-83281628D01*
X143661671Y-83351821D01*
X143631444Y-83451468D01*
X143598958Y-83512244D01*
X143547779Y-83607992D01*
X143518449Y-83643730D01*
X143435187Y-83745187D01*
X143333730Y-83828449D01*
X143297992Y-83857779D01*
X143297990Y-83857780D01*
X143141468Y-83941444D01*
X143084854Y-83958617D01*
X142971628Y-83992964D01*
X142905444Y-83999482D01*
X142839261Y-84006001D01*
X142750741Y-84006001D01*
X142684558Y-83999482D01*
X142618374Y-83992964D01*
X142505148Y-83958617D01*
X142448534Y-83941444D01*
X142292012Y-83857780D01*
X142292010Y-83857779D01*
X142256272Y-83828449D01*
X142154815Y-83745187D01*
X142071553Y-83643730D01*
X142042223Y-83607992D01*
X141991044Y-83512244D01*
X141958558Y-83451468D01*
X141928331Y-83351821D01*
X141907038Y-83281628D01*
X141889642Y-83105001D01*
X141907038Y-82928374D01*
X141958558Y-82758535D01*
X141958558Y-82758534D01*
X142042222Y-82602012D01*
X142042223Y-82602010D01*
X142071553Y-82566272D01*
X142154815Y-82464815D01*
X142256272Y-82381553D01*
X142292010Y-82352223D01*
X142309914Y-82342653D01*
X142448534Y-82268558D01*
X142505148Y-82251385D01*
X142618374Y-82217038D01*
X142684558Y-82210520D01*
X142750741Y-82204001D01*
X142839261Y-82204001D01*
X142905444Y-82210520D01*
X142905444Y-82210520D01*
G37*
G36*
X132296000Y-81496000D02*
X130594000Y-81496000D01*
X130594000Y-79794000D01*
X132296000Y-79794000D01*
X132296000Y-81496000D01*
X132296000Y-81496000D01*
G37*
G36*
X139231821Y-79806313D02*
X139231824Y-79806314D01*
X139231825Y-79806314D01*
X139392239Y-79854975D01*
X139392241Y-79854976D01*
X139392244Y-79854977D01*
X139540078Y-79933995D01*
X139669659Y-80040341D01*
X139776005Y-80169922D01*
X139855023Y-80317756D01*
X139855024Y-80317759D01*
X139855025Y-80317761D01*
X139903686Y-80478175D01*
X139903687Y-80478179D01*
X139920117Y-80645000D01*
X139903687Y-80811821D01*
X139903686Y-80811824D01*
X139903686Y-80811825D01*
X139873460Y-80911468D01*
X139855023Y-80972244D01*
X139776005Y-81120078D01*
X139669659Y-81249659D01*
X139540078Y-81356005D01*
X139392244Y-81435023D01*
X139392241Y-81435024D01*
X139392239Y-81435025D01*
X139231825Y-81483686D01*
X139231824Y-81483686D01*
X139231821Y-81483687D01*
X139106804Y-81496000D01*
X139023196Y-81496000D01*
X138898179Y-81483687D01*
X138898176Y-81483686D01*
X138898175Y-81483686D01*
X138737761Y-81435025D01*
X138737759Y-81435024D01*
X138737756Y-81435023D01*
X138589922Y-81356005D01*
X138460341Y-81249659D01*
X138353995Y-81120078D01*
X138274977Y-80972244D01*
X138256541Y-80911468D01*
X138226314Y-80811825D01*
X138226314Y-80811824D01*
X138226313Y-80811821D01*
X138209883Y-80645000D01*
X138226313Y-80478179D01*
X138226314Y-80478175D01*
X138274975Y-80317761D01*
X138274976Y-80317759D01*
X138274977Y-80317756D01*
X138353995Y-80169922D01*
X138460341Y-80040341D01*
X138589922Y-79933995D01*
X138737756Y-79854977D01*
X138737759Y-79854976D01*
X138737761Y-79854975D01*
X138898175Y-79806314D01*
X138898176Y-79806314D01*
X138898179Y-79806313D01*
X139023196Y-79794000D01*
X139106804Y-79794000D01*
X139231821Y-79806313D01*
X139231821Y-79806313D01*
G37*
G36*
X142905444Y-79670520D02*
X142971628Y-79677038D01*
X143084854Y-79711385D01*
X143141468Y-79728558D01*
X143280088Y-79802653D01*
X143297992Y-79812223D01*
X143333730Y-79841553D01*
X143435187Y-79924815D01*
X143518449Y-80026272D01*
X143547779Y-80062010D01*
X143547780Y-80062012D01*
X143631444Y-80218534D01*
X143631444Y-80218535D01*
X143682964Y-80388374D01*
X143700360Y-80565001D01*
X143682964Y-80741628D01*
X143661671Y-80811821D01*
X143631444Y-80911468D01*
X143598958Y-80972244D01*
X143547779Y-81067992D01*
X143518449Y-81103730D01*
X143435187Y-81205187D01*
X143333730Y-81288449D01*
X143297992Y-81317779D01*
X143297990Y-81317780D01*
X143141468Y-81401444D01*
X143084854Y-81418617D01*
X142971628Y-81452964D01*
X142905444Y-81459482D01*
X142839261Y-81466001D01*
X142750741Y-81466001D01*
X142684558Y-81459482D01*
X142618374Y-81452964D01*
X142505148Y-81418617D01*
X142448534Y-81401444D01*
X142292012Y-81317780D01*
X142292010Y-81317779D01*
X142256272Y-81288449D01*
X142154815Y-81205187D01*
X142071553Y-81103730D01*
X142042223Y-81067992D01*
X141991044Y-80972244D01*
X141958558Y-80911468D01*
X141928331Y-80811821D01*
X141907038Y-80741628D01*
X141889642Y-80565001D01*
X141907038Y-80388374D01*
X141958558Y-80218535D01*
X141958558Y-80218534D01*
X142042222Y-80062012D01*
X142042223Y-80062010D01*
X142071553Y-80026272D01*
X142154815Y-79924815D01*
X142256272Y-79841553D01*
X142292010Y-79812223D01*
X142309914Y-79802653D01*
X142448534Y-79728558D01*
X142505148Y-79711385D01*
X142618374Y-79677038D01*
X142684558Y-79670520D01*
X142750741Y-79664001D01*
X142839261Y-79664001D01*
X142905444Y-79670520D01*
X142905444Y-79670520D01*
G37*
G36*
X145445444Y-79670520D02*
X145511628Y-79677038D01*
X145624854Y-79711385D01*
X145681468Y-79728558D01*
X145820088Y-79802653D01*
X145837992Y-79812223D01*
X145873730Y-79841553D01*
X145975187Y-79924815D01*
X146058449Y-80026272D01*
X146087779Y-80062010D01*
X146087780Y-80062012D01*
X146171444Y-80218534D01*
X146171444Y-80218535D01*
X146222964Y-80388374D01*
X146240360Y-80565001D01*
X146222964Y-80741628D01*
X146201671Y-80811821D01*
X146171444Y-80911468D01*
X146138958Y-80972244D01*
X146087779Y-81067992D01*
X146058449Y-81103730D01*
X145975187Y-81205187D01*
X145873730Y-81288449D01*
X145837992Y-81317779D01*
X145837990Y-81317780D01*
X145681468Y-81401444D01*
X145624854Y-81418617D01*
X145511628Y-81452964D01*
X145445444Y-81459482D01*
X145379261Y-81466001D01*
X145290741Y-81466001D01*
X145224558Y-81459482D01*
X145158374Y-81452964D01*
X145045148Y-81418617D01*
X144988534Y-81401444D01*
X144832012Y-81317780D01*
X144832010Y-81317779D01*
X144796272Y-81288449D01*
X144694815Y-81205187D01*
X144611553Y-81103730D01*
X144582223Y-81067992D01*
X144531044Y-80972244D01*
X144498558Y-80911468D01*
X144468331Y-80811821D01*
X144447038Y-80741628D01*
X144429642Y-80565001D01*
X144447038Y-80388374D01*
X144498558Y-80218535D01*
X144498558Y-80218534D01*
X144582222Y-80062012D01*
X144582223Y-80062010D01*
X144611553Y-80026272D01*
X144694815Y-79924815D01*
X144796272Y-79841553D01*
X144832010Y-79812223D01*
X144849914Y-79802653D01*
X144988534Y-79728558D01*
X145045148Y-79711385D01*
X145158374Y-79677038D01*
X145224558Y-79670520D01*
X145290741Y-79664001D01*
X145379261Y-79664001D01*
X145445444Y-79670520D01*
X145445444Y-79670520D01*
G37*
G36*
X128223677Y-78118465D02*
X128261364Y-78129898D01*
X128296103Y-78148466D01*
X128326548Y-78173452D01*
X128351534Y-78203897D01*
X128370102Y-78238636D01*
X128381535Y-78276323D01*
X128386000Y-78321661D01*
X128386000Y-79158339D01*
X128381535Y-79203677D01*
X128370102Y-79241364D01*
X128351534Y-79276103D01*
X128326548Y-79306548D01*
X128296103Y-79331534D01*
X128261364Y-79350102D01*
X128223677Y-79361535D01*
X128178339Y-79366000D01*
X127091661Y-79366000D01*
X127046323Y-79361535D01*
X127008636Y-79350102D01*
X126973897Y-79331534D01*
X126943452Y-79306548D01*
X126918466Y-79276103D01*
X126899898Y-79241364D01*
X126888465Y-79203677D01*
X126884000Y-79158339D01*
X126884000Y-78321661D01*
X126888465Y-78276323D01*
X126899898Y-78238636D01*
X126918466Y-78203897D01*
X126943452Y-78173452D01*
X126973897Y-78148466D01*
X127008636Y-78129898D01*
X127046323Y-78118465D01*
X127091661Y-78114000D01*
X128178339Y-78114000D01*
X128223677Y-78118465D01*
X128223677Y-78118465D01*
G37*
G36*
X142905444Y-77130520D02*
X142971628Y-77137038D01*
X143078532Y-77169467D01*
X143141468Y-77188558D01*
X143268666Y-77256548D01*
X143297992Y-77272223D01*
X143326089Y-77295282D01*
X143435187Y-77384815D01*
X143518449Y-77486272D01*
X143547779Y-77522010D01*
X143547780Y-77522012D01*
X143631444Y-77678534D01*
X143631444Y-77678535D01*
X143682964Y-77848374D01*
X143700360Y-78025001D01*
X143682964Y-78201628D01*
X143658578Y-78282017D01*
X143631444Y-78371468D01*
X143557349Y-78510088D01*
X143547779Y-78527992D01*
X143518449Y-78563730D01*
X143435187Y-78665187D01*
X143333730Y-78748449D01*
X143297992Y-78777779D01*
X143297990Y-78777780D01*
X143141468Y-78861444D01*
X143084854Y-78878617D01*
X142971628Y-78912964D01*
X142905444Y-78919482D01*
X142839261Y-78926001D01*
X142750741Y-78926001D01*
X142684558Y-78919482D01*
X142618374Y-78912964D01*
X142505148Y-78878617D01*
X142448534Y-78861444D01*
X142292012Y-78777780D01*
X142292010Y-78777779D01*
X142256272Y-78748449D01*
X142154815Y-78665187D01*
X142071553Y-78563730D01*
X142042223Y-78527992D01*
X142032653Y-78510088D01*
X141958558Y-78371468D01*
X141931424Y-78282017D01*
X141907038Y-78201628D01*
X141889642Y-78025001D01*
X141907038Y-77848374D01*
X141958558Y-77678535D01*
X141958558Y-77678534D01*
X142042222Y-77522012D01*
X142042223Y-77522010D01*
X142071553Y-77486272D01*
X142154815Y-77384815D01*
X142263913Y-77295282D01*
X142292010Y-77272223D01*
X142321336Y-77256548D01*
X142448534Y-77188558D01*
X142511470Y-77169467D01*
X142618374Y-77137038D01*
X142684558Y-77130520D01*
X142750741Y-77124001D01*
X142839261Y-77124001D01*
X142905444Y-77130520D01*
X142905444Y-77130520D01*
G37*
G36*
X145445444Y-77130520D02*
X145511628Y-77137038D01*
X145618532Y-77169467D01*
X145681468Y-77188558D01*
X145808666Y-77256548D01*
X145837992Y-77272223D01*
X145866089Y-77295282D01*
X145975187Y-77384815D01*
X146058449Y-77486272D01*
X146087779Y-77522010D01*
X146087780Y-77522012D01*
X146171444Y-77678534D01*
X146171444Y-77678535D01*
X146222964Y-77848374D01*
X146240360Y-78025001D01*
X146222964Y-78201628D01*
X146198578Y-78282017D01*
X146171444Y-78371468D01*
X146097349Y-78510088D01*
X146087779Y-78527992D01*
X146058449Y-78563730D01*
X145975187Y-78665187D01*
X145873730Y-78748449D01*
X145837992Y-78777779D01*
X145837990Y-78777780D01*
X145681468Y-78861444D01*
X145624854Y-78878617D01*
X145511628Y-78912964D01*
X145445444Y-78919482D01*
X145379261Y-78926001D01*
X145290741Y-78926001D01*
X145224558Y-78919482D01*
X145158374Y-78912964D01*
X145045148Y-78878617D01*
X144988534Y-78861444D01*
X144832012Y-78777780D01*
X144832010Y-78777779D01*
X144796272Y-78748449D01*
X144694815Y-78665187D01*
X144611553Y-78563730D01*
X144582223Y-78527992D01*
X144572653Y-78510088D01*
X144498558Y-78371468D01*
X144471424Y-78282017D01*
X144447038Y-78201628D01*
X144429642Y-78025001D01*
X144447038Y-77848374D01*
X144498558Y-77678535D01*
X144498558Y-77678534D01*
X144582222Y-77522012D01*
X144582223Y-77522010D01*
X144611553Y-77486272D01*
X144694815Y-77384815D01*
X144803913Y-77295282D01*
X144832010Y-77272223D01*
X144861336Y-77256548D01*
X144988534Y-77188558D01*
X145051470Y-77169467D01*
X145158374Y-77137038D01*
X145224558Y-77130520D01*
X145290741Y-77124001D01*
X145379261Y-77124001D01*
X145445444Y-77130520D01*
X145445444Y-77130520D01*
G37*
G36*
X137864466Y-75838566D02*
X137903137Y-75850297D01*
X137938779Y-75869349D01*
X137970017Y-75894984D01*
X137995652Y-75926222D01*
X138014704Y-75961864D01*
X138026435Y-76000535D01*
X138031000Y-76046889D01*
X138031000Y-77123113D01*
X138026435Y-77169467D01*
X138014704Y-77208138D01*
X137995652Y-77243780D01*
X137970017Y-77275018D01*
X137938779Y-77300653D01*
X137903137Y-77319705D01*
X137864466Y-77331436D01*
X137818112Y-77336001D01*
X137166888Y-77336001D01*
X137120534Y-77331436D01*
X137081863Y-77319705D01*
X137046221Y-77300653D01*
X137014983Y-77275018D01*
X136989348Y-77243780D01*
X136970296Y-77208138D01*
X136958565Y-77169467D01*
X136954000Y-77123113D01*
X136954000Y-76046889D01*
X136958565Y-76000535D01*
X136970296Y-75961864D01*
X136989348Y-75926222D01*
X137014983Y-75894984D01*
X137046221Y-75869349D01*
X137081863Y-75850297D01*
X137120534Y-75838566D01*
X137166888Y-75834001D01*
X137818112Y-75834001D01*
X137864466Y-75838566D01*
X137864466Y-75838566D01*
G37*
G36*
X139739466Y-75838566D02*
X139778137Y-75850297D01*
X139813779Y-75869349D01*
X139845017Y-75894984D01*
X139870652Y-75926222D01*
X139889704Y-75961864D01*
X139901435Y-76000535D01*
X139906000Y-76046889D01*
X139906000Y-77123113D01*
X139901435Y-77169467D01*
X139889704Y-77208138D01*
X139870652Y-77243780D01*
X139845017Y-77275018D01*
X139813779Y-77300653D01*
X139778137Y-77319705D01*
X139739466Y-77331436D01*
X139693112Y-77336001D01*
X139041888Y-77336001D01*
X138995534Y-77331436D01*
X138956863Y-77319705D01*
X138921221Y-77300653D01*
X138889983Y-77275018D01*
X138864348Y-77243780D01*
X138845296Y-77208138D01*
X138833565Y-77169467D01*
X138829000Y-77123113D01*
X138829000Y-76046889D01*
X138833565Y-76000535D01*
X138845296Y-75961864D01*
X138864348Y-75926222D01*
X138889983Y-75894984D01*
X138921221Y-75869349D01*
X138956863Y-75850297D01*
X138995534Y-75838566D01*
X139041888Y-75834001D01*
X139693112Y-75834001D01*
X139739466Y-75838566D01*
X139739466Y-75838566D01*
G37*
G36*
X128223677Y-76068465D02*
X128261364Y-76079898D01*
X128296103Y-76098466D01*
X128326548Y-76123452D01*
X128351534Y-76153897D01*
X128370102Y-76188636D01*
X128381535Y-76226323D01*
X128386000Y-76271661D01*
X128386000Y-77108339D01*
X128381535Y-77153677D01*
X128370102Y-77191364D01*
X128351534Y-77226103D01*
X128326548Y-77256548D01*
X128296103Y-77281534D01*
X128261364Y-77300102D01*
X128223677Y-77311535D01*
X128178339Y-77316000D01*
X127091661Y-77316000D01*
X127046323Y-77311535D01*
X127008636Y-77300102D01*
X126973897Y-77281534D01*
X126943452Y-77256548D01*
X126918466Y-77226103D01*
X126899898Y-77191364D01*
X126888465Y-77153677D01*
X126884000Y-77108339D01*
X126884000Y-76271661D01*
X126888465Y-76226323D01*
X126899898Y-76188636D01*
X126918466Y-76153897D01*
X126943452Y-76123452D01*
X126973897Y-76098466D01*
X127008636Y-76079898D01*
X127046323Y-76068465D01*
X127091661Y-76064000D01*
X128178339Y-76064000D01*
X128223677Y-76068465D01*
X128223677Y-76068465D01*
G37*
G36*
X142905443Y-74590519D02*
X142971628Y-74597038D01*
X143084854Y-74631385D01*
X143141468Y-74648558D01*
X143280088Y-74722653D01*
X143297992Y-74732223D01*
X143333730Y-74761553D01*
X143435187Y-74844815D01*
X143518449Y-74946272D01*
X143547779Y-74982010D01*
X143547780Y-74982012D01*
X143631444Y-75138534D01*
X143631444Y-75138535D01*
X143682964Y-75308374D01*
X143700360Y-75485001D01*
X143682964Y-75661628D01*
X143648617Y-75774854D01*
X143631444Y-75831468D01*
X143605835Y-75879378D01*
X143547779Y-75987992D01*
X143537749Y-76000213D01*
X143435187Y-76125187D01*
X143333730Y-76208449D01*
X143297992Y-76237779D01*
X143297990Y-76237780D01*
X143141468Y-76321444D01*
X143092912Y-76336173D01*
X142971628Y-76372964D01*
X142905443Y-76379483D01*
X142839261Y-76386001D01*
X142750741Y-76386001D01*
X142684559Y-76379483D01*
X142618374Y-76372964D01*
X142497090Y-76336173D01*
X142448534Y-76321444D01*
X142292012Y-76237780D01*
X142292010Y-76237779D01*
X142256272Y-76208449D01*
X142154815Y-76125187D01*
X142052253Y-76000213D01*
X142042223Y-75987992D01*
X141984167Y-75879378D01*
X141958558Y-75831468D01*
X141941385Y-75774854D01*
X141907038Y-75661628D01*
X141889642Y-75485001D01*
X141907038Y-75308374D01*
X141958558Y-75138535D01*
X141958558Y-75138534D01*
X142042222Y-74982012D01*
X142042223Y-74982010D01*
X142071553Y-74946272D01*
X142154815Y-74844815D01*
X142256272Y-74761553D01*
X142292010Y-74732223D01*
X142309914Y-74722653D01*
X142448534Y-74648558D01*
X142505148Y-74631385D01*
X142618374Y-74597038D01*
X142684559Y-74590519D01*
X142750741Y-74584001D01*
X142839261Y-74584001D01*
X142905443Y-74590519D01*
X142905443Y-74590519D01*
G37*
G36*
X145445443Y-74590519D02*
X145511628Y-74597038D01*
X145624854Y-74631385D01*
X145681468Y-74648558D01*
X145820088Y-74722653D01*
X145837992Y-74732223D01*
X145873730Y-74761553D01*
X145975187Y-74844815D01*
X146058449Y-74946272D01*
X146087779Y-74982010D01*
X146087780Y-74982012D01*
X146171444Y-75138534D01*
X146171444Y-75138535D01*
X146222964Y-75308374D01*
X146240360Y-75485001D01*
X146222964Y-75661628D01*
X146188617Y-75774854D01*
X146171444Y-75831468D01*
X146145835Y-75879378D01*
X146087779Y-75987992D01*
X146077749Y-76000213D01*
X145975187Y-76125187D01*
X145873730Y-76208449D01*
X145837992Y-76237779D01*
X145837990Y-76237780D01*
X145681468Y-76321444D01*
X145632912Y-76336173D01*
X145511628Y-76372964D01*
X145445443Y-76379483D01*
X145379261Y-76386001D01*
X145290741Y-76386001D01*
X145224559Y-76379483D01*
X145158374Y-76372964D01*
X145037090Y-76336173D01*
X144988534Y-76321444D01*
X144832012Y-76237780D01*
X144832010Y-76237779D01*
X144796272Y-76208449D01*
X144694815Y-76125187D01*
X144592253Y-76000213D01*
X144582223Y-75987992D01*
X144524167Y-75879378D01*
X144498558Y-75831468D01*
X144481385Y-75774854D01*
X144447038Y-75661628D01*
X144429642Y-75485001D01*
X144447038Y-75308374D01*
X144498558Y-75138535D01*
X144498558Y-75138534D01*
X144582222Y-74982012D01*
X144582223Y-74982010D01*
X144611553Y-74946272D01*
X144694815Y-74844815D01*
X144796272Y-74761553D01*
X144832010Y-74732223D01*
X144849914Y-74722653D01*
X144988534Y-74648558D01*
X145045148Y-74631385D01*
X145158374Y-74597038D01*
X145224559Y-74590519D01*
X145290741Y-74584001D01*
X145379261Y-74584001D01*
X145445443Y-74590519D01*
X145445443Y-74590519D01*
G37*
G36*
X145445444Y-72050520D02*
X145511628Y-72057038D01*
X145624854Y-72091385D01*
X145681468Y-72108558D01*
X145820088Y-72182653D01*
X145837992Y-72192223D01*
X145873730Y-72221553D01*
X145975187Y-72304815D01*
X146045095Y-72390000D01*
X146087779Y-72442010D01*
X146087780Y-72442012D01*
X146171444Y-72598534D01*
X146171444Y-72598535D01*
X146222964Y-72768374D01*
X146240360Y-72945001D01*
X146222964Y-73121628D01*
X146205250Y-73180023D01*
X146171444Y-73291468D01*
X146097349Y-73430088D01*
X146087779Y-73447992D01*
X146058449Y-73483730D01*
X145975187Y-73585187D01*
X145873730Y-73668449D01*
X145837992Y-73697779D01*
X145837990Y-73697780D01*
X145681468Y-73781444D01*
X145624854Y-73798617D01*
X145511628Y-73832964D01*
X145445443Y-73839483D01*
X145379261Y-73846001D01*
X145290741Y-73846001D01*
X145224559Y-73839483D01*
X145158374Y-73832964D01*
X145045148Y-73798617D01*
X144988534Y-73781444D01*
X144832012Y-73697780D01*
X144832010Y-73697779D01*
X144796272Y-73668449D01*
X144694815Y-73585187D01*
X144611553Y-73483730D01*
X144582223Y-73447992D01*
X144572653Y-73430088D01*
X144498558Y-73291468D01*
X144464752Y-73180023D01*
X144447038Y-73121628D01*
X144429642Y-72945001D01*
X144447038Y-72768374D01*
X144498558Y-72598535D01*
X144498558Y-72598534D01*
X144582222Y-72442012D01*
X144582223Y-72442010D01*
X144624907Y-72390000D01*
X144694815Y-72304815D01*
X144796272Y-72221553D01*
X144832010Y-72192223D01*
X144849914Y-72182653D01*
X144988534Y-72108558D01*
X145045148Y-72091385D01*
X145158374Y-72057038D01*
X145224558Y-72050520D01*
X145290741Y-72044001D01*
X145379261Y-72044001D01*
X145445444Y-72050520D01*
X145445444Y-72050520D01*
G37*
G36*
X142905444Y-72050520D02*
X142971628Y-72057038D01*
X143084854Y-72091385D01*
X143141468Y-72108558D01*
X143280088Y-72182653D01*
X143297992Y-72192223D01*
X143333730Y-72221553D01*
X143435187Y-72304815D01*
X143505095Y-72390000D01*
X143547779Y-72442010D01*
X143547780Y-72442012D01*
X143631444Y-72598534D01*
X143631444Y-72598535D01*
X143682964Y-72768374D01*
X143700360Y-72945001D01*
X143682964Y-73121628D01*
X143665250Y-73180023D01*
X143631444Y-73291468D01*
X143557349Y-73430088D01*
X143547779Y-73447992D01*
X143518449Y-73483730D01*
X143435187Y-73585187D01*
X143333730Y-73668449D01*
X143297992Y-73697779D01*
X143297990Y-73697780D01*
X143141468Y-73781444D01*
X143084854Y-73798617D01*
X142971628Y-73832964D01*
X142905443Y-73839483D01*
X142839261Y-73846001D01*
X142750741Y-73846001D01*
X142684559Y-73839483D01*
X142618374Y-73832964D01*
X142505148Y-73798617D01*
X142448534Y-73781444D01*
X142292012Y-73697780D01*
X142292010Y-73697779D01*
X142256272Y-73668449D01*
X142154815Y-73585187D01*
X142071553Y-73483730D01*
X142042223Y-73447992D01*
X142032653Y-73430088D01*
X141958558Y-73291468D01*
X141924752Y-73180023D01*
X141907038Y-73121628D01*
X141889642Y-72945001D01*
X141907038Y-72768374D01*
X141958558Y-72598535D01*
X141958558Y-72598534D01*
X142042222Y-72442012D01*
X142042223Y-72442010D01*
X142084907Y-72390000D01*
X142154815Y-72304815D01*
X142256272Y-72221553D01*
X142292010Y-72192223D01*
X142309914Y-72182653D01*
X142448534Y-72108558D01*
X142505148Y-72091385D01*
X142618374Y-72057038D01*
X142684558Y-72050520D01*
X142750741Y-72044001D01*
X142839261Y-72044001D01*
X142905444Y-72050520D01*
X142905444Y-72050520D01*
G37*
G36*
X139231821Y-71551313D02*
X139231824Y-71551314D01*
X139231825Y-71551314D01*
X139392239Y-71599975D01*
X139392241Y-71599976D01*
X139392244Y-71599977D01*
X139540078Y-71678995D01*
X139669659Y-71785341D01*
X139776005Y-71914922D01*
X139855023Y-72062756D01*
X139855024Y-72062759D01*
X139855025Y-72062761D01*
X139894297Y-72192223D01*
X139903687Y-72223179D01*
X139920117Y-72390000D01*
X139903687Y-72556821D01*
X139903686Y-72556824D01*
X139903686Y-72556825D01*
X139891034Y-72598534D01*
X139855023Y-72717244D01*
X139776005Y-72865078D01*
X139669659Y-72994659D01*
X139540078Y-73101005D01*
X139392244Y-73180023D01*
X139392241Y-73180024D01*
X139392239Y-73180025D01*
X139231825Y-73228686D01*
X139231824Y-73228686D01*
X139231821Y-73228687D01*
X139106804Y-73241000D01*
X139023196Y-73241000D01*
X138898179Y-73228687D01*
X138898176Y-73228686D01*
X138898175Y-73228686D01*
X138737761Y-73180025D01*
X138737759Y-73180024D01*
X138737756Y-73180023D01*
X138589922Y-73101005D01*
X138460341Y-72994659D01*
X138353995Y-72865078D01*
X138274977Y-72717244D01*
X138238967Y-72598534D01*
X138226314Y-72556825D01*
X138226314Y-72556824D01*
X138226313Y-72556821D01*
X138209883Y-72390000D01*
X138226313Y-72223179D01*
X138235703Y-72192223D01*
X138274975Y-72062761D01*
X138274976Y-72062759D01*
X138274977Y-72062756D01*
X138353995Y-71914922D01*
X138460341Y-71785341D01*
X138589922Y-71678995D01*
X138737756Y-71599977D01*
X138737759Y-71599976D01*
X138737761Y-71599975D01*
X138898175Y-71551314D01*
X138898176Y-71551314D01*
X138898179Y-71551313D01*
X139023196Y-71539000D01*
X139106804Y-71539000D01*
X139231821Y-71551313D01*
X139231821Y-71551313D01*
G37*
G36*
X131611821Y-71551313D02*
X131611824Y-71551314D01*
X131611825Y-71551314D01*
X131772239Y-71599975D01*
X131772241Y-71599976D01*
X131772244Y-71599977D01*
X131920078Y-71678995D01*
X132049659Y-71785341D01*
X132156005Y-71914922D01*
X132235023Y-72062756D01*
X132235024Y-72062759D01*
X132235025Y-72062761D01*
X132274297Y-72192223D01*
X132283687Y-72223179D01*
X132300117Y-72390000D01*
X132283687Y-72556821D01*
X132283686Y-72556824D01*
X132283686Y-72556825D01*
X132271034Y-72598534D01*
X132235023Y-72717244D01*
X132156005Y-72865078D01*
X132049659Y-72994659D01*
X131920078Y-73101005D01*
X131772244Y-73180023D01*
X131772241Y-73180024D01*
X131772239Y-73180025D01*
X131611825Y-73228686D01*
X131611824Y-73228686D01*
X131611821Y-73228687D01*
X131486804Y-73241000D01*
X131403196Y-73241000D01*
X131278179Y-73228687D01*
X131278176Y-73228686D01*
X131278175Y-73228686D01*
X131117761Y-73180025D01*
X131117759Y-73180024D01*
X131117756Y-73180023D01*
X130969922Y-73101005D01*
X130840341Y-72994659D01*
X130733995Y-72865078D01*
X130654977Y-72717244D01*
X130618967Y-72598534D01*
X130606314Y-72556825D01*
X130606314Y-72556824D01*
X130606313Y-72556821D01*
X130589883Y-72390000D01*
X130606313Y-72223179D01*
X130615703Y-72192223D01*
X130654975Y-72062761D01*
X130654976Y-72062759D01*
X130654977Y-72062756D01*
X130733995Y-71914922D01*
X130840341Y-71785341D01*
X130969922Y-71678995D01*
X131117756Y-71599977D01*
X131117759Y-71599976D01*
X131117761Y-71599975D01*
X131278175Y-71551314D01*
X131278176Y-71551314D01*
X131278179Y-71551313D01*
X131403196Y-71539000D01*
X131486804Y-71539000D01*
X131611821Y-71551313D01*
X131611821Y-71551313D01*
G37*
G36*
X145445443Y-69510519D02*
X145511628Y-69517038D01*
X145624854Y-69551385D01*
X145681468Y-69568558D01*
X145820088Y-69642653D01*
X145837992Y-69652223D01*
X145873730Y-69681553D01*
X145975187Y-69764815D01*
X146045095Y-69850000D01*
X146087779Y-69902010D01*
X146087780Y-69902012D01*
X146171444Y-70058534D01*
X146171444Y-70058535D01*
X146222964Y-70228374D01*
X146240360Y-70405001D01*
X146222964Y-70581628D01*
X146205250Y-70640023D01*
X146171444Y-70751468D01*
X146097349Y-70890088D01*
X146087779Y-70907992D01*
X146058449Y-70943730D01*
X145975187Y-71045187D01*
X145873730Y-71128449D01*
X145837992Y-71157779D01*
X145837990Y-71157780D01*
X145681468Y-71241444D01*
X145624854Y-71258617D01*
X145511628Y-71292964D01*
X145445444Y-71299482D01*
X145379261Y-71306001D01*
X145290741Y-71306001D01*
X145224558Y-71299482D01*
X145158374Y-71292964D01*
X145045148Y-71258617D01*
X144988534Y-71241444D01*
X144832012Y-71157780D01*
X144832010Y-71157779D01*
X144796272Y-71128449D01*
X144694815Y-71045187D01*
X144611553Y-70943730D01*
X144582223Y-70907992D01*
X144572653Y-70890088D01*
X144498558Y-70751468D01*
X144464752Y-70640023D01*
X144447038Y-70581628D01*
X144429642Y-70405001D01*
X144447038Y-70228374D01*
X144498558Y-70058535D01*
X144498558Y-70058534D01*
X144582222Y-69902012D01*
X144582223Y-69902010D01*
X144624907Y-69850000D01*
X144694815Y-69764815D01*
X144796272Y-69681553D01*
X144832010Y-69652223D01*
X144849914Y-69642653D01*
X144988534Y-69568558D01*
X145045148Y-69551385D01*
X145158374Y-69517038D01*
X145224559Y-69510519D01*
X145290741Y-69504001D01*
X145379261Y-69504001D01*
X145445443Y-69510519D01*
X145445443Y-69510519D01*
G37*
G36*
X142905443Y-69510519D02*
X142971628Y-69517038D01*
X143084854Y-69551385D01*
X143141468Y-69568558D01*
X143280088Y-69642653D01*
X143297992Y-69652223D01*
X143333730Y-69681553D01*
X143435187Y-69764815D01*
X143505095Y-69850000D01*
X143547779Y-69902010D01*
X143547780Y-69902012D01*
X143631444Y-70058534D01*
X143631444Y-70058535D01*
X143682964Y-70228374D01*
X143700360Y-70405001D01*
X143682964Y-70581628D01*
X143665250Y-70640023D01*
X143631444Y-70751468D01*
X143557349Y-70890088D01*
X143547779Y-70907992D01*
X143518449Y-70943730D01*
X143435187Y-71045187D01*
X143333730Y-71128449D01*
X143297992Y-71157779D01*
X143297990Y-71157780D01*
X143141468Y-71241444D01*
X143084854Y-71258617D01*
X142971628Y-71292964D01*
X142905444Y-71299482D01*
X142839261Y-71306001D01*
X142750741Y-71306001D01*
X142684558Y-71299482D01*
X142618374Y-71292964D01*
X142505148Y-71258617D01*
X142448534Y-71241444D01*
X142292012Y-71157780D01*
X142292010Y-71157779D01*
X142256272Y-71128449D01*
X142154815Y-71045187D01*
X142071553Y-70943730D01*
X142042223Y-70907992D01*
X142032653Y-70890088D01*
X141958558Y-70751468D01*
X141924752Y-70640023D01*
X141907038Y-70581628D01*
X141889642Y-70405001D01*
X141907038Y-70228374D01*
X141958558Y-70058535D01*
X141958558Y-70058534D01*
X142042222Y-69902012D01*
X142042223Y-69902010D01*
X142084907Y-69850000D01*
X142154815Y-69764815D01*
X142256272Y-69681553D01*
X142292010Y-69652223D01*
X142309914Y-69642653D01*
X142448534Y-69568558D01*
X142505148Y-69551385D01*
X142618374Y-69517038D01*
X142684559Y-69510519D01*
X142750741Y-69504001D01*
X142839261Y-69504001D01*
X142905443Y-69510519D01*
X142905443Y-69510519D01*
G37*
G36*
X139231821Y-69011313D02*
X139231824Y-69011314D01*
X139231825Y-69011314D01*
X139392239Y-69059975D01*
X139392241Y-69059976D01*
X139392244Y-69059977D01*
X139540078Y-69138995D01*
X139669659Y-69245341D01*
X139776005Y-69374922D01*
X139855023Y-69522756D01*
X139855024Y-69522759D01*
X139855025Y-69522761D01*
X139894297Y-69652223D01*
X139903687Y-69683179D01*
X139920117Y-69850000D01*
X139903687Y-70016821D01*
X139903686Y-70016824D01*
X139903686Y-70016825D01*
X139891034Y-70058534D01*
X139855023Y-70177244D01*
X139776005Y-70325078D01*
X139669659Y-70454659D01*
X139540078Y-70561005D01*
X139392244Y-70640023D01*
X139392241Y-70640024D01*
X139392239Y-70640025D01*
X139231825Y-70688686D01*
X139231824Y-70688686D01*
X139231821Y-70688687D01*
X139106804Y-70701000D01*
X139023196Y-70701000D01*
X138898179Y-70688687D01*
X138898176Y-70688686D01*
X138898175Y-70688686D01*
X138737761Y-70640025D01*
X138737759Y-70640024D01*
X138737756Y-70640023D01*
X138589922Y-70561005D01*
X138460341Y-70454659D01*
X138353995Y-70325078D01*
X138274977Y-70177244D01*
X138238967Y-70058534D01*
X138226314Y-70016825D01*
X138226314Y-70016824D01*
X138226313Y-70016821D01*
X138209883Y-69850000D01*
X138226313Y-69683179D01*
X138235703Y-69652223D01*
X138274975Y-69522761D01*
X138274976Y-69522759D01*
X138274977Y-69522756D01*
X138353995Y-69374922D01*
X138460341Y-69245341D01*
X138589922Y-69138995D01*
X138737756Y-69059977D01*
X138737759Y-69059976D01*
X138737761Y-69059975D01*
X138898175Y-69011314D01*
X138898176Y-69011314D01*
X138898179Y-69011313D01*
X139023196Y-68999000D01*
X139106804Y-68999000D01*
X139231821Y-69011313D01*
X139231821Y-69011313D01*
G37*
G36*
X132296000Y-70701000D02*
X130594000Y-70701000D01*
X130594000Y-68999000D01*
X132296000Y-68999000D01*
X132296000Y-70701000D01*
X132296000Y-70701000D01*
G37*
G36*
X128223677Y-69228465D02*
X128261364Y-69239898D01*
X128296103Y-69258466D01*
X128326548Y-69283452D01*
X128351534Y-69313897D01*
X128370102Y-69348636D01*
X128381535Y-69386323D01*
X128386000Y-69431661D01*
X128386000Y-70268339D01*
X128381535Y-70313677D01*
X128370102Y-70351364D01*
X128351534Y-70386103D01*
X128326548Y-70416548D01*
X128296103Y-70441534D01*
X128261364Y-70460102D01*
X128223677Y-70471535D01*
X128178339Y-70476000D01*
X127091661Y-70476000D01*
X127046323Y-70471535D01*
X127008636Y-70460102D01*
X126973897Y-70441534D01*
X126943452Y-70416548D01*
X126918466Y-70386103D01*
X126899898Y-70351364D01*
X126888465Y-70313677D01*
X126884000Y-70268339D01*
X126884000Y-69431661D01*
X126888465Y-69386323D01*
X126899898Y-69348636D01*
X126918466Y-69313897D01*
X126943452Y-69283452D01*
X126973897Y-69258466D01*
X127008636Y-69239898D01*
X127046323Y-69228465D01*
X127091661Y-69224000D01*
X128178339Y-69224000D01*
X128223677Y-69228465D01*
X128223677Y-69228465D01*
G37*
G36*
X145445444Y-66970520D02*
X145511628Y-66977038D01*
X145624854Y-67011385D01*
X145681468Y-67028558D01*
X145820088Y-67102653D01*
X145837992Y-67112223D01*
X145873730Y-67141553D01*
X145975187Y-67224815D01*
X146035769Y-67298636D01*
X146087779Y-67362010D01*
X146087780Y-67362012D01*
X146171444Y-67518534D01*
X146171444Y-67518535D01*
X146222964Y-67688374D01*
X146240360Y-67865001D01*
X146222964Y-68041628D01*
X146188929Y-68153827D01*
X146171444Y-68211468D01*
X146143537Y-68263677D01*
X146087779Y-68367992D01*
X146068458Y-68391534D01*
X145975187Y-68505187D01*
X145873730Y-68588449D01*
X145837992Y-68617779D01*
X145837990Y-68617780D01*
X145681468Y-68701444D01*
X145624854Y-68718617D01*
X145511628Y-68752964D01*
X145445444Y-68759482D01*
X145379261Y-68766001D01*
X145290741Y-68766001D01*
X145224558Y-68759482D01*
X145158374Y-68752964D01*
X145045148Y-68718617D01*
X144988534Y-68701444D01*
X144832012Y-68617780D01*
X144832010Y-68617779D01*
X144796272Y-68588449D01*
X144694815Y-68505187D01*
X144601544Y-68391534D01*
X144582223Y-68367992D01*
X144526465Y-68263677D01*
X144498558Y-68211468D01*
X144481073Y-68153827D01*
X144447038Y-68041628D01*
X144429642Y-67865001D01*
X144447038Y-67688374D01*
X144498558Y-67518535D01*
X144498558Y-67518534D01*
X144582222Y-67362012D01*
X144582223Y-67362010D01*
X144634233Y-67298636D01*
X144694815Y-67224815D01*
X144796272Y-67141553D01*
X144832010Y-67112223D01*
X144849914Y-67102653D01*
X144988534Y-67028558D01*
X145045148Y-67011385D01*
X145158374Y-66977038D01*
X145224558Y-66970520D01*
X145290741Y-66964001D01*
X145379261Y-66964001D01*
X145445444Y-66970520D01*
X145445444Y-66970520D01*
G37*
G36*
X142905444Y-66970520D02*
X142971628Y-66977038D01*
X143084854Y-67011385D01*
X143141468Y-67028558D01*
X143280088Y-67102653D01*
X143297992Y-67112223D01*
X143333730Y-67141553D01*
X143435187Y-67224815D01*
X143495769Y-67298636D01*
X143547779Y-67362010D01*
X143547780Y-67362012D01*
X143631444Y-67518534D01*
X143631444Y-67518535D01*
X143682964Y-67688374D01*
X143700360Y-67865001D01*
X143682964Y-68041628D01*
X143648929Y-68153827D01*
X143631444Y-68211468D01*
X143603537Y-68263677D01*
X143547779Y-68367992D01*
X143528458Y-68391534D01*
X143435187Y-68505187D01*
X143333730Y-68588449D01*
X143297992Y-68617779D01*
X143297990Y-68617780D01*
X143141468Y-68701444D01*
X143084854Y-68718617D01*
X142971628Y-68752964D01*
X142905444Y-68759482D01*
X142839261Y-68766001D01*
X142750741Y-68766001D01*
X142684558Y-68759482D01*
X142618374Y-68752964D01*
X142505148Y-68718617D01*
X142448534Y-68701444D01*
X142292012Y-68617780D01*
X142292010Y-68617779D01*
X142256272Y-68588449D01*
X142154815Y-68505187D01*
X142061544Y-68391534D01*
X142042223Y-68367992D01*
X141986465Y-68263677D01*
X141958558Y-68211468D01*
X141941073Y-68153827D01*
X141907038Y-68041628D01*
X141889642Y-67865001D01*
X141907038Y-67688374D01*
X141958558Y-67518535D01*
X141958558Y-67518534D01*
X142042222Y-67362012D01*
X142042223Y-67362010D01*
X142094233Y-67298636D01*
X142154815Y-67224815D01*
X142256272Y-67141553D01*
X142292010Y-67112223D01*
X142309914Y-67102653D01*
X142448534Y-67028558D01*
X142505148Y-67011385D01*
X142618374Y-66977038D01*
X142684558Y-66970520D01*
X142750741Y-66964001D01*
X142839261Y-66964001D01*
X142905444Y-66970520D01*
X142905444Y-66970520D01*
G37*
G36*
X128223677Y-67178465D02*
X128261364Y-67189898D01*
X128296103Y-67208466D01*
X128326548Y-67233452D01*
X128351534Y-67263897D01*
X128370102Y-67298636D01*
X128381535Y-67336323D01*
X128386000Y-67381661D01*
X128386000Y-68218339D01*
X128381535Y-68263677D01*
X128370102Y-68301364D01*
X128351534Y-68336103D01*
X128326548Y-68366548D01*
X128296103Y-68391534D01*
X128261364Y-68410102D01*
X128223677Y-68421535D01*
X128178339Y-68426000D01*
X127091661Y-68426000D01*
X127046323Y-68421535D01*
X127008636Y-68410102D01*
X126973897Y-68391534D01*
X126943452Y-68366548D01*
X126918466Y-68336103D01*
X126899898Y-68301364D01*
X126888465Y-68263677D01*
X126884000Y-68218339D01*
X126884000Y-67381661D01*
X126888465Y-67336323D01*
X126899898Y-67298636D01*
X126918466Y-67263897D01*
X126943452Y-67233452D01*
X126973897Y-67208466D01*
X127008636Y-67189898D01*
X127046323Y-67178465D01*
X127091661Y-67174000D01*
X128178339Y-67174000D01*
X128223677Y-67178465D01*
X128223677Y-67178465D01*
G37*
G36*
X138166966Y-65928565D02*
X138205637Y-65940296D01*
X138241279Y-65959348D01*
X138272517Y-65984983D01*
X138298152Y-66016221D01*
X138317204Y-66051863D01*
X138328935Y-66090534D01*
X138333500Y-66136888D01*
X138333500Y-67213112D01*
X138328935Y-67259466D01*
X138317204Y-67298137D01*
X138298152Y-67333779D01*
X138272517Y-67365017D01*
X138241279Y-67390652D01*
X138205637Y-67409704D01*
X138166966Y-67421435D01*
X138120612Y-67426000D01*
X137469388Y-67426000D01*
X137423034Y-67421435D01*
X137384363Y-67409704D01*
X137348721Y-67390652D01*
X137317483Y-67365017D01*
X137291848Y-67333779D01*
X137272796Y-67298137D01*
X137261065Y-67259466D01*
X137256500Y-67213112D01*
X137256500Y-66136888D01*
X137261065Y-66090534D01*
X137272796Y-66051863D01*
X137291848Y-66016221D01*
X137317483Y-65984983D01*
X137348721Y-65959348D01*
X137384363Y-65940296D01*
X137423034Y-65928565D01*
X137469388Y-65924000D01*
X138120612Y-65924000D01*
X138166966Y-65928565D01*
X138166966Y-65928565D01*
G37*
G36*
X140041966Y-65928565D02*
X140080637Y-65940296D01*
X140116279Y-65959348D01*
X140147517Y-65984983D01*
X140173152Y-66016221D01*
X140192204Y-66051863D01*
X140203935Y-66090534D01*
X140208500Y-66136888D01*
X140208500Y-67213112D01*
X140203935Y-67259466D01*
X140192204Y-67298137D01*
X140173152Y-67333779D01*
X140147517Y-67365017D01*
X140116279Y-67390652D01*
X140080637Y-67409704D01*
X140041966Y-67421435D01*
X139995612Y-67426000D01*
X139344388Y-67426000D01*
X139298034Y-67421435D01*
X139259363Y-67409704D01*
X139223721Y-67390652D01*
X139192483Y-67365017D01*
X139166848Y-67333779D01*
X139147796Y-67298137D01*
X139136065Y-67259466D01*
X139131500Y-67213112D01*
X139131500Y-66136888D01*
X139136065Y-66090534D01*
X139147796Y-66051863D01*
X139166848Y-66016221D01*
X139192483Y-65984983D01*
X139223721Y-65959348D01*
X139259363Y-65940296D01*
X139298034Y-65928565D01*
X139344388Y-65924000D01*
X139995612Y-65924000D01*
X140041966Y-65928565D01*
X140041966Y-65928565D01*
G37*
G36*
X145445443Y-64430519D02*
X145511628Y-64437038D01*
X145624854Y-64471385D01*
X145681468Y-64488558D01*
X145820088Y-64562653D01*
X145837992Y-64572223D01*
X145873730Y-64601553D01*
X145975187Y-64684815D01*
X146058449Y-64786272D01*
X146087779Y-64822010D01*
X146087780Y-64822012D01*
X146171444Y-64978534D01*
X146171444Y-64978535D01*
X146222964Y-65148374D01*
X146240360Y-65325001D01*
X146222964Y-65501628D01*
X146188617Y-65614854D01*
X146171444Y-65671468D01*
X146097349Y-65810088D01*
X146087779Y-65827992D01*
X146058449Y-65863730D01*
X145975187Y-65965187D01*
X145879562Y-66043663D01*
X145837992Y-66077779D01*
X145837990Y-66077780D01*
X145681468Y-66161444D01*
X145624854Y-66178617D01*
X145511628Y-66212964D01*
X145445443Y-66219483D01*
X145379261Y-66226001D01*
X145290741Y-66226001D01*
X145224559Y-66219483D01*
X145158374Y-66212964D01*
X145045148Y-66178617D01*
X144988534Y-66161444D01*
X144832012Y-66077780D01*
X144832010Y-66077779D01*
X144790440Y-66043663D01*
X144694815Y-65965187D01*
X144611553Y-65863730D01*
X144582223Y-65827992D01*
X144572653Y-65810088D01*
X144498558Y-65671468D01*
X144481385Y-65614854D01*
X144447038Y-65501628D01*
X144429642Y-65325001D01*
X144447038Y-65148374D01*
X144498558Y-64978535D01*
X144498558Y-64978534D01*
X144582222Y-64822012D01*
X144582223Y-64822010D01*
X144611553Y-64786272D01*
X144694815Y-64684815D01*
X144796272Y-64601553D01*
X144832010Y-64572223D01*
X144849914Y-64562653D01*
X144988534Y-64488558D01*
X145045148Y-64471385D01*
X145158374Y-64437038D01*
X145224559Y-64430519D01*
X145290741Y-64424001D01*
X145379261Y-64424001D01*
X145445443Y-64430519D01*
X145445443Y-64430519D01*
G37*
G36*
X142905443Y-64430519D02*
X142971628Y-64437038D01*
X143084854Y-64471385D01*
X143141468Y-64488558D01*
X143280088Y-64562653D01*
X143297992Y-64572223D01*
X143333730Y-64601553D01*
X143435187Y-64684815D01*
X143518449Y-64786272D01*
X143547779Y-64822010D01*
X143547780Y-64822012D01*
X143631444Y-64978534D01*
X143631444Y-64978535D01*
X143682964Y-65148374D01*
X143700360Y-65325001D01*
X143682964Y-65501628D01*
X143648617Y-65614854D01*
X143631444Y-65671468D01*
X143557349Y-65810088D01*
X143547779Y-65827992D01*
X143518449Y-65863730D01*
X143435187Y-65965187D01*
X143339562Y-66043663D01*
X143297992Y-66077779D01*
X143297990Y-66077780D01*
X143141468Y-66161444D01*
X143084854Y-66178617D01*
X142971628Y-66212964D01*
X142905443Y-66219483D01*
X142839261Y-66226001D01*
X142750741Y-66226001D01*
X142684559Y-66219483D01*
X142618374Y-66212964D01*
X142505148Y-66178617D01*
X142448534Y-66161444D01*
X142292012Y-66077780D01*
X142292010Y-66077779D01*
X142250440Y-66043663D01*
X142154815Y-65965187D01*
X142071553Y-65863730D01*
X142042223Y-65827992D01*
X142032653Y-65810088D01*
X141958558Y-65671468D01*
X141941385Y-65614854D01*
X141907038Y-65501628D01*
X141889642Y-65325001D01*
X141907038Y-65148374D01*
X141958558Y-64978535D01*
X141958558Y-64978534D01*
X142042222Y-64822012D01*
X142042223Y-64822010D01*
X142071553Y-64786272D01*
X142154815Y-64684815D01*
X142256272Y-64601553D01*
X142292010Y-64572223D01*
X142309914Y-64562653D01*
X142448534Y-64488558D01*
X142505148Y-64471385D01*
X142618374Y-64437038D01*
X142684559Y-64430519D01*
X142750741Y-64424001D01*
X142839261Y-64424001D01*
X142905443Y-64430519D01*
X142905443Y-64430519D01*
G37*
G36*
X145445444Y-61890520D02*
X145511628Y-61897038D01*
X145624854Y-61931385D01*
X145681468Y-61948558D01*
X145820088Y-62022653D01*
X145837992Y-62032223D01*
X145873730Y-62061553D01*
X145975187Y-62144815D01*
X146058449Y-62246272D01*
X146087779Y-62282010D01*
X146087780Y-62282012D01*
X146171444Y-62438534D01*
X146171444Y-62438535D01*
X146222964Y-62608374D01*
X146240360Y-62785001D01*
X146222964Y-62961628D01*
X146188617Y-63074854D01*
X146171444Y-63131468D01*
X146097349Y-63270088D01*
X146087779Y-63287992D01*
X146058449Y-63323730D01*
X145975187Y-63425187D01*
X145873730Y-63508449D01*
X145837992Y-63537779D01*
X145837990Y-63537780D01*
X145681468Y-63621444D01*
X145624854Y-63638617D01*
X145511628Y-63672964D01*
X145445444Y-63679482D01*
X145379261Y-63686001D01*
X145290741Y-63686001D01*
X145224558Y-63679482D01*
X145158374Y-63672964D01*
X145045148Y-63638617D01*
X144988534Y-63621444D01*
X144832012Y-63537780D01*
X144832010Y-63537779D01*
X144796272Y-63508449D01*
X144694815Y-63425187D01*
X144611553Y-63323730D01*
X144582223Y-63287992D01*
X144572653Y-63270088D01*
X144498558Y-63131468D01*
X144481385Y-63074854D01*
X144447038Y-62961628D01*
X144429642Y-62785001D01*
X144447038Y-62608374D01*
X144498558Y-62438535D01*
X144498558Y-62438534D01*
X144582222Y-62282012D01*
X144582223Y-62282010D01*
X144611553Y-62246272D01*
X144694815Y-62144815D01*
X144796272Y-62061553D01*
X144832010Y-62032223D01*
X144849914Y-62022653D01*
X144988534Y-61948558D01*
X145045148Y-61931385D01*
X145158374Y-61897038D01*
X145224558Y-61890520D01*
X145290741Y-61884001D01*
X145379261Y-61884001D01*
X145445444Y-61890520D01*
X145445444Y-61890520D01*
G37*
G36*
X142905444Y-61890520D02*
X142971628Y-61897038D01*
X143084854Y-61931385D01*
X143141468Y-61948558D01*
X143280088Y-62022653D01*
X143297992Y-62032223D01*
X143333730Y-62061553D01*
X143435187Y-62144815D01*
X143518449Y-62246272D01*
X143547779Y-62282010D01*
X143547780Y-62282012D01*
X143631444Y-62438534D01*
X143631444Y-62438535D01*
X143682964Y-62608374D01*
X143700360Y-62785001D01*
X143682964Y-62961628D01*
X143648617Y-63074854D01*
X143631444Y-63131468D01*
X143557349Y-63270088D01*
X143547779Y-63287992D01*
X143518449Y-63323730D01*
X143435187Y-63425187D01*
X143333730Y-63508449D01*
X143297992Y-63537779D01*
X143297990Y-63537780D01*
X143141468Y-63621444D01*
X143084854Y-63638617D01*
X142971628Y-63672964D01*
X142905444Y-63679482D01*
X142839261Y-63686001D01*
X142750741Y-63686001D01*
X142684558Y-63679482D01*
X142618374Y-63672964D01*
X142505148Y-63638617D01*
X142448534Y-63621444D01*
X142292012Y-63537780D01*
X142292010Y-63537779D01*
X142256272Y-63508449D01*
X142154815Y-63425187D01*
X142071553Y-63323730D01*
X142042223Y-63287992D01*
X142032653Y-63270088D01*
X141958558Y-63131468D01*
X141941385Y-63074854D01*
X141907038Y-62961628D01*
X141889642Y-62785001D01*
X141907038Y-62608374D01*
X141958558Y-62438535D01*
X141958558Y-62438534D01*
X142042222Y-62282012D01*
X142042223Y-62282010D01*
X142071553Y-62246272D01*
X142154815Y-62144815D01*
X142256272Y-62061553D01*
X142292010Y-62032223D01*
X142309914Y-62022653D01*
X142448534Y-61948558D01*
X142505148Y-61931385D01*
X142618374Y-61897038D01*
X142684558Y-61890520D01*
X142750741Y-61884001D01*
X142839261Y-61884001D01*
X142905444Y-61890520D01*
X142905444Y-61890520D01*
G37*
G36*
X143696001Y-61146001D02*
X141894001Y-61146001D01*
X141894001Y-59344001D01*
X143696001Y-59344001D01*
X143696001Y-61146001D01*
X143696001Y-61146001D01*
G37*
G36*
X145445443Y-59350519D02*
X145511628Y-59357038D01*
X145624854Y-59391385D01*
X145681468Y-59408558D01*
X145820088Y-59482653D01*
X145837992Y-59492223D01*
X145873730Y-59521553D01*
X145975187Y-59604815D01*
X146058449Y-59706272D01*
X146087779Y-59742010D01*
X146087780Y-59742012D01*
X146171444Y-59898534D01*
X146171444Y-59898535D01*
X146222964Y-60068374D01*
X146240360Y-60245001D01*
X146222964Y-60421628D01*
X146188617Y-60534854D01*
X146171444Y-60591468D01*
X146097349Y-60730088D01*
X146087779Y-60747992D01*
X146058449Y-60783730D01*
X145975187Y-60885187D01*
X145873730Y-60968449D01*
X145837992Y-60997779D01*
X145837990Y-60997780D01*
X145681468Y-61081444D01*
X145624854Y-61098617D01*
X145511628Y-61132964D01*
X145445444Y-61139482D01*
X145379261Y-61146001D01*
X145290741Y-61146001D01*
X145224558Y-61139482D01*
X145158374Y-61132964D01*
X145045148Y-61098617D01*
X144988534Y-61081444D01*
X144832012Y-60997780D01*
X144832010Y-60997779D01*
X144796272Y-60968449D01*
X144694815Y-60885187D01*
X144611553Y-60783730D01*
X144582223Y-60747992D01*
X144572653Y-60730088D01*
X144498558Y-60591468D01*
X144481385Y-60534854D01*
X144447038Y-60421628D01*
X144429642Y-60245001D01*
X144447038Y-60068374D01*
X144498558Y-59898535D01*
X144498558Y-59898534D01*
X144582222Y-59742012D01*
X144582223Y-59742010D01*
X144611553Y-59706272D01*
X144694815Y-59604815D01*
X144796272Y-59521553D01*
X144832010Y-59492223D01*
X144849914Y-59482653D01*
X144988534Y-59408558D01*
X145045148Y-59391385D01*
X145158374Y-59357038D01*
X145224559Y-59350519D01*
X145290741Y-59344001D01*
X145379261Y-59344001D01*
X145445443Y-59350519D01*
X145445443Y-59350519D01*
G37*
G36*
X127745442Y-54350518D02*
X127811627Y-54357037D01*
X127924853Y-54391384D01*
X127981467Y-54408557D01*
X128120087Y-54482652D01*
X128137991Y-54492222D01*
X128173729Y-54521552D01*
X128275186Y-54604814D01*
X128358448Y-54706271D01*
X128387778Y-54742009D01*
X128387779Y-54742011D01*
X128471443Y-54898533D01*
X128471443Y-54898534D01*
X128522963Y-55068373D01*
X128540359Y-55245000D01*
X128522963Y-55421627D01*
X128488616Y-55534853D01*
X128471443Y-55591467D01*
X128397348Y-55730087D01*
X128387778Y-55747991D01*
X128358448Y-55783729D01*
X128275186Y-55885186D01*
X128173729Y-55968448D01*
X128137991Y-55997778D01*
X128137989Y-55997779D01*
X127981467Y-56081443D01*
X127924853Y-56098616D01*
X127811627Y-56132963D01*
X127745443Y-56139481D01*
X127679260Y-56146000D01*
X127590740Y-56146000D01*
X127524557Y-56139481D01*
X127458373Y-56132963D01*
X127345147Y-56098616D01*
X127288533Y-56081443D01*
X127132011Y-55997779D01*
X127132009Y-55997778D01*
X127096271Y-55968448D01*
X126994814Y-55885186D01*
X126911552Y-55783729D01*
X126882222Y-55747991D01*
X126872652Y-55730087D01*
X126798557Y-55591467D01*
X126781384Y-55534853D01*
X126747037Y-55421627D01*
X126729641Y-55245000D01*
X126747037Y-55068373D01*
X126798557Y-54898534D01*
X126798557Y-54898533D01*
X126882221Y-54742011D01*
X126882222Y-54742009D01*
X126911552Y-54706271D01*
X126994814Y-54604814D01*
X127096271Y-54521552D01*
X127132009Y-54492222D01*
X127149913Y-54482652D01*
X127288533Y-54408557D01*
X127345147Y-54391384D01*
X127458373Y-54357037D01*
X127524558Y-54350518D01*
X127590740Y-54344000D01*
X127679260Y-54344000D01*
X127745442Y-54350518D01*
X127745442Y-54350518D01*
G37*
G36*
X130285442Y-54350518D02*
X130351627Y-54357037D01*
X130464853Y-54391384D01*
X130521467Y-54408557D01*
X130660087Y-54482652D01*
X130677991Y-54492222D01*
X130713729Y-54521552D01*
X130815186Y-54604814D01*
X130898448Y-54706271D01*
X130927778Y-54742009D01*
X130927779Y-54742011D01*
X131011443Y-54898533D01*
X131011443Y-54898534D01*
X131062963Y-55068373D01*
X131080359Y-55245000D01*
X131062963Y-55421627D01*
X131028616Y-55534853D01*
X131011443Y-55591467D01*
X130937348Y-55730087D01*
X130927778Y-55747991D01*
X130898448Y-55783729D01*
X130815186Y-55885186D01*
X130713729Y-55968448D01*
X130677991Y-55997778D01*
X130677989Y-55997779D01*
X130521467Y-56081443D01*
X130464853Y-56098616D01*
X130351627Y-56132963D01*
X130285443Y-56139481D01*
X130219260Y-56146000D01*
X130130740Y-56146000D01*
X130064557Y-56139481D01*
X129998373Y-56132963D01*
X129885147Y-56098616D01*
X129828533Y-56081443D01*
X129672011Y-55997779D01*
X129672009Y-55997778D01*
X129636271Y-55968448D01*
X129534814Y-55885186D01*
X129451552Y-55783729D01*
X129422222Y-55747991D01*
X129412652Y-55730087D01*
X129338557Y-55591467D01*
X129321384Y-55534853D01*
X129287037Y-55421627D01*
X129269641Y-55245000D01*
X129287037Y-55068373D01*
X129338557Y-54898534D01*
X129338557Y-54898533D01*
X129422221Y-54742011D01*
X129422222Y-54742009D01*
X129451552Y-54706271D01*
X129534814Y-54604814D01*
X129636271Y-54521552D01*
X129672009Y-54492222D01*
X129689913Y-54482652D01*
X129828533Y-54408557D01*
X129885147Y-54391384D01*
X129998373Y-54357037D01*
X130064558Y-54350518D01*
X130130740Y-54344000D01*
X130219260Y-54344000D01*
X130285442Y-54350518D01*
X130285442Y-54350518D01*
G37*
G36*
X132825442Y-54350518D02*
X132891627Y-54357037D01*
X133004853Y-54391384D01*
X133061467Y-54408557D01*
X133200087Y-54482652D01*
X133217991Y-54492222D01*
X133253729Y-54521552D01*
X133355186Y-54604814D01*
X133438448Y-54706271D01*
X133467778Y-54742009D01*
X133467779Y-54742011D01*
X133551443Y-54898533D01*
X133551443Y-54898534D01*
X133602963Y-55068373D01*
X133620359Y-55245000D01*
X133602963Y-55421627D01*
X133568616Y-55534853D01*
X133551443Y-55591467D01*
X133477348Y-55730087D01*
X133467778Y-55747991D01*
X133438448Y-55783729D01*
X133355186Y-55885186D01*
X133253729Y-55968448D01*
X133217991Y-55997778D01*
X133217989Y-55997779D01*
X133061467Y-56081443D01*
X133004853Y-56098616D01*
X132891627Y-56132963D01*
X132825443Y-56139481D01*
X132759260Y-56146000D01*
X132670740Y-56146000D01*
X132604557Y-56139481D01*
X132538373Y-56132963D01*
X132425147Y-56098616D01*
X132368533Y-56081443D01*
X132212011Y-55997779D01*
X132212009Y-55997778D01*
X132176271Y-55968448D01*
X132074814Y-55885186D01*
X131991552Y-55783729D01*
X131962222Y-55747991D01*
X131952652Y-55730087D01*
X131878557Y-55591467D01*
X131861384Y-55534853D01*
X131827037Y-55421627D01*
X131809641Y-55245000D01*
X131827037Y-55068373D01*
X131878557Y-54898534D01*
X131878557Y-54898533D01*
X131962221Y-54742011D01*
X131962222Y-54742009D01*
X131991552Y-54706271D01*
X132074814Y-54604814D01*
X132176271Y-54521552D01*
X132212009Y-54492222D01*
X132229913Y-54482652D01*
X132368533Y-54408557D01*
X132425147Y-54391384D01*
X132538373Y-54357037D01*
X132604558Y-54350518D01*
X132670740Y-54344000D01*
X132759260Y-54344000D01*
X132825442Y-54350518D01*
X132825442Y-54350518D01*
G37*
G36*
X146316000Y-56146000D02*
X144514000Y-56146000D01*
X144514000Y-54344000D01*
X146316000Y-54344000D01*
X146316000Y-56146000D01*
X146316000Y-56146000D01*
G37*
G36*
X142985442Y-54350518D02*
X143051627Y-54357037D01*
X143164853Y-54391384D01*
X143221467Y-54408557D01*
X143360087Y-54482652D01*
X143377991Y-54492222D01*
X143413729Y-54521552D01*
X143515186Y-54604814D01*
X143598448Y-54706271D01*
X143627778Y-54742009D01*
X143627779Y-54742011D01*
X143711443Y-54898533D01*
X143711443Y-54898534D01*
X143762963Y-55068373D01*
X143780359Y-55245000D01*
X143762963Y-55421627D01*
X143728616Y-55534853D01*
X143711443Y-55591467D01*
X143637348Y-55730087D01*
X143627778Y-55747991D01*
X143598448Y-55783729D01*
X143515186Y-55885186D01*
X143413729Y-55968448D01*
X143377991Y-55997778D01*
X143377989Y-55997779D01*
X143221467Y-56081443D01*
X143164853Y-56098616D01*
X143051627Y-56132963D01*
X142985443Y-56139481D01*
X142919260Y-56146000D01*
X142830740Y-56146000D01*
X142764557Y-56139481D01*
X142698373Y-56132963D01*
X142585147Y-56098616D01*
X142528533Y-56081443D01*
X142372011Y-55997779D01*
X142372009Y-55997778D01*
X142336271Y-55968448D01*
X142234814Y-55885186D01*
X142151552Y-55783729D01*
X142122222Y-55747991D01*
X142112652Y-55730087D01*
X142038557Y-55591467D01*
X142021384Y-55534853D01*
X141987037Y-55421627D01*
X141969641Y-55245000D01*
X141987037Y-55068373D01*
X142038557Y-54898534D01*
X142038557Y-54898533D01*
X142122221Y-54742011D01*
X142122222Y-54742009D01*
X142151552Y-54706271D01*
X142234814Y-54604814D01*
X142336271Y-54521552D01*
X142372009Y-54492222D01*
X142389913Y-54482652D01*
X142528533Y-54408557D01*
X142585147Y-54391384D01*
X142698373Y-54357037D01*
X142764558Y-54350518D01*
X142830740Y-54344000D01*
X142919260Y-54344000D01*
X142985442Y-54350518D01*
X142985442Y-54350518D01*
G37*
G36*
X140445442Y-54350518D02*
X140511627Y-54357037D01*
X140624853Y-54391384D01*
X140681467Y-54408557D01*
X140820087Y-54482652D01*
X140837991Y-54492222D01*
X140873729Y-54521552D01*
X140975186Y-54604814D01*
X141058448Y-54706271D01*
X141087778Y-54742009D01*
X141087779Y-54742011D01*
X141171443Y-54898533D01*
X141171443Y-54898534D01*
X141222963Y-55068373D01*
X141240359Y-55245000D01*
X141222963Y-55421627D01*
X141188616Y-55534853D01*
X141171443Y-55591467D01*
X141097348Y-55730087D01*
X141087778Y-55747991D01*
X141058448Y-55783729D01*
X140975186Y-55885186D01*
X140873729Y-55968448D01*
X140837991Y-55997778D01*
X140837989Y-55997779D01*
X140681467Y-56081443D01*
X140624853Y-56098616D01*
X140511627Y-56132963D01*
X140445443Y-56139481D01*
X140379260Y-56146000D01*
X140290740Y-56146000D01*
X140224557Y-56139481D01*
X140158373Y-56132963D01*
X140045147Y-56098616D01*
X139988533Y-56081443D01*
X139832011Y-55997779D01*
X139832009Y-55997778D01*
X139796271Y-55968448D01*
X139694814Y-55885186D01*
X139611552Y-55783729D01*
X139582222Y-55747991D01*
X139572652Y-55730087D01*
X139498557Y-55591467D01*
X139481384Y-55534853D01*
X139447037Y-55421627D01*
X139429641Y-55245000D01*
X139447037Y-55068373D01*
X139498557Y-54898534D01*
X139498557Y-54898533D01*
X139582221Y-54742011D01*
X139582222Y-54742009D01*
X139611552Y-54706271D01*
X139694814Y-54604814D01*
X139796271Y-54521552D01*
X139832009Y-54492222D01*
X139849913Y-54482652D01*
X139988533Y-54408557D01*
X140045147Y-54391384D01*
X140158373Y-54357037D01*
X140224558Y-54350518D01*
X140290740Y-54344000D01*
X140379260Y-54344000D01*
X140445442Y-54350518D01*
X140445442Y-54350518D01*
G37*
G36*
X137905442Y-54350518D02*
X137971627Y-54357037D01*
X138084853Y-54391384D01*
X138141467Y-54408557D01*
X138280087Y-54482652D01*
X138297991Y-54492222D01*
X138333729Y-54521552D01*
X138435186Y-54604814D01*
X138518448Y-54706271D01*
X138547778Y-54742009D01*
X138547779Y-54742011D01*
X138631443Y-54898533D01*
X138631443Y-54898534D01*
X138682963Y-55068373D01*
X138700359Y-55245000D01*
X138682963Y-55421627D01*
X138648616Y-55534853D01*
X138631443Y-55591467D01*
X138557348Y-55730087D01*
X138547778Y-55747991D01*
X138518448Y-55783729D01*
X138435186Y-55885186D01*
X138333729Y-55968448D01*
X138297991Y-55997778D01*
X138297989Y-55997779D01*
X138141467Y-56081443D01*
X138084853Y-56098616D01*
X137971627Y-56132963D01*
X137905443Y-56139481D01*
X137839260Y-56146000D01*
X137750740Y-56146000D01*
X137684557Y-56139481D01*
X137618373Y-56132963D01*
X137505147Y-56098616D01*
X137448533Y-56081443D01*
X137292011Y-55997779D01*
X137292009Y-55997778D01*
X137256271Y-55968448D01*
X137154814Y-55885186D01*
X137071552Y-55783729D01*
X137042222Y-55747991D01*
X137032652Y-55730087D01*
X136958557Y-55591467D01*
X136941384Y-55534853D01*
X136907037Y-55421627D01*
X136889641Y-55245000D01*
X136907037Y-55068373D01*
X136958557Y-54898534D01*
X136958557Y-54898533D01*
X137042221Y-54742011D01*
X137042222Y-54742009D01*
X137071552Y-54706271D01*
X137154814Y-54604814D01*
X137256271Y-54521552D01*
X137292009Y-54492222D01*
X137309913Y-54482652D01*
X137448533Y-54408557D01*
X137505147Y-54391384D01*
X137618373Y-54357037D01*
X137684558Y-54350518D01*
X137750740Y-54344000D01*
X137839260Y-54344000D01*
X137905442Y-54350518D01*
X137905442Y-54350518D01*
G37*
G36*
X135365442Y-54350518D02*
X135431627Y-54357037D01*
X135544853Y-54391384D01*
X135601467Y-54408557D01*
X135740087Y-54482652D01*
X135757991Y-54492222D01*
X135793729Y-54521552D01*
X135895186Y-54604814D01*
X135978448Y-54706271D01*
X136007778Y-54742009D01*
X136007779Y-54742011D01*
X136091443Y-54898533D01*
X136091443Y-54898534D01*
X136142963Y-55068373D01*
X136160359Y-55245000D01*
X136142963Y-55421627D01*
X136108616Y-55534853D01*
X136091443Y-55591467D01*
X136017348Y-55730087D01*
X136007778Y-55747991D01*
X135978448Y-55783729D01*
X135895186Y-55885186D01*
X135793729Y-55968448D01*
X135757991Y-55997778D01*
X135757989Y-55997779D01*
X135601467Y-56081443D01*
X135544853Y-56098616D01*
X135431627Y-56132963D01*
X135365443Y-56139481D01*
X135299260Y-56146000D01*
X135210740Y-56146000D01*
X135144557Y-56139481D01*
X135078373Y-56132963D01*
X134965147Y-56098616D01*
X134908533Y-56081443D01*
X134752011Y-55997779D01*
X134752009Y-55997778D01*
X134716271Y-55968448D01*
X134614814Y-55885186D01*
X134531552Y-55783729D01*
X134502222Y-55747991D01*
X134492652Y-55730087D01*
X134418557Y-55591467D01*
X134401384Y-55534853D01*
X134367037Y-55421627D01*
X134349641Y-55245000D01*
X134367037Y-55068373D01*
X134418557Y-54898534D01*
X134418557Y-54898533D01*
X134502221Y-54742011D01*
X134502222Y-54742009D01*
X134531552Y-54706271D01*
X134614814Y-54604814D01*
X134716271Y-54521552D01*
X134752009Y-54492222D01*
X134769913Y-54482652D01*
X134908533Y-54408557D01*
X134965147Y-54391384D01*
X135078373Y-54357037D01*
X135144558Y-54350518D01*
X135210740Y-54344000D01*
X135299260Y-54344000D01*
X135365442Y-54350518D01*
X135365442Y-54350518D01*
G37*
M02*
